%TF.GenerationSoftware,KiCad,Pcbnew,9.0.3*%
%TF.CreationDate,2025-09-08T20:45:54+03:00*%
%TF.ProjectId,LineFollowerPCB,4c696e65-466f-46c6-9c6f-776572504342,1.0*%
%TF.SameCoordinates,Original*%
%TF.FileFunction,Profile,NP*%
%FSLAX46Y46*%
G04 Gerber Fmt 4.6, Leading zero omitted, Abs format (unit mm)*
G04 Created by KiCad (PCBNEW 9.0.3) date 2025-09-08 20:45:54*
%MOMM*%
%LPD*%
G01*
G04 APERTURE LIST*
%TA.AperFunction,Profile*%
%ADD10C,0.050000*%
%TD*%
G04 APERTURE END LIST*
D10*
X72000000Y-51000000D02*
X72000000Y-127000000D01*
X101000000Y-108000000D02*
X93000000Y-115000000D01*
X186000000Y-39000000D02*
X155000000Y-70000000D01*
X96500000Y-133500000D02*
G75*
G02*
X90500000Y-133500000I-3000000J0D01*
G01*
X90500000Y-133500000D02*
G75*
G02*
X96500000Y-133500000I3000000J0D01*
G01*
X106000000Y-139000000D02*
X80000000Y-139000000D01*
X218000000Y-39000000D02*
G75*
G02*
X222000000Y-43000000I0J-4000000D01*
G01*
X185000000Y-139000000D02*
X156000000Y-108000000D01*
X93000000Y-124000000D02*
X106000000Y-139000000D01*
X156000000Y-108000000D02*
X101000000Y-108000000D01*
X100000000Y-70000000D02*
X93000000Y-64000000D01*
X222000000Y-135000000D02*
G75*
G02*
X218000000Y-139000000I-4000000J0D01*
G01*
X218000000Y-139000000D02*
X185000000Y-139000000D01*
X93000000Y-55000000D02*
X93000000Y-64000000D01*
X93000000Y-124000000D02*
X93000000Y-115000000D01*
X80000000Y-139000000D02*
X72000000Y-127000000D01*
X155000000Y-70000000D02*
X100000000Y-70000000D01*
X93000000Y-55000000D02*
X105000000Y-39000000D01*
X105000000Y-39000000D02*
X80000000Y-39000000D01*
X222000000Y-135000000D02*
X222000000Y-43000000D01*
X218000000Y-39000000D02*
X186000000Y-39000000D01*
X96500000Y-45100000D02*
G75*
G02*
X90500000Y-45100000I-3000000J0D01*
G01*
X90500000Y-45100000D02*
G75*
G02*
X96500000Y-45100000I3000000J0D01*
G01*
X80000000Y-39000000D02*
X72000000Y-51000000D01*
%TO.C,M2*%
X204000000Y-43450000D02*
G75*
G02*
X201600000Y-43450000I-1200000J0D01*
G01*
X201600000Y-43450000D02*
G75*
G02*
X204000000Y-43450000I1200000J0D01*
G01*
X204000000Y-50850000D02*
G75*
G02*
X201600000Y-50850000I-1200000J0D01*
G01*
X201600000Y-50850000D02*
G75*
G02*
X204000000Y-50850000I1200000J0D01*
G01*
X216000000Y-43450000D02*
G75*
G02*
X213600000Y-43450000I-1200000J0D01*
G01*
X213600000Y-43450000D02*
G75*
G02*
X216000000Y-43450000I1200000J0D01*
G01*
X216000000Y-50850000D02*
G75*
G02*
X213600000Y-50850000I-1200000J0D01*
G01*
X213600000Y-50850000D02*
G75*
G02*
X216000000Y-50850000I1200000J0D01*
G01*
%TO.C,M1*%
X204000000Y-127100000D02*
G75*
G02*
X201600000Y-127100000I-1200000J0D01*
G01*
X201600000Y-127100000D02*
G75*
G02*
X204000000Y-127100000I1200000J0D01*
G01*
X204000000Y-134500000D02*
G75*
G02*
X201600000Y-134500000I-1200000J0D01*
G01*
X201600000Y-134500000D02*
G75*
G02*
X204000000Y-134500000I1200000J0D01*
G01*
X216000000Y-127100000D02*
G75*
G02*
X213600000Y-127100000I-1200000J0D01*
G01*
X213600000Y-127100000D02*
G75*
G02*
X216000000Y-127100000I1200000J0D01*
G01*
X216000000Y-134500000D02*
G75*
G02*
X213600000Y-134500000I-1200000J0D01*
G01*
X213600000Y-134500000D02*
G75*
G02*
X216000000Y-134500000I1200000J0D01*
G01*
%TD*%
M02*
