M48
; DRILL file {KiCad 9.0.3} date 2025-09-08T20:45:57+0300
; FORMAT={-:-/ absolute / metric / decimal}
; #@! TF.CreationDate,2025-09-08T20:45:57+03:00
; #@! TF.GenerationSoftware,Kicad,Pcbnew,9.0.3
; #@! TF.FileFunction,Plated,1,2,PTH
FMAT,2
METRIC
; #@! TA.AperFunction,Plated,PTH,ComponentDrill
T1C1.000
%
G90
G05
T1
X78.0Y-130.4
X80.54Y-130.4
X83.0Y-76.3
X83.0Y-78.84
X83.0Y-81.38
X83.0Y-83.92
X83.0Y-86.46
X83.0Y-89.0
X83.0Y-91.54
X83.0Y-94.08
X83.0Y-96.62
X83.0Y-99.16
X83.0Y-101.7
X83.08Y-130.4
X85.62Y-130.4
X94.0Y-76.3
X94.0Y-78.84
X94.0Y-81.38
X94.0Y-83.92
X94.0Y-86.46
X94.0Y-89.0
X94.0Y-91.54
X94.0Y-94.08
X94.0Y-96.62
X94.0Y-99.16
X94.0Y-101.7
X105.0Y-76.3
X105.0Y-78.84
X105.0Y-81.38
X105.0Y-83.92
X105.0Y-86.46
X105.0Y-89.0
X105.0Y-91.54
X105.0Y-94.08
X105.0Y-96.62
X105.0Y-99.16
X105.0Y-101.7
X171.92Y-59.5
X173.0Y-64.87
X173.0Y-67.41
X173.0Y-69.95
X173.0Y-72.49
X173.0Y-75.03
X173.0Y-77.57
X173.0Y-80.11
X173.0Y-82.65
X173.0Y-85.19
X173.0Y-87.73
X173.0Y-90.27
X173.0Y-92.81
X173.0Y-95.35
X173.0Y-97.89
X173.0Y-100.43
X173.0Y-102.97
X173.0Y-105.51
X173.0Y-108.05
X173.0Y-110.59
X173.0Y-113.13
X182.08Y-59.5
X188.5Y-58.6
X191.0Y-64.87
X191.0Y-67.41
X191.0Y-69.95
X191.0Y-72.49
X191.0Y-75.03
X191.0Y-77.57
X191.0Y-80.11
X191.0Y-82.65
X191.0Y-85.19
X191.0Y-87.73
X191.0Y-90.27
X191.0Y-92.81
X191.0Y-95.35
X191.0Y-97.89
X191.0Y-100.43
X191.0Y-102.97
X191.0Y-105.51
X191.0Y-108.05
X191.0Y-110.59
X191.0Y-113.13
X191.04Y-58.6
X193.58Y-58.6
X197.0Y-93.15
X197.0Y-95.69
X197.0Y-98.23
X197.0Y-100.77
X197.0Y-103.31
X197.0Y-105.85
X200.1Y-65.02
X200.1Y-67.56
X200.1Y-72.64
X200.1Y-75.18
X203.72Y-54.95
X203.72Y-123.0
X212.3Y-93.15
X212.3Y-95.69
X212.3Y-98.23
X212.3Y-100.77
X212.3Y-103.31
X212.3Y-105.85
X213.88Y-54.95
X213.88Y-123.0
X216.525Y-81.4
X217.425Y-95.85
X217.425Y-98.35
X217.425Y-100.85
X217.425Y-103.35
X217.525Y-87.75
X217.525Y-90.25
X217.9Y-65.02
X217.9Y-67.56
X217.9Y-72.64
X217.9Y-75.18
X219.065Y-81.4
M30
