%TF.GenerationSoftware,KiCad,Pcbnew,9.0.3*%
%TF.CreationDate,2025-09-26T00:10:55+03:00*%
%TF.ProjectId,LineFollowerPCB,4c696e65-466f-46c6-9c6f-776572504342,1.0*%
%TF.SameCoordinates,Original*%
%TF.FileFunction,Copper,L2,Bot*%
%TF.FilePolarity,Positive*%
%FSLAX46Y46*%
G04 Gerber Fmt 4.6, Leading zero omitted, Abs format (unit mm)*
G04 Created by KiCad (PCBNEW 9.0.3) date 2025-09-26 00:10:55*
%MOMM*%
%LPD*%
G01*
G04 APERTURE LIST*
G04 Aperture macros list*
%AMFreePoly0*
4,1,23,0.500000,-0.750000,0.000000,-0.750000,0.000000,-0.745722,-0.065263,-0.745722,-0.191342,-0.711940,-0.304381,-0.646677,-0.396677,-0.554381,-0.461940,-0.441342,-0.495722,-0.315263,-0.495722,-0.250000,-0.500000,-0.250000,-0.500000,0.250000,-0.495722,0.250000,-0.495722,0.315263,-0.461940,0.441342,-0.396677,0.554381,-0.304381,0.646677,-0.191342,0.711940,-0.065263,0.745722,0.000000,0.745722,
0.000000,0.750000,0.500000,0.750000,0.500000,-0.750000,0.500000,-0.750000,$1*%
%AMFreePoly1*
4,1,23,0.000000,0.745722,0.065263,0.745722,0.191342,0.711940,0.304381,0.646677,0.396677,0.554381,0.461940,0.441342,0.495722,0.315263,0.495722,0.250000,0.500000,0.250000,0.500000,-0.250000,0.495722,-0.250000,0.495722,-0.315263,0.461940,-0.441342,0.396677,-0.554381,0.304381,-0.646677,0.191342,-0.711940,0.065263,-0.745722,0.000000,-0.745722,0.000000,-0.750000,-0.500000,-0.750000,
-0.500000,0.750000,0.000000,0.750000,0.000000,0.745722,0.000000,0.745722,$1*%
G04 Aperture macros list end*
%TA.AperFunction,ComponentPad*%
%ADD10O,2.500000X1.700000*%
%TD*%
%TA.AperFunction,ComponentPad*%
%ADD11R,1.700000X1.700000*%
%TD*%
%TA.AperFunction,ComponentPad*%
%ADD12O,1.700000X2.500000*%
%TD*%
%TA.AperFunction,ComponentPad*%
%ADD13O,2.500000X1.508000*%
%TD*%
%TA.AperFunction,SMDPad,CuDef*%
%ADD14FreePoly0,180.000000*%
%TD*%
%TA.AperFunction,SMDPad,CuDef*%
%ADD15FreePoly1,180.000000*%
%TD*%
%TA.AperFunction,SMDPad,CuDef*%
%ADD16FreePoly0,0.000000*%
%TD*%
%TA.AperFunction,SMDPad,CuDef*%
%ADD17FreePoly1,0.000000*%
%TD*%
%TA.AperFunction,Conductor*%
%ADD18C,0.800000*%
%TD*%
%TA.AperFunction,Conductor*%
%ADD19C,1.000000*%
%TD*%
G04 APERTURE END LIST*
D10*
%TO.P,U1,1,PB12*%
%TO.N,unconnected-(U1-PB12-Pad1)*%
X191000000Y-113130000D03*
%TO.P,U1,2,PB13*%
%TO.N,SLEEP_SG*%
X191000000Y-110590000D03*
%TO.P,U1,3,PB14*%
%TO.N,unconnected-(U1-PB14-Pad3)*%
X191000000Y-108050000D03*
%TO.P,U1,4,PB15*%
%TO.N,DI*%
X191000000Y-105510000D03*
%TO.P,U1,5,PA8*%
%TO.N,IN4*%
X191000000Y-102970000D03*
%TO.P,U1,6,PA9*%
%TO.N,IN3*%
X191000000Y-100430000D03*
%TO.P,U1,7,PA10*%
%TO.N,IN2*%
X191000000Y-97890000D03*
%TO.P,U1,8,PA11*%
%TO.N,IN1*%
X191000000Y-95350000D03*
%TO.P,U1,9,PA12*%
%TO.N,unconnected-(U1-PA12-Pad9)*%
X191000000Y-92810000D03*
%TO.P,U1,10,PA15*%
%TO.N,unconnected-(U1-PA15-Pad10)*%
X191000000Y-90270000D03*
%TO.P,U1,11,PB3*%
%TO.N,unconnected-(U1-PB3-Pad11)*%
X191000000Y-87730000D03*
%TO.P,U1,12,PB4*%
%TO.N,unconnected-(U1-PB4-Pad12)*%
X191000000Y-85190000D03*
%TO.P,U1,13,PB5*%
%TO.N,unconnected-(U1-PB5-Pad13)*%
X191000000Y-82650000D03*
%TO.P,U1,14,PB6*%
%TO.N,unconnected-(U1-PB6-Pad14)*%
X191000000Y-80110000D03*
%TO.P,U1,15,PB7*%
%TO.N,unconnected-(U1-PB7-Pad15)*%
X191000000Y-77570000D03*
%TO.P,U1,16,PB8*%
%TO.N,unconnected-(U1-PB8-Pad16)*%
X191000000Y-75030000D03*
%TO.P,U1,17,PB9*%
%TO.N,unconnected-(U1-PB9-Pad17)*%
X191000000Y-72490000D03*
%TO.P,U1,18,+5V*%
%TO.N,5.5V*%
X191000000Y-69950000D03*
%TO.P,U1,19,GND*%
%TO.N,GND*%
X191000000Y-67410000D03*
%TO.P,U1,20,3.3V*%
%TO.N,3.3V*%
X191000000Y-64870000D03*
%TO.P,U1,21,VB*%
%TO.N,unconnected-(U1-VB-Pad21)*%
X171000000Y-64870000D03*
%TO.P,U1,22,PC13*%
%TO.N,unconnected-(U1-PC13-Pad22)*%
X171000000Y-67410000D03*
%TO.P,U1,23,PC14*%
%TO.N,ULT_SG*%
X171000000Y-69950000D03*
%TO.P,U1,24,PC15*%
%TO.N,IR_SG*%
X171000000Y-72490000D03*
%TO.P,U1,25,~{RST}*%
%TO.N,unconnected-(U1-~{RST}-Pad25)*%
X171000000Y-75030000D03*
%TO.P,U1,26,PA0*%
%TO.N,unconnected-(U1-PA0-Pad26)*%
X171000000Y-77570000D03*
%TO.P,U1,27,PA1*%
%TO.N,D1*%
X171000000Y-80110000D03*
%TO.P,U1,28,PA2*%
%TO.N,D2*%
X171000000Y-82650000D03*
%TO.P,U1,29,PA3*%
%TO.N,D3*%
X171000000Y-85190000D03*
%TO.P,U1,30,PA4*%
%TO.N,D4*%
X171000000Y-87730000D03*
%TO.P,U1,31,PA5*%
%TO.N,D5*%
X171000000Y-90270000D03*
%TO.P,U1,32,PA6*%
%TO.N,D6*%
X171000000Y-92810000D03*
%TO.P,U1,33,PA7*%
%TO.N,D7*%
X171000000Y-95350000D03*
%TO.P,U1,34,PB0*%
%TO.N,D8*%
X171000000Y-97890000D03*
%TO.P,U1,35,PB1*%
%TO.N,unconnected-(U1-PB1-Pad35)*%
X171000000Y-100430000D03*
%TO.P,U1,36,PB2*%
%TO.N,unconnected-(U1-PB2-Pad36)*%
X171000000Y-102970000D03*
%TO.P,U1,37,PB10*%
%TO.N,unconnected-(U1-PB10-Pad37)*%
X171000000Y-105510000D03*
%TO.P,U1,38,3.3V*%
%TO.N,IR_3.3V*%
X171000000Y-108050000D03*
%TO.P,U1,39,GND*%
%TO.N,GND*%
X171000000Y-110590000D03*
%TO.P,U1,40,5V*%
%TO.N,unconnected-(U1-5V-Pad40)*%
X171000000Y-113130000D03*
%TD*%
D11*
%TO.P,J3,1,Pin_1*%
%TO.N,GND*%
X78250000Y-130400000D03*
D12*
%TO.P,J3,2,Pin_2*%
%TO.N,IR_3.3V*%
X80790000Y-130400000D03*
%TO.P,J3,3,Pin_3*%
%TO.N,DI*%
X83330000Y-130400000D03*
%TO.P,J3,4,Pin_4*%
%TO.N,GND*%
X85870000Y-130400000D03*
%TD*%
%TO.P,D1,1,K*%
%TO.N,Net-(D1-K)*%
X171920000Y-59500000D03*
%TO.P,D1,2,A*%
%TO.N,5.5V*%
X182080000Y-59500000D03*
%TD*%
D10*
%TO.P,U4,1,VIN*%
%TO.N,VIN*%
X217900000Y-75180000D03*
X217900000Y-72640000D03*
%TO.P,U4,2,GND*%
%TO.N,GND*%
X217900000Y-67560000D03*
X217900000Y-65020000D03*
%TO.P,U4,3,GND*%
X200100000Y-67560000D03*
X200100000Y-65020000D03*
%TO.P,U4,4,VOUT*%
%TO.N,5.5V*%
X200100000Y-75180000D03*
X200100000Y-72640000D03*
%TD*%
D13*
%TO.P,J1,1,1*%
%TO.N,3.7V*%
X217775000Y-87750000D03*
%TO.P,J1,2,2*%
%TO.N,GND*%
X217775000Y-90250000D03*
%TD*%
%TO.P,J2,1,1*%
%TO.N,OUT4*%
X217775000Y-95750000D03*
%TO.P,J2,2,2*%
%TO.N,OUT3*%
X217775000Y-98250000D03*
%TO.P,J2,3,3*%
%TO.N,OUT2*%
X217775000Y-100750000D03*
%TO.P,J2,4,4*%
%TO.N,OUT1*%
X217775000Y-103250000D03*
%TD*%
D12*
%TO.P,M2,1,+*%
%TO.N,OUT4*%
X211080000Y-55100000D03*
%TO.P,M2,2,-*%
%TO.N,OUT3*%
X200920000Y-55100000D03*
%TD*%
D10*
%TO.P,U2,1,EEP*%
%TO.N,SLEEP_SG*%
X212300000Y-105850000D03*
%TO.P,U2,2,OUT1*%
%TO.N,OUT1*%
X212300000Y-103310000D03*
%TO.P,U2,3,OUT2*%
%TO.N,OUT2*%
X212300000Y-100770000D03*
%TO.P,U2,4,OUT3*%
%TO.N,OUT3*%
X212300000Y-98230000D03*
%TO.P,U2,5,OUT4*%
%TO.N,OUT4*%
X212300000Y-95690000D03*
%TO.P,U2,6,ULT*%
%TO.N,ULT_SG*%
X212300000Y-93150000D03*
%TO.P,U2,7,IN1*%
%TO.N,IN1*%
X197000000Y-93150000D03*
%TO.P,U2,8,IN2*%
%TO.N,IN2*%
X197000000Y-95690000D03*
%TO.P,U2,9,VCC*%
%TO.N,5.5V*%
X197000000Y-98230000D03*
%TO.P,U2,10,GND*%
%TO.N,GND*%
X197000000Y-100770000D03*
%TO.P,U2,11,IN3*%
%TO.N,IN3*%
X197000000Y-103310000D03*
%TO.P,U2,12,IN4*%
%TO.N,IN4*%
X197000000Y-105850000D03*
%TD*%
D12*
%TO.P,M1,1,+*%
%TO.N,OUT2*%
X200920000Y-122800000D03*
%TO.P,M1,2,-*%
%TO.N,OUT1*%
X211080000Y-122800000D03*
%TD*%
%TO.P,J4,1,Pin_1*%
%TO.N,3.7V*%
X216525000Y-81400000D03*
%TO.P,J4,2,Pin_2*%
%TO.N,VIN*%
X219065000Y-81400000D03*
%TD*%
%TO.P,U3,1,GND*%
%TO.N,GND*%
X189460000Y-58600000D03*
%TO.P,U3,2,VO*%
%TO.N,3.3V*%
X192000000Y-58600000D03*
%TO.P,U3,3,VI*%
%TO.N,5.5V*%
X194540000Y-58600000D03*
%TD*%
D10*
%TO.P,U7,1,VCC*%
%TO.N,GND*%
X94000000Y-76300000D03*
%TO.P,U7,2,D8*%
%TO.N,IR_SG*%
X94000000Y-78840000D03*
%TO.P,U7,3,D7*%
%TO.N,D1*%
X94000000Y-81380000D03*
%TO.P,U7,4,D6*%
%TO.N,D2*%
X94000000Y-83920000D03*
%TO.P,U7,5,D5*%
%TO.N,D3*%
X94000000Y-86460000D03*
%TO.P,U7,6,D4*%
%TO.N,D4*%
X94000000Y-89000000D03*
%TO.P,U7,7,D3*%
%TO.N,D5*%
X94000000Y-91540000D03*
%TO.P,U7,8,D2*%
%TO.N,D6*%
X94000000Y-94080000D03*
%TO.P,U7,9,D1*%
%TO.N,/SEL2*%
X94000000Y-96620000D03*
%TO.P,U7,10,IR*%
%TO.N,/SEL1*%
X94000000Y-99160000D03*
%TO.P,U7,11,GND*%
%TO.N,IR_3.3V*%
X94000000Y-101700000D03*
%TD*%
D14*
%TO.P,JP3,1,A*%
%TO.N,D7*%
X109650000Y-96620000D03*
D15*
%TO.P,JP3,2,B*%
%TO.N,/SEL2*%
X108350000Y-96620000D03*
%TD*%
D14*
%TO.P,JP4,1,A*%
%TO.N,/SEL2*%
X78950000Y-96620000D03*
D15*
%TO.P,JP4,2,B*%
%TO.N,GND*%
X77650000Y-96620000D03*
%TD*%
D10*
%TO.P,U6,1,GND*%
%TO.N,GND*%
X105000000Y-76300000D03*
%TO.P,U6,2,IR*%
%TO.N,IR_SG*%
X105000000Y-78840000D03*
%TO.P,U6,3,D1*%
%TO.N,D1*%
X105000000Y-81380000D03*
%TO.P,U6,4,D2*%
%TO.N,D2*%
X105000000Y-83920000D03*
%TO.P,U6,5,D3*%
%TO.N,D3*%
X105000000Y-86460000D03*
%TO.P,U6,6,D4*%
%TO.N,D4*%
X105000000Y-89000000D03*
%TO.P,U6,7,D5*%
%TO.N,D5*%
X105000000Y-91540000D03*
%TO.P,U6,8,D6*%
%TO.N,D6*%
X105000000Y-94080000D03*
%TO.P,U6,9,D7*%
%TO.N,/SEL2*%
X105000000Y-96620000D03*
%TO.P,U6,10,D8*%
%TO.N,/SEL1*%
X105000000Y-99160000D03*
%TO.P,U6,11,VCC*%
%TO.N,IR_3.3V*%
X105000000Y-101700000D03*
%TD*%
%TO.P,U5,1,GND*%
%TO.N,GND*%
X83000000Y-76300000D03*
%TO.P,U5,2,IR*%
%TO.N,IR_SG*%
X83000000Y-78840000D03*
%TO.P,U5,3,D1*%
%TO.N,D1*%
X83000000Y-81380000D03*
%TO.P,U5,4,D2*%
%TO.N,D2*%
X83000000Y-83920000D03*
%TO.P,U5,5,D3*%
%TO.N,D3*%
X83000000Y-86460000D03*
%TO.P,U5,6,D4*%
%TO.N,D4*%
X83000000Y-89000000D03*
%TO.P,U5,7,D5*%
%TO.N,D5*%
X83000000Y-91540000D03*
%TO.P,U5,8,D6*%
%TO.N,D6*%
X83000000Y-94080000D03*
%TO.P,U5,9,D7*%
%TO.N,/SEL2*%
X83000000Y-96620000D03*
%TO.P,U5,10,D8*%
%TO.N,/SEL1*%
X83000000Y-99160000D03*
%TO.P,U5,11,VCC*%
%TO.N,IR_3.3V*%
X83000000Y-101700000D03*
%TD*%
D16*
%TO.P,JP1,1,A*%
%TO.N,/SEL1*%
X108350000Y-99160000D03*
D17*
%TO.P,JP1,2,B*%
%TO.N,D8*%
X109650000Y-99160000D03*
%TD*%
D16*
%TO.P,JP2,1,A*%
%TO.N,Net-(D1-K)*%
X77650000Y-99160000D03*
D17*
%TO.P,JP2,2,B*%
%TO.N,/SEL1*%
X78950000Y-99160000D03*
%TD*%
D18*
%TO.N,DI*%
X186500000Y-106800000D02*
X187790000Y-105510000D01*
X85000000Y-126750000D02*
X85000000Y-118000001D01*
X187790000Y-105510000D02*
X191000000Y-105510000D01*
X184800000Y-120000000D02*
X186500000Y-118300000D01*
X85000000Y-118000001D02*
X98000001Y-105000000D01*
X83330000Y-128420000D02*
X85000000Y-126750000D01*
X157031499Y-105000000D02*
X172031499Y-120000000D01*
X83330000Y-130400000D02*
X83330000Y-128420000D01*
X172031499Y-120000000D02*
X184800000Y-120000000D01*
X98000001Y-105000000D02*
X157031499Y-105000000D01*
X186500000Y-118300000D02*
X186500000Y-106800000D01*
D19*
%TO.N,GND*%
X197000000Y-100770000D02*
X199980000Y-100770000D01*
%TO.N,3.3V*%
X192000000Y-64370000D02*
X191500000Y-64870000D01*
X192000000Y-58600000D02*
X192000000Y-64370000D01*
X191500000Y-64870000D02*
X191000000Y-64870000D01*
%TO.N,D1*%
X83000000Y-81380000D02*
X105000000Y-81380000D01*
X159620000Y-81380000D02*
X105000000Y-81380000D01*
X171000000Y-80110000D02*
X160890000Y-80110000D01*
X160890000Y-80110000D02*
X159620000Y-81380000D01*
%TO.N,IR_SG*%
X160850000Y-76850000D02*
X166150000Y-76850000D01*
X166150000Y-76850000D02*
X170510000Y-72490000D01*
X158860000Y-78840000D02*
X160850000Y-76850000D01*
X83000000Y-78840000D02*
X158860000Y-78840000D01*
X170510000Y-72490000D02*
X171000000Y-72490000D01*
D18*
%TO.N,ULT_SG*%
X212300000Y-93150000D02*
X212300000Y-65000000D01*
X212300000Y-65000000D02*
X215000000Y-62300000D01*
X204500000Y-42000000D02*
X190500000Y-42000000D01*
X176550000Y-69950000D02*
X171000000Y-69950000D01*
X215000000Y-52500000D02*
X204500000Y-42000000D01*
X215000000Y-62300000D02*
X215000000Y-52500000D01*
X178100000Y-68400000D02*
X176550000Y-69950000D01*
X190500000Y-42000000D02*
X178100000Y-54400000D01*
X178100000Y-54400000D02*
X178100000Y-68400000D01*
D19*
%TO.N,D8*%
X167800000Y-99160000D02*
X169070000Y-97890000D01*
X169070000Y-97890000D02*
X171000000Y-97890000D01*
X110000000Y-99160000D02*
X167800000Y-99160000D01*
%TO.N,D6*%
X105000000Y-94080000D02*
X165920000Y-94080000D01*
X167190000Y-92810000D02*
X171000000Y-92810000D01*
X165920000Y-94080000D02*
X167190000Y-92810000D01*
X83000000Y-94080000D02*
X105000000Y-94080000D01*
D18*
%TO.N,SLEEP_SG*%
X215000000Y-117000000D02*
X212300000Y-114300000D01*
X213000000Y-128000000D02*
X215000000Y-126000000D01*
X191000000Y-110590000D02*
X194590000Y-110590000D01*
X201000000Y-128000000D02*
X213000000Y-128000000D01*
X212300000Y-114300000D02*
X212300000Y-105850000D01*
X215000000Y-126000000D02*
X215000000Y-117000000D01*
X196000000Y-112000000D02*
X196000000Y-123000000D01*
X194590000Y-110590000D02*
X196000000Y-112000000D01*
X196000000Y-123000000D02*
X201000000Y-128000000D01*
%TO.N,IN1*%
X194440000Y-93460000D02*
X196690000Y-93460000D01*
X192550000Y-95350000D02*
X194440000Y-93460000D01*
X191000000Y-95350000D02*
X192550000Y-95350000D01*
X196690000Y-93460000D02*
X197000000Y-93150000D01*
%TO.N,IN4*%
X191000000Y-102970000D02*
X192370000Y-102970000D01*
X195200000Y-105800000D02*
X196950000Y-105800000D01*
X192370000Y-102970000D02*
X195200000Y-105800000D01*
X196950000Y-105800000D02*
X197000000Y-105850000D01*
D19*
%TO.N,D5*%
X83000000Y-91540000D02*
X105000000Y-91540000D01*
X166230000Y-90270000D02*
X164960000Y-91540000D01*
X164960000Y-91540000D02*
X105000000Y-91540000D01*
X171000000Y-90270000D02*
X166230000Y-90270000D01*
D18*
%TO.N,IN3*%
X192830000Y-100430000D02*
X195710000Y-103310000D01*
X195710000Y-103310000D02*
X197000000Y-103310000D01*
X191000000Y-100430000D02*
X192830000Y-100430000D01*
D19*
%TO.N,D7*%
X167380000Y-96620000D02*
X110000000Y-96620000D01*
X168650000Y-95350000D02*
X167380000Y-96620000D01*
X171000000Y-95350000D02*
X168650000Y-95350000D01*
D18*
%TO.N,IN2*%
X197000000Y-95690000D02*
X196690000Y-96000000D01*
X193010000Y-97890000D02*
X191000000Y-97890000D01*
X196690000Y-96000000D02*
X194900000Y-96000000D01*
X194900000Y-96000000D02*
X193010000Y-97890000D01*
D19*
%TO.N,D2*%
X162350000Y-82650000D02*
X171000000Y-82650000D01*
X105000000Y-83920000D02*
X161080000Y-83920000D01*
X161080000Y-83920000D02*
X162350000Y-82650000D01*
X83000000Y-83920000D02*
X105000000Y-83920000D01*
%TO.N,D4*%
X164000000Y-89000000D02*
X165270000Y-87730000D01*
X83000000Y-89000000D02*
X105000000Y-89000000D01*
X165270000Y-87730000D02*
X171000000Y-87730000D01*
X105000000Y-89000000D02*
X164000000Y-89000000D01*
%TO.N,D3*%
X171000000Y-85190000D02*
X163810000Y-85190000D01*
X162540000Y-86460000D02*
X105000000Y-86460000D01*
X105000000Y-86460000D02*
X83000000Y-86460000D01*
X163810000Y-85190000D02*
X162540000Y-86460000D01*
%TO.N,OUT3*%
X200920000Y-55100000D02*
X200920000Y-57920000D01*
X207550000Y-98250000D02*
X217775000Y-98250000D01*
X204000000Y-61000000D02*
X204000000Y-94700000D01*
X212300000Y-98230000D02*
X212610000Y-98540000D01*
X200920000Y-57920000D02*
X204000000Y-61000000D01*
X204000000Y-94700000D02*
X207550000Y-98250000D01*
%TO.N,5.5V*%
X200100000Y-90000000D02*
X198550000Y-90000000D01*
X199460000Y-98540000D02*
X200100000Y-97900000D01*
X186000000Y-55000000D02*
X184000000Y-57000000D01*
X200100000Y-97900000D02*
X200100000Y-72640000D01*
X184000000Y-57000000D02*
X184000000Y-59500000D01*
X194540000Y-56540000D02*
X193000000Y-55000000D01*
X193000000Y-55000000D02*
X186000000Y-55000000D01*
X186500000Y-69950000D02*
X184000000Y-67450000D01*
X182080000Y-59500000D02*
X184000000Y-59500000D01*
X198550000Y-90000000D02*
X196000000Y-87450000D01*
X196000000Y-69950000D02*
X186500000Y-69950000D01*
X196000000Y-87450000D02*
X196000000Y-69950000D01*
X194540000Y-58600000D02*
X194540000Y-56540000D01*
X184000000Y-67450000D02*
X184000000Y-59500000D01*
X197000000Y-98230000D02*
X197310000Y-98540000D01*
X197310000Y-98540000D02*
X199460000Y-98540000D01*
%TO.N,OUT2*%
X212300000Y-100770000D02*
X212320000Y-100750000D01*
X203720000Y-104980000D02*
X207930000Y-100770000D01*
X200920000Y-122800000D02*
X200920000Y-118080000D01*
X203720000Y-115280000D02*
X203720000Y-104980000D01*
X212320000Y-100750000D02*
X217775000Y-100750000D01*
X207930000Y-100770000D02*
X212300000Y-100770000D01*
X200920000Y-118080000D02*
X203720000Y-115280000D01*
%TO.N,OUT1*%
X208000000Y-115000000D02*
X208000000Y-105980000D01*
X212360000Y-103250000D02*
X217775000Y-103250000D01*
X212300000Y-103310000D02*
X212360000Y-103250000D01*
X208000000Y-105980000D02*
X210670000Y-103310000D01*
X210670000Y-103310000D02*
X212300000Y-103310000D01*
X211080000Y-118080000D02*
X208000000Y-115000000D01*
X211080000Y-122800000D02*
X211080000Y-118080000D01*
%TO.N,OUT4*%
X217715000Y-95690000D02*
X217775000Y-95750000D01*
X212300000Y-95690000D02*
X209690000Y-95690000D01*
X211080000Y-58920001D02*
X211080000Y-55100000D01*
X209000000Y-95000000D02*
X209000000Y-61000001D01*
X209000000Y-61000001D02*
X211080000Y-58920001D01*
X212300000Y-95690000D02*
X217715000Y-95690000D01*
X209690000Y-95690000D02*
X209000000Y-95000000D01*
%TO.N,3.7V*%
X217500000Y-86725000D02*
X217500000Y-84600000D01*
X217425000Y-86800000D02*
X217500000Y-86725000D01*
X216525000Y-83595000D02*
X216525000Y-81400000D01*
X216510000Y-83610000D02*
X216525000Y-83595000D01*
X217500000Y-84600000D02*
X216510000Y-83610000D01*
D18*
%TO.N,IR_3.3V*%
X83000000Y-106000000D02*
X83000000Y-101700000D01*
X80790000Y-108210000D02*
X83000000Y-106000000D01*
D19*
X83000000Y-101700000D02*
X105000000Y-101700000D01*
X171000000Y-108050000D02*
X169050000Y-108050000D01*
D18*
X80790000Y-130400000D02*
X80790000Y-108210000D01*
D19*
X162700000Y-101700000D02*
X105000000Y-101700000D01*
X169050000Y-108050000D02*
X162700000Y-101700000D01*
%TO.N,/SEL1*%
X105000000Y-99160000D02*
X83000000Y-99160000D01*
X105000000Y-99160000D02*
X108350000Y-99160000D01*
X83000000Y-99160000D02*
X78950000Y-99160000D01*
%TO.N,VIN*%
X217900000Y-75180000D02*
X217900000Y-72640000D01*
X218000000Y-77000000D02*
X218000000Y-75280000D01*
X218000000Y-75280000D02*
X217900000Y-75180000D01*
X219065000Y-81400000D02*
X219065000Y-78065000D01*
X219065000Y-78065000D02*
X218000000Y-77000000D01*
%TO.N,/SEL2*%
X95040000Y-96620000D02*
X105000000Y-96620000D01*
X105000000Y-96620000D02*
X108350000Y-96620000D01*
X83000000Y-96620000D02*
X78950000Y-96620000D01*
X105000000Y-96620000D02*
X83000000Y-96620000D01*
X95020000Y-96600000D02*
X95040000Y-96620000D01*
D18*
%TO.N,Net-(D1-K)*%
X170605488Y-59500000D02*
X157105488Y-73000000D01*
X171920000Y-59500000D02*
X170605488Y-59500000D01*
X75000000Y-98000000D02*
X76160000Y-99160000D01*
X81409282Y-70690718D02*
X75000000Y-77100000D01*
X75000000Y-77100000D02*
X75000000Y-98000000D01*
X94690718Y-70690718D02*
X81409282Y-70690718D01*
X76160000Y-99160000D02*
X77650000Y-99160000D01*
X97000000Y-73000000D02*
X94690718Y-70690718D01*
X157105488Y-73000000D02*
X97000000Y-73000000D01*
%TD*%
%TA.AperFunction,Conductor*%
%TO.N,GND*%
G36*
X204101257Y-43020185D02*
G01*
X204121899Y-43036819D01*
X213963181Y-52878101D01*
X213996666Y-52939424D01*
X213999500Y-52965782D01*
X213999500Y-61834217D01*
X213979815Y-61901256D01*
X213963181Y-61921898D01*
X211662220Y-64222859D01*
X211662218Y-64222861D01*
X211622110Y-64262969D01*
X211522859Y-64362219D01*
X211413371Y-64526079D01*
X211413364Y-64526092D01*
X211337950Y-64708160D01*
X211337947Y-64708170D01*
X211299500Y-64901456D01*
X211299500Y-91752047D01*
X211279815Y-91819086D01*
X211231796Y-91862531D01*
X211139774Y-91909419D01*
X210955061Y-92043622D01*
X210793622Y-92205061D01*
X210659421Y-92389771D01*
X210555770Y-92593196D01*
X210485215Y-92810339D01*
X210449500Y-93035837D01*
X210449500Y-93264162D01*
X210485215Y-93489660D01*
X210555770Y-93706803D01*
X210659421Y-93910228D01*
X210793621Y-94094937D01*
X210955063Y-94256379D01*
X210955069Y-94256383D01*
X211042191Y-94319683D01*
X211059367Y-94341957D01*
X211078974Y-94362132D01*
X211080417Y-94369255D01*
X211084857Y-94375013D01*
X211087264Y-94403043D01*
X211092850Y-94430610D01*
X211090212Y-94437383D01*
X211090835Y-94444627D01*
X211077707Y-94469505D01*
X211067502Y-94495719D01*
X211060057Y-94502953D01*
X211058228Y-94506421D01*
X211042191Y-94520317D01*
X210979567Y-94565817D01*
X210913761Y-94589298D01*
X210906681Y-94589500D01*
X210224500Y-94589500D01*
X210157461Y-94569815D01*
X210111706Y-94517011D01*
X210100500Y-94465500D01*
X210100500Y-61507205D01*
X210120185Y-61440166D01*
X210136819Y-61419524D01*
X211014824Y-60541519D01*
X211919414Y-59636929D01*
X212021232Y-59496789D01*
X212099873Y-59342447D01*
X212153402Y-59177702D01*
X212180500Y-59006612D01*
X212180500Y-58833390D01*
X212180500Y-56493318D01*
X212200185Y-56426279D01*
X212204165Y-56420456D01*
X212320579Y-56260228D01*
X212424231Y-56056799D01*
X212494784Y-55839660D01*
X212497412Y-55823069D01*
X212530500Y-55614162D01*
X212530500Y-54585837D01*
X212494784Y-54360339D01*
X212429880Y-54160588D01*
X212424231Y-54143201D01*
X212424229Y-54143198D01*
X212424229Y-54143196D01*
X212320578Y-53939771D01*
X212311007Y-53926598D01*
X212186379Y-53755063D01*
X212024937Y-53593621D01*
X211840228Y-53459421D01*
X211636803Y-53355770D01*
X211419660Y-53285215D01*
X211194162Y-53249500D01*
X211194157Y-53249500D01*
X210965843Y-53249500D01*
X210965838Y-53249500D01*
X210740339Y-53285215D01*
X210523196Y-53355770D01*
X210319771Y-53459421D01*
X210135061Y-53593622D01*
X209973622Y-53755061D01*
X209839421Y-53939771D01*
X209735770Y-54143196D01*
X209665215Y-54360339D01*
X209629500Y-54585837D01*
X209629500Y-55614162D01*
X209665215Y-55839660D01*
X209735770Y-56056803D01*
X209839421Y-56260228D01*
X209955819Y-56420434D01*
X209979298Y-56486238D01*
X209979500Y-56493318D01*
X209979500Y-58412797D01*
X209959815Y-58479836D01*
X209943181Y-58500478D01*
X208160588Y-60283070D01*
X208160588Y-60283071D01*
X208160586Y-60283073D01*
X208116859Y-60343257D01*
X208058768Y-60423212D01*
X207980128Y-60577553D01*
X207926597Y-60742303D01*
X207911909Y-60835041D01*
X207899500Y-60913390D01*
X207899500Y-94913389D01*
X207899500Y-95086611D01*
X207903738Y-95113368D01*
X207926389Y-95256386D01*
X207926598Y-95257701D01*
X207980127Y-95422445D01*
X208058768Y-95576788D01*
X208160586Y-95716928D01*
X208973072Y-96529414D01*
X209113212Y-96631232D01*
X209145833Y-96647853D01*
X209267549Y-96709871D01*
X209267551Y-96709871D01*
X209267554Y-96709873D01*
X209432299Y-96763402D01*
X209603389Y-96790500D01*
X209776610Y-96790500D01*
X210906681Y-96790500D01*
X210927102Y-96796496D01*
X210948352Y-96797712D01*
X210969819Y-96809039D01*
X210973720Y-96810185D01*
X210979567Y-96814183D01*
X211042191Y-96859683D01*
X211084857Y-96915013D01*
X211090835Y-96984626D01*
X211058228Y-97046421D01*
X211042191Y-97060317D01*
X210952040Y-97125817D01*
X210886234Y-97149298D01*
X210879154Y-97149500D01*
X208057204Y-97149500D01*
X207990165Y-97129815D01*
X207969523Y-97113181D01*
X205136819Y-94280477D01*
X205103334Y-94219154D01*
X205100500Y-94192796D01*
X205100500Y-60913389D01*
X205088091Y-60835041D01*
X205073402Y-60742299D01*
X205019873Y-60577555D01*
X204941232Y-60423212D01*
X204839414Y-60283072D01*
X204716928Y-60160586D01*
X202056819Y-57500477D01*
X202023334Y-57439154D01*
X202020500Y-57412796D01*
X202020500Y-56493318D01*
X202040185Y-56426279D01*
X202044165Y-56420456D01*
X202160579Y-56260228D01*
X202264231Y-56056799D01*
X202334784Y-55839660D01*
X202337412Y-55823069D01*
X202370500Y-55614162D01*
X202370500Y-54585837D01*
X202334784Y-54360339D01*
X202269880Y-54160588D01*
X202264231Y-54143201D01*
X202264229Y-54143198D01*
X202264229Y-54143196D01*
X202160578Y-53939771D01*
X202151007Y-53926598D01*
X202026379Y-53755063D01*
X201864937Y-53593621D01*
X201680228Y-53459421D01*
X201476803Y-53355770D01*
X201259660Y-53285215D01*
X201034162Y-53249500D01*
X201034157Y-53249500D01*
X200805843Y-53249500D01*
X200805838Y-53249500D01*
X200580339Y-53285215D01*
X200363196Y-53355770D01*
X200159771Y-53459421D01*
X199975061Y-53593622D01*
X199813622Y-53755061D01*
X199679421Y-53939771D01*
X199575770Y-54143196D01*
X199505215Y-54360339D01*
X199469500Y-54585837D01*
X199469500Y-55614162D01*
X199505215Y-55839660D01*
X199575770Y-56056803D01*
X199679421Y-56260228D01*
X199795819Y-56420434D01*
X199819298Y-56486238D01*
X199819500Y-56493318D01*
X199819500Y-57833389D01*
X199819500Y-58006611D01*
X199846598Y-58177701D01*
X199900127Y-58342445D01*
X199978768Y-58496788D01*
X200080586Y-58636928D01*
X200080588Y-58636930D01*
X202863181Y-61419523D01*
X202896666Y-61480846D01*
X202899500Y-61507204D01*
X202899500Y-94786610D01*
X202922801Y-94933731D01*
X202926598Y-94957701D01*
X202980127Y-95122445D01*
X203058768Y-95276788D01*
X203160586Y-95416928D01*
X206833072Y-99089414D01*
X206973212Y-99191232D01*
X207127555Y-99269873D01*
X207292299Y-99323402D01*
X207463389Y-99350500D01*
X207636611Y-99350500D01*
X210934208Y-99350500D01*
X210954629Y-99356496D01*
X210975879Y-99357712D01*
X210997346Y-99369039D01*
X211001247Y-99370185D01*
X211007094Y-99374183D01*
X211042191Y-99399683D01*
X211084857Y-99455013D01*
X211090835Y-99524626D01*
X211058228Y-99586421D01*
X211042191Y-99600317D01*
X210979567Y-99645817D01*
X210913761Y-99669298D01*
X210906681Y-99669500D01*
X208016611Y-99669500D01*
X207843389Y-99669500D01*
X207803728Y-99675781D01*
X207672302Y-99696597D01*
X207507552Y-99750128D01*
X207353211Y-99828768D01*
X207299763Y-99867601D01*
X207213072Y-99930586D01*
X207213070Y-99930588D01*
X207213069Y-99930588D01*
X202880588Y-104263069D01*
X202880588Y-104263070D01*
X202880586Y-104263072D01*
X202857363Y-104295036D01*
X202778768Y-104403211D01*
X202700128Y-104557552D01*
X202700127Y-104557554D01*
X202700127Y-104557555D01*
X202697516Y-104565590D01*
X202646597Y-104722302D01*
X202619500Y-104893389D01*
X202619500Y-114772796D01*
X202599815Y-114839835D01*
X202583181Y-114860477D01*
X200080588Y-117363069D01*
X200080588Y-117363070D01*
X200080586Y-117363072D01*
X200069667Y-117378101D01*
X199978768Y-117503211D01*
X199900128Y-117657552D01*
X199846597Y-117822302D01*
X199819500Y-117993389D01*
X199819500Y-121406681D01*
X199799815Y-121473720D01*
X199795818Y-121479567D01*
X199679421Y-121639771D01*
X199575770Y-121843196D01*
X199505215Y-122060339D01*
X199469500Y-122285837D01*
X199469500Y-123314162D01*
X199505215Y-123539660D01*
X199575770Y-123756803D01*
X199679421Y-123960228D01*
X199813621Y-124144937D01*
X199975063Y-124306379D01*
X200159772Y-124440579D01*
X200255884Y-124489550D01*
X200363196Y-124544229D01*
X200363198Y-124544229D01*
X200363201Y-124544231D01*
X200479592Y-124582049D01*
X200580339Y-124614784D01*
X200805838Y-124650500D01*
X200805843Y-124650500D01*
X201034162Y-124650500D01*
X201259660Y-124614784D01*
X201476799Y-124544231D01*
X201680228Y-124440579D01*
X201864937Y-124306379D01*
X202026379Y-124144937D01*
X202160579Y-123960228D01*
X202264231Y-123756799D01*
X202334784Y-123539660D01*
X202345198Y-123473907D01*
X202370500Y-123314162D01*
X202370500Y-122285837D01*
X202334784Y-122060339D01*
X202264229Y-121843196D01*
X202160578Y-121639771D01*
X202044182Y-121479567D01*
X202020702Y-121413761D01*
X202020500Y-121406681D01*
X202020500Y-118587204D01*
X202040185Y-118520165D01*
X202056819Y-118499523D01*
X203194123Y-117362219D01*
X204559414Y-115996928D01*
X204661232Y-115856788D01*
X204739873Y-115702445D01*
X204793402Y-115537701D01*
X204820500Y-115366611D01*
X204820500Y-115193389D01*
X204820500Y-105487204D01*
X204840185Y-105420165D01*
X204856819Y-105399523D01*
X208349523Y-101906819D01*
X208410846Y-101873334D01*
X208437204Y-101870500D01*
X210906681Y-101870500D01*
X210927102Y-101876496D01*
X210948352Y-101877712D01*
X210969819Y-101889039D01*
X210973720Y-101890185D01*
X210979567Y-101894183D01*
X211042191Y-101939683D01*
X211084857Y-101995013D01*
X211090835Y-102064626D01*
X211058228Y-102126421D01*
X211042191Y-102140317D01*
X210979567Y-102185817D01*
X210913761Y-102209298D01*
X210906681Y-102209500D01*
X210756611Y-102209500D01*
X210583389Y-102209500D01*
X210497844Y-102223049D01*
X210412298Y-102236598D01*
X210247549Y-102290128D01*
X210093211Y-102368768D01*
X210032062Y-102413196D01*
X209953072Y-102470586D01*
X209953070Y-102470588D01*
X209953069Y-102470588D01*
X207160588Y-105263069D01*
X207160588Y-105263070D01*
X207160586Y-105263072D01*
X207152534Y-105274155D01*
X207058768Y-105403211D01*
X206980128Y-105557552D01*
X206926597Y-105722302D01*
X206906426Y-105849660D01*
X206899500Y-105893389D01*
X206899500Y-114913389D01*
X206899500Y-115086611D01*
X206926598Y-115257701D01*
X206980127Y-115422445D01*
X207058768Y-115576788D01*
X207160586Y-115716928D01*
X207160588Y-115716930D01*
X209943181Y-118499523D01*
X209976666Y-118560846D01*
X209979500Y-118587204D01*
X209979500Y-121406681D01*
X209959815Y-121473720D01*
X209955818Y-121479567D01*
X209839421Y-121639771D01*
X209735770Y-121843196D01*
X209665215Y-122060339D01*
X209629500Y-122285837D01*
X209629500Y-123314162D01*
X209665215Y-123539660D01*
X209735770Y-123756803D01*
X209839421Y-123960228D01*
X209973621Y-124144937D01*
X210135063Y-124306379D01*
X210319772Y-124440579D01*
X210415884Y-124489550D01*
X210523196Y-124544229D01*
X210523198Y-124544229D01*
X210523201Y-124544231D01*
X210639592Y-124582049D01*
X210740339Y-124614784D01*
X210965838Y-124650500D01*
X210965843Y-124650500D01*
X211194162Y-124650500D01*
X211419660Y-124614784D01*
X211636799Y-124544231D01*
X211840228Y-124440579D01*
X212024937Y-124306379D01*
X212186379Y-124144937D01*
X212320579Y-123960228D01*
X212424231Y-123756799D01*
X212494784Y-123539660D01*
X212505198Y-123473907D01*
X212530500Y-123314162D01*
X212530500Y-122285837D01*
X212494784Y-122060339D01*
X212424229Y-121843196D01*
X212320578Y-121639771D01*
X212204182Y-121479567D01*
X212180702Y-121413761D01*
X212180500Y-121406681D01*
X212180500Y-117993389D01*
X212165939Y-117901457D01*
X212153402Y-117822299D01*
X212099873Y-117657555D01*
X212021232Y-117503212D01*
X211919414Y-117363072D01*
X211796928Y-117240586D01*
X209136819Y-114580477D01*
X209103334Y-114519154D01*
X209100500Y-114492796D01*
X209100500Y-106487203D01*
X209120185Y-106420164D01*
X209136814Y-106399527D01*
X210341023Y-105195318D01*
X210402343Y-105161835D01*
X210472035Y-105166819D01*
X210527968Y-105208691D01*
X210552385Y-105274155D01*
X210546632Y-105321319D01*
X210485216Y-105510335D01*
X210485216Y-105510338D01*
X210449500Y-105735837D01*
X210449500Y-105964162D01*
X210485215Y-106189660D01*
X210555770Y-106406803D01*
X210642561Y-106577139D01*
X210659421Y-106610228D01*
X210793621Y-106794937D01*
X210955063Y-106956379D01*
X211078202Y-107045845D01*
X211139773Y-107090580D01*
X211198827Y-107120669D01*
X211231794Y-107137466D01*
X211282590Y-107185440D01*
X211299500Y-107247951D01*
X211299500Y-114398542D01*
X211307863Y-114440585D01*
X211307863Y-114440586D01*
X211332226Y-114563070D01*
X211332227Y-114563070D01*
X211332227Y-114563072D01*
X211337949Y-114591835D01*
X211337950Y-114591839D01*
X211413364Y-114773907D01*
X211413371Y-114773920D01*
X211522859Y-114937780D01*
X211522860Y-114937781D01*
X211522861Y-114937782D01*
X211662218Y-115077139D01*
X211662219Y-115077139D01*
X211669286Y-115084206D01*
X211669285Y-115084206D01*
X211669289Y-115084209D01*
X213963181Y-117378101D01*
X213996666Y-117439424D01*
X213999500Y-117465782D01*
X213999500Y-125534218D01*
X213979815Y-125601257D01*
X213963181Y-125621899D01*
X212621899Y-126963181D01*
X212560576Y-126996666D01*
X212534218Y-126999500D01*
X201465782Y-126999500D01*
X201398743Y-126979815D01*
X201378101Y-126963181D01*
X197036819Y-122621899D01*
X197003334Y-122560576D01*
X197000500Y-122534218D01*
X197000500Y-111901456D01*
X196962052Y-111708170D01*
X196962051Y-111708169D01*
X196962051Y-111708165D01*
X196914131Y-111592475D01*
X196886635Y-111526092D01*
X196886628Y-111526079D01*
X196777139Y-111362218D01*
X196777136Y-111362214D01*
X196634686Y-111219764D01*
X196634655Y-111219735D01*
X195371479Y-109956559D01*
X195371459Y-109956537D01*
X195227785Y-109812863D01*
X195227781Y-109812860D01*
X195063917Y-109703369D01*
X194930598Y-109648147D01*
X194930596Y-109648146D01*
X194923152Y-109645063D01*
X194881836Y-109627949D01*
X194785188Y-109608724D01*
X194781130Y-109607916D01*
X194781127Y-109607916D01*
X194688544Y-109589500D01*
X194688541Y-109589500D01*
X192502178Y-109589500D01*
X192477419Y-109582229D01*
X192451841Y-109578823D01*
X192441399Y-109571653D01*
X192435139Y-109569815D01*
X192421953Y-109560052D01*
X192418092Y-109556776D01*
X192344937Y-109483621D01*
X192254023Y-109417568D01*
X192250469Y-109414552D01*
X192233737Y-109389101D01*
X192215143Y-109364988D01*
X192214731Y-109360192D01*
X192212086Y-109356169D01*
X192211769Y-109325709D01*
X192209164Y-109295374D01*
X192211410Y-109291117D01*
X192211360Y-109286303D01*
X192227558Y-109260513D01*
X192241770Y-109233579D01*
X192247705Y-109228435D01*
X192248522Y-109227136D01*
X192250013Y-109226436D01*
X192257807Y-109219683D01*
X192344937Y-109156379D01*
X192506379Y-108994937D01*
X192640579Y-108810228D01*
X192744231Y-108606799D01*
X192814784Y-108389660D01*
X192850500Y-108164162D01*
X192850500Y-107935837D01*
X192814784Y-107710339D01*
X192772415Y-107579941D01*
X192744231Y-107493201D01*
X192744229Y-107493198D01*
X192744229Y-107493196D01*
X192640578Y-107289771D01*
X192574442Y-107198743D01*
X192506379Y-107105063D01*
X192344937Y-106943621D01*
X192257807Y-106880317D01*
X192215143Y-106824988D01*
X192209164Y-106755374D01*
X192241770Y-106693579D01*
X192257807Y-106679683D01*
X192344937Y-106616379D01*
X192506379Y-106454937D01*
X192640579Y-106270228D01*
X192744231Y-106066799D01*
X192814784Y-105849660D01*
X192832812Y-105735837D01*
X192850500Y-105624162D01*
X192850500Y-105395837D01*
X192814784Y-105170339D01*
X192810441Y-105156973D01*
X192808446Y-105087132D01*
X192844526Y-105027299D01*
X192907227Y-104996470D01*
X192976641Y-105004434D01*
X193016051Y-105030972D01*
X194422860Y-106437781D01*
X194422861Y-106437782D01*
X194493240Y-106508161D01*
X194562219Y-106577140D01*
X194726080Y-106686628D01*
X194726086Y-106686632D01*
X194832745Y-106730811D01*
X194908164Y-106762051D01*
X195051739Y-106790610D01*
X195101454Y-106800499D01*
X195101457Y-106800500D01*
X195101459Y-106800500D01*
X195298540Y-106800500D01*
X195447822Y-106800500D01*
X195514861Y-106820185D01*
X195535503Y-106836819D01*
X195655063Y-106956379D01*
X195839772Y-107090579D01*
X195868195Y-107105061D01*
X196043196Y-107194229D01*
X196043198Y-107194229D01*
X196043201Y-107194231D01*
X196159592Y-107232049D01*
X196260339Y-107264784D01*
X196485838Y-107300500D01*
X196485843Y-107300500D01*
X197514162Y-107300500D01*
X197739660Y-107264784D01*
X197791466Y-107247951D01*
X197956799Y-107194231D01*
X198160228Y-107090579D01*
X198344937Y-106956379D01*
X198506379Y-106794937D01*
X198640579Y-106610228D01*
X198744231Y-106406799D01*
X198814784Y-106189660D01*
X198819130Y-106162218D01*
X198850500Y-105964162D01*
X198850500Y-105735837D01*
X198814784Y-105510339D01*
X198778777Y-105399523D01*
X198744231Y-105293201D01*
X198744229Y-105293198D01*
X198744229Y-105293196D01*
X198677297Y-105161835D01*
X198640579Y-105089772D01*
X198506379Y-104905063D01*
X198344937Y-104743621D01*
X198257807Y-104680317D01*
X198215143Y-104624988D01*
X198209164Y-104555374D01*
X198241770Y-104493579D01*
X198257807Y-104479683D01*
X198344937Y-104416379D01*
X198506379Y-104254937D01*
X198640579Y-104070228D01*
X198744231Y-103866799D01*
X198814784Y-103649660D01*
X198827847Y-103567183D01*
X198850500Y-103424162D01*
X198850500Y-103195837D01*
X198814784Y-102970339D01*
X198782049Y-102869592D01*
X198744231Y-102753201D01*
X198744229Y-102753198D01*
X198744229Y-102753196D01*
X198640578Y-102549771D01*
X198633542Y-102540087D01*
X198525066Y-102390783D01*
X198501587Y-102324980D01*
X198517412Y-102256926D01*
X198549900Y-102219523D01*
X198622412Y-102163883D01*
X198793883Y-101992412D01*
X198793889Y-101992405D01*
X198941519Y-101800009D01*
X199062772Y-101589993D01*
X199062779Y-101589978D01*
X199155578Y-101365939D01*
X199181286Y-101270000D01*
X197124000Y-101270000D01*
X197096243Y-101261849D01*
X197192993Y-101235925D01*
X197307007Y-101170099D01*
X197400099Y-101077007D01*
X197465925Y-100962993D01*
X197500000Y-100835826D01*
X197500000Y-100704174D01*
X197465925Y-100577007D01*
X197400099Y-100462993D01*
X197307007Y-100369901D01*
X197192993Y-100304075D01*
X197091892Y-100276984D01*
X197124000Y-100270000D01*
X199181286Y-100270000D01*
X199181285Y-100269999D01*
X199155578Y-100174060D01*
X199062779Y-99950021D01*
X199062772Y-99950006D01*
X198991466Y-99826500D01*
X198974993Y-99758599D01*
X198997846Y-99692573D01*
X199052767Y-99649382D01*
X199098853Y-99640500D01*
X199546610Y-99640500D01*
X199546611Y-99640500D01*
X199717701Y-99613402D01*
X199882445Y-99559873D01*
X200036788Y-99481232D01*
X200176928Y-99379414D01*
X200939414Y-98616928D01*
X200965675Y-98580782D01*
X200975560Y-98567178D01*
X200991977Y-98544581D01*
X201041232Y-98476788D01*
X201119873Y-98322445D01*
X201173402Y-98157701D01*
X201200500Y-97986611D01*
X201200500Y-76526624D01*
X201220185Y-76459585D01*
X201256628Y-76423913D01*
X201256286Y-76423443D01*
X201259478Y-76421123D01*
X201259710Y-76420897D01*
X201260222Y-76420582D01*
X201260221Y-76420582D01*
X201260228Y-76420579D01*
X201444937Y-76286379D01*
X201606379Y-76124937D01*
X201740579Y-75940228D01*
X201844231Y-75736799D01*
X201914784Y-75519660D01*
X201921065Y-75480006D01*
X201950500Y-75294162D01*
X201950500Y-75065837D01*
X201914784Y-74840339D01*
X201866046Y-74690340D01*
X201844231Y-74623201D01*
X201844229Y-74623198D01*
X201844229Y-74623196D01*
X201740578Y-74419771D01*
X201606379Y-74235063D01*
X201444937Y-74073621D01*
X201357807Y-74010317D01*
X201315143Y-73954988D01*
X201309164Y-73885374D01*
X201341770Y-73823579D01*
X201357807Y-73809683D01*
X201444937Y-73746379D01*
X201606379Y-73584937D01*
X201740579Y-73400228D01*
X201844231Y-73196799D01*
X201914784Y-72979660D01*
X201938542Y-72829660D01*
X201950500Y-72754162D01*
X201950500Y-72525837D01*
X201914784Y-72300339D01*
X201882049Y-72199592D01*
X201844231Y-72083201D01*
X201844229Y-72083198D01*
X201844229Y-72083196D01*
X201740578Y-71879771D01*
X201606379Y-71695063D01*
X201444937Y-71533621D01*
X201260228Y-71399421D01*
X201229209Y-71383616D01*
X201056803Y-71295770D01*
X200839660Y-71225215D01*
X200614162Y-71189500D01*
X200614157Y-71189500D01*
X199585843Y-71189500D01*
X199585838Y-71189500D01*
X199360339Y-71225215D01*
X199143196Y-71295770D01*
X198939771Y-71399421D01*
X198755061Y-71533622D01*
X198593622Y-71695061D01*
X198459421Y-71879771D01*
X198355770Y-72083196D01*
X198285215Y-72300339D01*
X198249500Y-72525837D01*
X198249500Y-72754162D01*
X198285215Y-72979660D01*
X198355770Y-73196803D01*
X198382992Y-73250228D01*
X198459421Y-73400228D01*
X198593621Y-73584937D01*
X198755063Y-73746379D01*
X198755069Y-73746383D01*
X198842191Y-73809683D01*
X198884857Y-73865013D01*
X198890835Y-73934627D01*
X198858228Y-73996421D01*
X198842191Y-74010317D01*
X198755069Y-74073616D01*
X198755060Y-74073623D01*
X198593622Y-74235061D01*
X198459421Y-74419771D01*
X198355770Y-74623196D01*
X198285215Y-74840339D01*
X198249500Y-75065837D01*
X198249500Y-75294162D01*
X198285215Y-75519660D01*
X198355770Y-75736803D01*
X198403322Y-75830128D01*
X198459421Y-75940228D01*
X198593621Y-76124937D01*
X198755063Y-76286379D01*
X198939772Y-76420579D01*
X198939774Y-76420580D01*
X198939777Y-76420582D01*
X198940290Y-76420897D01*
X198940443Y-76421067D01*
X198943714Y-76423443D01*
X198943214Y-76424129D01*
X198987165Y-76472708D01*
X198999500Y-76526624D01*
X198999500Y-88593796D01*
X198979815Y-88660835D01*
X198927011Y-88706590D01*
X198857853Y-88716534D01*
X198794297Y-88687509D01*
X198787819Y-88681477D01*
X197136819Y-87030477D01*
X197103334Y-86969154D01*
X197100500Y-86942796D01*
X197100500Y-69863389D01*
X197082661Y-69750757D01*
X197073402Y-69692299D01*
X197019873Y-69527555D01*
X196941232Y-69373212D01*
X196839414Y-69233072D01*
X196716928Y-69110586D01*
X196576788Y-69008768D01*
X196422445Y-68930127D01*
X196257701Y-68876598D01*
X196257699Y-68876597D01*
X196257698Y-68876597D01*
X196126271Y-68855781D01*
X196086611Y-68849500D01*
X196086610Y-68849500D01*
X192876158Y-68849500D01*
X192809119Y-68829815D01*
X192763364Y-68777011D01*
X192753420Y-68707853D01*
X192782445Y-68644297D01*
X192788477Y-68637819D01*
X192793883Y-68632412D01*
X192793889Y-68632405D01*
X192941519Y-68440009D01*
X193062772Y-68229993D01*
X193062779Y-68229978D01*
X193133185Y-68060000D01*
X197918714Y-68060000D01*
X197944421Y-68155939D01*
X198037220Y-68379978D01*
X198037227Y-68379993D01*
X198158480Y-68590009D01*
X198306110Y-68782405D01*
X198306116Y-68782412D01*
X198477587Y-68953883D01*
X198477594Y-68953889D01*
X198669990Y-69101519D01*
X198880006Y-69222772D01*
X198880021Y-69222779D01*
X199104060Y-69315578D01*
X199338312Y-69378346D01*
X199578735Y-69409998D01*
X199578752Y-69410000D01*
X199600000Y-69410000D01*
X200600000Y-69410000D01*
X200621248Y-69410000D01*
X200621264Y-69409998D01*
X200861687Y-69378346D01*
X201095939Y-69315578D01*
X201319978Y-69222779D01*
X201319993Y-69222772D01*
X201530009Y-69101519D01*
X201722405Y-68953889D01*
X201722412Y-68953883D01*
X201893883Y-68782412D01*
X201893889Y-68782405D01*
X202041519Y-68590009D01*
X202162772Y-68379993D01*
X202162779Y-68379978D01*
X202255578Y-68155939D01*
X202281286Y-68060000D01*
X200600000Y-68060000D01*
X200600000Y-69410000D01*
X199600000Y-69410000D01*
X199600000Y-68060000D01*
X197918714Y-68060000D01*
X193133185Y-68060000D01*
X193155578Y-68005939D01*
X193156920Y-68000933D01*
X193181286Y-67910000D01*
X191065826Y-67910000D01*
X191192993Y-67875925D01*
X191307007Y-67810099D01*
X191400099Y-67717007D01*
X191465925Y-67602993D01*
X191495084Y-67494174D01*
X199600000Y-67494174D01*
X199600000Y-67625826D01*
X199634075Y-67752993D01*
X199699901Y-67867007D01*
X199792993Y-67960099D01*
X199907007Y-68025925D01*
X200034174Y-68060000D01*
X200165826Y-68060000D01*
X200292993Y-68025925D01*
X200407007Y-67960099D01*
X200500099Y-67867007D01*
X200565925Y-67752993D01*
X200600000Y-67625826D01*
X200600000Y-67494174D01*
X200565925Y-67367007D01*
X200500099Y-67252993D01*
X200407007Y-67159901D01*
X200292993Y-67094075D01*
X200165826Y-67060000D01*
X200600000Y-67060000D01*
X202281286Y-67060000D01*
X202281285Y-67059999D01*
X202255578Y-66964060D01*
X202162779Y-66740021D01*
X202162772Y-66740006D01*
X202041519Y-66529990D01*
X201915291Y-66365486D01*
X201890097Y-66300317D01*
X201904135Y-66231872D01*
X201915291Y-66214514D01*
X202041519Y-66050009D01*
X202162772Y-65839993D01*
X202162779Y-65839978D01*
X202255578Y-65615939D01*
X202281286Y-65520000D01*
X200600000Y-65520000D01*
X200600000Y-67060000D01*
X200165826Y-67060000D01*
X200034174Y-67060000D01*
X199907007Y-67094075D01*
X199792993Y-67159901D01*
X199699901Y-67252993D01*
X199634075Y-67367007D01*
X199600000Y-67494174D01*
X191495084Y-67494174D01*
X191500000Y-67475826D01*
X191500000Y-67344174D01*
X191465925Y-67217007D01*
X191400099Y-67102993D01*
X191357105Y-67059999D01*
X197918714Y-67059999D01*
X197918714Y-67060000D01*
X199600000Y-67060000D01*
X199600000Y-65520000D01*
X197918714Y-65520000D01*
X197944421Y-65615939D01*
X198037220Y-65839978D01*
X198037227Y-65839993D01*
X198158480Y-66050009D01*
X198284708Y-66214514D01*
X198309902Y-66279683D01*
X198295863Y-66348128D01*
X198284708Y-66365486D01*
X198158480Y-66529990D01*
X198037227Y-66740006D01*
X198037220Y-66740021D01*
X197944421Y-66964060D01*
X197918714Y-67059999D01*
X191357105Y-67059999D01*
X191307007Y-67009901D01*
X191192993Y-66944075D01*
X191065826Y-66910000D01*
X193181286Y-66910000D01*
X193181285Y-66909999D01*
X193155578Y-66814060D01*
X193062779Y-66590021D01*
X193062772Y-66590006D01*
X192941519Y-66379990D01*
X192793889Y-66187594D01*
X192793883Y-66187587D01*
X192622412Y-66016116D01*
X192622405Y-66016110D01*
X192549899Y-65960475D01*
X192508696Y-65904048D01*
X192504541Y-65834302D01*
X192525066Y-65789215D01*
X192640579Y-65630228D01*
X192744231Y-65426799D01*
X192814784Y-65209660D01*
X192828118Y-65125465D01*
X192850274Y-65071980D01*
X192935866Y-64954174D01*
X199600000Y-64954174D01*
X199600000Y-65085826D01*
X199634075Y-65212993D01*
X199699901Y-65327007D01*
X199792993Y-65420099D01*
X199907007Y-65485925D01*
X200034174Y-65520000D01*
X200165826Y-65520000D01*
X200292993Y-65485925D01*
X200407007Y-65420099D01*
X200500099Y-65327007D01*
X200565925Y-65212993D01*
X200600000Y-65085826D01*
X200600000Y-64954174D01*
X200565925Y-64827007D01*
X200500099Y-64712993D01*
X200407007Y-64619901D01*
X200292993Y-64554075D01*
X200165826Y-64520000D01*
X200600000Y-64520000D01*
X202281286Y-64520000D01*
X202281285Y-64519999D01*
X202255578Y-64424060D01*
X202162779Y-64200021D01*
X202162772Y-64200006D01*
X202041519Y-63989990D01*
X201893889Y-63797594D01*
X201893883Y-63797587D01*
X201722412Y-63626116D01*
X201722405Y-63626110D01*
X201530009Y-63478480D01*
X201319993Y-63357227D01*
X201319978Y-63357220D01*
X201095939Y-63264421D01*
X200861687Y-63201653D01*
X200621264Y-63170001D01*
X200621248Y-63170000D01*
X200600000Y-63170000D01*
X200600000Y-64520000D01*
X200165826Y-64520000D01*
X200034174Y-64520000D01*
X199907007Y-64554075D01*
X199792993Y-64619901D01*
X199699901Y-64712993D01*
X199634075Y-64827007D01*
X199600000Y-64954174D01*
X192935866Y-64954174D01*
X192941229Y-64946792D01*
X192941228Y-64946792D01*
X192941232Y-64946788D01*
X193019873Y-64792445D01*
X193073402Y-64627701D01*
X193074638Y-64619901D01*
X193088822Y-64530340D01*
X193090460Y-64519999D01*
X197918714Y-64519999D01*
X197918714Y-64520000D01*
X199600000Y-64520000D01*
X199600000Y-63170000D01*
X199578752Y-63170000D01*
X199578735Y-63170001D01*
X199338312Y-63201653D01*
X199104060Y-63264421D01*
X198880021Y-63357220D01*
X198880006Y-63357227D01*
X198669990Y-63478480D01*
X198477594Y-63626110D01*
X198477587Y-63626116D01*
X198306116Y-63797587D01*
X198306110Y-63797594D01*
X198158480Y-63989990D01*
X198037227Y-64200006D01*
X198037220Y-64200021D01*
X197944421Y-64424060D01*
X197918714Y-64519999D01*
X193090460Y-64519999D01*
X193100500Y-64456611D01*
X193100500Y-64283389D01*
X193100500Y-59993318D01*
X193106496Y-59972896D01*
X193107712Y-59951647D01*
X193119039Y-59930179D01*
X193120185Y-59926279D01*
X193124183Y-59920432D01*
X193169683Y-59857808D01*
X193225013Y-59815142D01*
X193294626Y-59809164D01*
X193356421Y-59841771D01*
X193370315Y-59857804D01*
X193433621Y-59944937D01*
X193595063Y-60106379D01*
X193779772Y-60240579D01*
X193875884Y-60289550D01*
X193983196Y-60344229D01*
X193983198Y-60344229D01*
X193983201Y-60344231D01*
X194099592Y-60382049D01*
X194200339Y-60414784D01*
X194425838Y-60450500D01*
X194425843Y-60450500D01*
X194654162Y-60450500D01*
X194879660Y-60414784D01*
X195096799Y-60344231D01*
X195300228Y-60240579D01*
X195484937Y-60106379D01*
X195646379Y-59944937D01*
X195780579Y-59760228D01*
X195884231Y-59556799D01*
X195954784Y-59339660D01*
X195980436Y-59177702D01*
X195990500Y-59114162D01*
X195990500Y-58085837D01*
X195954784Y-57860339D01*
X195898550Y-57687271D01*
X195884231Y-57643201D01*
X195884229Y-57643198D01*
X195884229Y-57643196D01*
X195814937Y-57507204D01*
X195780579Y-57439772D01*
X195664181Y-57279566D01*
X195640702Y-57213761D01*
X195640500Y-57206681D01*
X195640500Y-56453389D01*
X195613524Y-56283070D01*
X195613402Y-56282299D01*
X195559873Y-56117555D01*
X195481232Y-55963212D01*
X195379414Y-55823072D01*
X195256928Y-55700586D01*
X193716928Y-54160586D01*
X193576788Y-54058768D01*
X193422445Y-53980127D01*
X193257701Y-53926598D01*
X193257699Y-53926597D01*
X193257698Y-53926597D01*
X193126271Y-53905781D01*
X193086611Y-53899500D01*
X186086611Y-53899500D01*
X185913389Y-53899500D01*
X185873728Y-53905781D01*
X185742302Y-53926597D01*
X185577552Y-53980128D01*
X185423211Y-54058768D01*
X185343256Y-54116859D01*
X185283072Y-54160586D01*
X185283070Y-54160588D01*
X185283069Y-54160588D01*
X183160588Y-56283069D01*
X183160588Y-56283070D01*
X183160586Y-56283072D01*
X183116859Y-56343256D01*
X183058768Y-56423211D01*
X182980128Y-56577552D01*
X182926597Y-56742302D01*
X182899500Y-56913389D01*
X182899500Y-57687271D01*
X182879815Y-57754310D01*
X182827011Y-57800065D01*
X182757853Y-57810009D01*
X182719206Y-57797756D01*
X182636806Y-57755771D01*
X182419660Y-57685215D01*
X182194162Y-57649500D01*
X182194157Y-57649500D01*
X181965843Y-57649500D01*
X181965838Y-57649500D01*
X181740339Y-57685215D01*
X181523196Y-57755770D01*
X181319771Y-57859421D01*
X181135061Y-57993622D01*
X180973622Y-58155061D01*
X180839421Y-58339771D01*
X180735770Y-58543196D01*
X180665215Y-58760339D01*
X180629500Y-58985837D01*
X180629500Y-60014162D01*
X180665215Y-60239660D01*
X180735770Y-60456803D01*
X180839421Y-60660228D01*
X180973621Y-60844937D01*
X181135063Y-61006379D01*
X181319772Y-61140579D01*
X181415485Y-61189347D01*
X181523196Y-61244229D01*
X181523198Y-61244229D01*
X181523201Y-61244231D01*
X181610912Y-61272730D01*
X181740339Y-61314784D01*
X181965838Y-61350500D01*
X181965843Y-61350500D01*
X182194162Y-61350500D01*
X182419660Y-61314784D01*
X182425988Y-61312728D01*
X182636799Y-61244231D01*
X182719205Y-61202242D01*
X182787874Y-61189347D01*
X182852615Y-61215623D01*
X182892872Y-61272730D01*
X182899500Y-61312728D01*
X182899500Y-67363389D01*
X182899500Y-67536611D01*
X182926598Y-67707701D01*
X182980127Y-67872445D01*
X183058768Y-68026788D01*
X183160586Y-68166928D01*
X185660586Y-70666928D01*
X185783072Y-70789414D01*
X185923212Y-70891232D01*
X186077555Y-70969873D01*
X186242299Y-71023402D01*
X186413389Y-71050500D01*
X189606681Y-71050500D01*
X189627102Y-71056496D01*
X189648352Y-71057712D01*
X189669819Y-71069039D01*
X189673720Y-71070185D01*
X189679567Y-71074183D01*
X189742191Y-71119683D01*
X189784857Y-71175013D01*
X189790835Y-71244626D01*
X189758228Y-71306421D01*
X189742191Y-71320317D01*
X189655069Y-71383616D01*
X189655060Y-71383623D01*
X189493622Y-71545061D01*
X189359421Y-71729771D01*
X189255770Y-71933196D01*
X189185215Y-72150339D01*
X189149500Y-72375837D01*
X189149500Y-72604162D01*
X189185215Y-72829660D01*
X189255770Y-73046803D01*
X189359421Y-73250228D01*
X189493621Y-73434937D01*
X189655063Y-73596379D01*
X189655069Y-73596383D01*
X189742191Y-73659683D01*
X189784857Y-73715013D01*
X189790835Y-73784627D01*
X189758228Y-73846421D01*
X189742191Y-73860317D01*
X189655069Y-73923616D01*
X189655060Y-73923623D01*
X189493622Y-74085061D01*
X189359421Y-74269771D01*
X189255770Y-74473196D01*
X189185215Y-74690339D01*
X189149500Y-74915837D01*
X189149500Y-75144162D01*
X189185215Y-75369660D01*
X189255770Y-75586803D01*
X189333468Y-75739292D01*
X189359421Y-75790228D01*
X189493621Y-75974937D01*
X189655063Y-76136379D01*
X189655069Y-76136383D01*
X189742191Y-76199683D01*
X189784857Y-76255013D01*
X189790835Y-76324627D01*
X189758228Y-76386421D01*
X189742191Y-76400317D01*
X189655069Y-76463616D01*
X189655060Y-76463623D01*
X189493622Y-76625061D01*
X189359421Y-76809771D01*
X189255770Y-77013196D01*
X189185215Y-77230339D01*
X189149500Y-77455837D01*
X189149500Y-77684162D01*
X189185215Y-77909660D01*
X189255770Y-78126803D01*
X189359421Y-78330228D01*
X189493621Y-78514937D01*
X189655063Y-78676379D01*
X189655069Y-78676383D01*
X189742191Y-78739683D01*
X189784857Y-78795013D01*
X189790835Y-78864627D01*
X189758228Y-78926421D01*
X189742191Y-78940317D01*
X189655069Y-79003616D01*
X189655060Y-79003623D01*
X189493622Y-79165061D01*
X189359421Y-79349771D01*
X189255770Y-79553196D01*
X189185215Y-79770339D01*
X189149500Y-79995837D01*
X189149500Y-80224162D01*
X189185215Y-80449660D01*
X189255770Y-80666803D01*
X189359421Y-80870228D01*
X189493621Y-81054937D01*
X189655063Y-81216379D01*
X189655069Y-81216383D01*
X189742191Y-81279683D01*
X189784857Y-81335013D01*
X189790835Y-81404627D01*
X189758228Y-81466421D01*
X189742191Y-81480317D01*
X189655069Y-81543616D01*
X189655060Y-81543623D01*
X189493622Y-81705061D01*
X189359421Y-81889771D01*
X189255770Y-82093196D01*
X189185215Y-82310339D01*
X189149500Y-82535837D01*
X189149500Y-82764162D01*
X189185215Y-82989660D01*
X189255770Y-83206803D01*
X189359421Y-83410228D01*
X189493621Y-83594937D01*
X189655063Y-83756379D01*
X189655069Y-83756383D01*
X189742191Y-83819683D01*
X189784857Y-83875013D01*
X189790835Y-83944627D01*
X189758228Y-84006421D01*
X189742191Y-84020317D01*
X189655069Y-84083616D01*
X189655060Y-84083623D01*
X189493622Y-84245061D01*
X189359421Y-84429771D01*
X189255770Y-84633196D01*
X189185215Y-84850339D01*
X189149500Y-85075837D01*
X189149500Y-85304162D01*
X189185215Y-85529660D01*
X189255770Y-85746803D01*
X189359421Y-85950228D01*
X189493621Y-86134937D01*
X189655063Y-86296379D01*
X189655069Y-86296383D01*
X189742191Y-86359683D01*
X189784857Y-86415013D01*
X189790835Y-86484627D01*
X189758228Y-86546421D01*
X189742191Y-86560317D01*
X189655069Y-86623616D01*
X189655060Y-86623623D01*
X189493622Y-86785061D01*
X189359421Y-86969771D01*
X189255770Y-87173196D01*
X189185215Y-87390339D01*
X189149500Y-87615837D01*
X189149500Y-87844162D01*
X189185215Y-88069660D01*
X189255770Y-88286803D01*
X189343975Y-88459913D01*
X189359421Y-88490228D01*
X189493621Y-88674937D01*
X189655063Y-88836379D01*
X189655069Y-88836383D01*
X189742191Y-88899683D01*
X189784857Y-88955013D01*
X189790835Y-89024627D01*
X189758228Y-89086421D01*
X189742191Y-89100317D01*
X189655069Y-89163616D01*
X189655060Y-89163623D01*
X189493622Y-89325061D01*
X189359421Y-89509771D01*
X189255770Y-89713196D01*
X189185215Y-89930339D01*
X189149500Y-90155837D01*
X189149500Y-90384162D01*
X189185215Y-90609660D01*
X189255770Y-90826803D01*
X189354144Y-91019871D01*
X189359421Y-91030228D01*
X189493621Y-91214937D01*
X189655063Y-91376379D01*
X189655069Y-91376383D01*
X189742191Y-91439683D01*
X189784857Y-91495013D01*
X189790835Y-91564627D01*
X189758228Y-91626421D01*
X189742191Y-91640317D01*
X189655069Y-91703616D01*
X189655060Y-91703623D01*
X189493622Y-91865061D01*
X189359421Y-92049771D01*
X189255770Y-92253196D01*
X189185215Y-92470339D01*
X189149500Y-92695837D01*
X189149500Y-92924162D01*
X189185215Y-93149660D01*
X189255770Y-93366803D01*
X189355461Y-93562456D01*
X189359421Y-93570228D01*
X189493621Y-93754937D01*
X189655063Y-93916379D01*
X189655069Y-93916383D01*
X189742191Y-93979683D01*
X189784857Y-94035013D01*
X189790835Y-94104627D01*
X189758228Y-94166421D01*
X189742191Y-94180317D01*
X189655069Y-94243616D01*
X189655060Y-94243623D01*
X189493622Y-94405061D01*
X189359421Y-94589771D01*
X189255770Y-94793196D01*
X189185215Y-95010339D01*
X189149500Y-95235837D01*
X189149500Y-95464162D01*
X189185215Y-95689660D01*
X189255770Y-95906803D01*
X189359421Y-96110228D01*
X189493621Y-96294937D01*
X189655063Y-96456379D01*
X189655069Y-96456383D01*
X189742191Y-96519683D01*
X189784857Y-96575013D01*
X189790835Y-96644627D01*
X189758228Y-96706421D01*
X189742191Y-96720317D01*
X189655069Y-96783616D01*
X189655060Y-96783623D01*
X189493622Y-96945061D01*
X189359421Y-97129771D01*
X189255770Y-97333196D01*
X189185215Y-97550339D01*
X189149500Y-97775837D01*
X189149500Y-98004162D01*
X189185215Y-98229660D01*
X189255770Y-98446803D01*
X189342453Y-98616927D01*
X189359421Y-98650228D01*
X189493621Y-98834937D01*
X189655063Y-98996379D01*
X189655069Y-98996383D01*
X189742191Y-99059683D01*
X189784857Y-99115013D01*
X189790835Y-99184627D01*
X189758228Y-99246421D01*
X189742191Y-99260317D01*
X189655069Y-99323616D01*
X189655060Y-99323623D01*
X189493622Y-99485061D01*
X189359421Y-99669771D01*
X189255770Y-99873196D01*
X189185215Y-100090339D01*
X189149500Y-100315837D01*
X189149500Y-100544162D01*
X189185215Y-100769660D01*
X189255770Y-100986803D01*
X189336886Y-101146000D01*
X189359421Y-101190228D01*
X189493621Y-101374937D01*
X189655063Y-101536379D01*
X189655069Y-101536383D01*
X189742191Y-101599683D01*
X189784857Y-101655013D01*
X189790835Y-101724627D01*
X189758228Y-101786421D01*
X189742191Y-101800317D01*
X189655069Y-101863616D01*
X189655060Y-101863623D01*
X189493622Y-102025061D01*
X189359421Y-102209771D01*
X189255770Y-102413196D01*
X189185215Y-102630339D01*
X189149500Y-102855837D01*
X189149500Y-103084162D01*
X189185215Y-103309660D01*
X189255770Y-103526803D01*
X189359421Y-103730228D01*
X189493621Y-103914937D01*
X189655063Y-104076379D01*
X189655069Y-104076383D01*
X189742191Y-104139683D01*
X189756618Y-104158392D01*
X189774311Y-104174048D01*
X189777558Y-104185547D01*
X189784857Y-104195013D01*
X189786878Y-104218552D01*
X189793298Y-104241288D01*
X189789812Y-104252718D01*
X189790835Y-104264627D01*
X189779808Y-104285523D01*
X189772918Y-104308119D01*
X189761661Y-104319914D01*
X189758228Y-104326421D01*
X189749530Y-104334551D01*
X189745961Y-104337579D01*
X189655063Y-104403621D01*
X189581914Y-104476769D01*
X189578047Y-104480051D01*
X189550566Y-104492257D01*
X189524180Y-104506666D01*
X189516198Y-104507524D01*
X189514193Y-104508415D01*
X189511615Y-104508016D01*
X189497822Y-104509500D01*
X187691456Y-104509500D01*
X187498171Y-104547946D01*
X187498167Y-104547948D01*
X187498165Y-104547948D01*
X187498164Y-104547949D01*
X187422745Y-104579188D01*
X187422743Y-104579189D01*
X187316089Y-104623366D01*
X187316079Y-104623371D01*
X187245419Y-104670586D01*
X187152217Y-104732860D01*
X187152214Y-104732863D01*
X186162780Y-105722299D01*
X185862220Y-106022859D01*
X185862218Y-106022861D01*
X185818280Y-106066799D01*
X185722859Y-106162219D01*
X185613371Y-106326080D01*
X185613366Y-106326089D01*
X185579936Y-106406799D01*
X185537950Y-106508161D01*
X185537948Y-106508168D01*
X185533630Y-106529876D01*
X185499500Y-106701454D01*
X185499500Y-117834218D01*
X185479815Y-117901257D01*
X185463181Y-117921899D01*
X184421899Y-118963181D01*
X184360576Y-118996666D01*
X184334218Y-118999500D01*
X172497282Y-118999500D01*
X172430243Y-118979815D01*
X172409601Y-118963181D01*
X168507577Y-115061157D01*
X157815707Y-104369288D01*
X157815705Y-104369285D01*
X157815705Y-104369286D01*
X157808638Y-104362219D01*
X157808638Y-104362218D01*
X157669281Y-104222861D01*
X157669280Y-104222860D01*
X157669279Y-104222859D01*
X157505416Y-104113369D01*
X157505413Y-104113368D01*
X157382322Y-104062382D01*
X157382318Y-104062381D01*
X157375363Y-104059500D01*
X157323335Y-104037949D01*
X157226687Y-104018724D01*
X157222128Y-104017817D01*
X157222124Y-104017816D01*
X157130043Y-103999500D01*
X157130040Y-103999500D01*
X97901460Y-103999500D01*
X97901456Y-103999500D01*
X97809375Y-104017816D01*
X97809367Y-104017818D01*
X97804813Y-104018724D01*
X97708165Y-104037949D01*
X97656137Y-104059500D01*
X97649186Y-104062378D01*
X97649179Y-104062381D01*
X97526090Y-104113366D01*
X97526081Y-104113371D01*
X97418063Y-104185547D01*
X97409555Y-104191232D01*
X97402915Y-104195669D01*
X97362217Y-104222861D01*
X97362216Y-104222862D01*
X87510143Y-114074937D01*
X84362220Y-117222860D01*
X84362218Y-117222862D01*
X84292538Y-117292541D01*
X84222859Y-117362220D01*
X84113371Y-117526080D01*
X84113364Y-117526093D01*
X84037950Y-117708161D01*
X84037947Y-117708171D01*
X83999500Y-117901457D01*
X83999500Y-126284217D01*
X83979815Y-126351256D01*
X83963181Y-126371898D01*
X82692220Y-127642859D01*
X82692218Y-127642861D01*
X82622538Y-127712540D01*
X82552859Y-127782219D01*
X82443371Y-127946079D01*
X82443366Y-127946088D01*
X82411289Y-128023531D01*
X82390038Y-128074834D01*
X82385129Y-128086687D01*
X82380221Y-128098537D01*
X82380220Y-128098540D01*
X82367950Y-128128161D01*
X82367947Y-128128169D01*
X82329500Y-128321456D01*
X82329500Y-128897822D01*
X82322229Y-128922580D01*
X82318823Y-128948159D01*
X82311653Y-128958600D01*
X82309815Y-128964861D01*
X82300051Y-128978047D01*
X82296769Y-128981914D01*
X82223621Y-129055063D01*
X82157579Y-129145961D01*
X82154551Y-129149530D01*
X82129103Y-129166260D01*
X82104987Y-129184857D01*
X82100190Y-129185268D01*
X82096169Y-129187913D01*
X82065714Y-129188229D01*
X82035373Y-129190835D01*
X82031116Y-129188588D01*
X82026303Y-129188639D01*
X82000509Y-129172438D01*
X81973579Y-129158228D01*
X81968437Y-129152294D01*
X81967136Y-129151477D01*
X81966435Y-129149983D01*
X81959683Y-129142191D01*
X81896383Y-129055069D01*
X81896379Y-129055063D01*
X81826819Y-128985503D01*
X81793334Y-128924180D01*
X81790500Y-128897822D01*
X81790500Y-108675781D01*
X81810185Y-108608742D01*
X81826814Y-108588105D01*
X83637778Y-106777141D01*
X83637782Y-106777139D01*
X83777139Y-106637782D01*
X83886632Y-106473914D01*
X83894493Y-106454937D01*
X83917446Y-106399522D01*
X83962051Y-106291835D01*
X84000500Y-106098541D01*
X84000500Y-103097951D01*
X84020185Y-103030912D01*
X84068205Y-102987466D01*
X84160228Y-102940579D01*
X84320433Y-102824181D01*
X84386239Y-102800702D01*
X84393319Y-102800500D01*
X92606681Y-102800500D01*
X92673720Y-102820185D01*
X92679559Y-102824176D01*
X92839772Y-102940579D01*
X92931793Y-102987466D01*
X93043196Y-103044229D01*
X93043198Y-103044229D01*
X93043201Y-103044231D01*
X93159592Y-103082049D01*
X93260339Y-103114784D01*
X93485838Y-103150500D01*
X93485843Y-103150500D01*
X94514162Y-103150500D01*
X94739660Y-103114784D01*
X94833904Y-103084162D01*
X94956799Y-103044231D01*
X95160228Y-102940579D01*
X95320433Y-102824181D01*
X95386239Y-102800702D01*
X95393319Y-102800500D01*
X103606681Y-102800500D01*
X103673720Y-102820185D01*
X103679559Y-102824176D01*
X103839772Y-102940579D01*
X103931793Y-102987466D01*
X104043196Y-103044229D01*
X104043198Y-103044229D01*
X104043201Y-103044231D01*
X104159592Y-103082049D01*
X104260339Y-103114784D01*
X104485838Y-103150500D01*
X104485843Y-103150500D01*
X105514162Y-103150500D01*
X105739660Y-103114784D01*
X105833904Y-103084162D01*
X105956799Y-103044231D01*
X106160228Y-102940579D01*
X106320433Y-102824181D01*
X106386239Y-102800702D01*
X106393319Y-102800500D01*
X162192796Y-102800500D01*
X162259835Y-102820185D01*
X162280477Y-102836819D01*
X168333072Y-108889414D01*
X168473212Y-108991232D01*
X168627555Y-109069873D01*
X168792299Y-109123402D01*
X168963389Y-109150500D01*
X169123842Y-109150500D01*
X169190881Y-109170185D01*
X169236636Y-109222989D01*
X169246580Y-109292147D01*
X169217555Y-109355703D01*
X169211523Y-109362181D01*
X169206116Y-109367587D01*
X169206110Y-109367594D01*
X169058480Y-109559990D01*
X168937227Y-109770006D01*
X168937220Y-109770021D01*
X168844421Y-109994060D01*
X168818714Y-110089999D01*
X168818714Y-110090000D01*
X170934174Y-110090000D01*
X170807007Y-110124075D01*
X170692993Y-110189901D01*
X170599901Y-110282993D01*
X170534075Y-110397007D01*
X170500000Y-110524174D01*
X170500000Y-110655826D01*
X170534075Y-110782993D01*
X170599901Y-110897007D01*
X170692993Y-110990099D01*
X170807007Y-111055925D01*
X170934174Y-111090000D01*
X168818714Y-111090000D01*
X168844421Y-111185939D01*
X168937220Y-111409978D01*
X168937227Y-111409993D01*
X169058480Y-111620009D01*
X169206110Y-111812405D01*
X169206116Y-111812412D01*
X169377587Y-111983883D01*
X169377592Y-111983887D01*
X169450099Y-112039523D01*
X169491303Y-112095951D01*
X169495458Y-112165697D01*
X169474932Y-112210786D01*
X169359421Y-112369771D01*
X169255770Y-112573196D01*
X169185215Y-112790339D01*
X169149500Y-113015837D01*
X169149500Y-113244162D01*
X169185215Y-113469660D01*
X169255770Y-113686803D01*
X169357052Y-113885579D01*
X169359421Y-113890228D01*
X169493621Y-114074937D01*
X169655063Y-114236379D01*
X169839772Y-114370579D01*
X169894651Y-114398541D01*
X170043196Y-114474229D01*
X170043198Y-114474229D01*
X170043201Y-114474231D01*
X170159592Y-114512049D01*
X170260339Y-114544784D01*
X170485838Y-114580500D01*
X170485843Y-114580500D01*
X171514162Y-114580500D01*
X171739660Y-114544784D01*
X171741587Y-114544158D01*
X171956799Y-114474231D01*
X172160228Y-114370579D01*
X172344937Y-114236379D01*
X172506379Y-114074937D01*
X172640579Y-113890228D01*
X172744231Y-113686799D01*
X172814784Y-113469660D01*
X172850500Y-113244162D01*
X172850500Y-113015837D01*
X172814784Y-112790339D01*
X172744229Y-112573196D01*
X172663328Y-112414420D01*
X172640579Y-112369772D01*
X172525066Y-112210783D01*
X172501587Y-112144980D01*
X172517412Y-112076926D01*
X172549900Y-112039523D01*
X172622412Y-111983883D01*
X172793883Y-111812412D01*
X172793889Y-111812405D01*
X172941519Y-111620009D01*
X173062772Y-111409993D01*
X173062779Y-111409978D01*
X173155578Y-111185939D01*
X173181286Y-111090000D01*
X171065826Y-111090000D01*
X171192993Y-111055925D01*
X171307007Y-110990099D01*
X171400099Y-110897007D01*
X171465925Y-110782993D01*
X171500000Y-110655826D01*
X171500000Y-110524174D01*
X171465925Y-110397007D01*
X171400099Y-110282993D01*
X171307007Y-110189901D01*
X171192993Y-110124075D01*
X171065826Y-110090000D01*
X173181286Y-110090000D01*
X173181285Y-110089999D01*
X173155578Y-109994060D01*
X173062779Y-109770021D01*
X173062772Y-109770006D01*
X172941519Y-109559990D01*
X172793889Y-109367594D01*
X172793883Y-109367587D01*
X172622412Y-109196116D01*
X172622405Y-109196110D01*
X172549899Y-109140475D01*
X172508696Y-109084048D01*
X172504541Y-109014302D01*
X172525066Y-108969215D01*
X172640579Y-108810228D01*
X172744231Y-108606799D01*
X172814784Y-108389660D01*
X172850500Y-108164162D01*
X172850500Y-107935837D01*
X172814784Y-107710339D01*
X172772415Y-107579941D01*
X172744231Y-107493201D01*
X172744229Y-107493198D01*
X172744229Y-107493196D01*
X172640578Y-107289771D01*
X172574442Y-107198743D01*
X172506379Y-107105063D01*
X172344937Y-106943621D01*
X172257807Y-106880317D01*
X172215143Y-106824988D01*
X172209164Y-106755374D01*
X172241770Y-106693579D01*
X172257807Y-106679683D01*
X172344937Y-106616379D01*
X172506379Y-106454937D01*
X172640579Y-106270228D01*
X172744231Y-106066799D01*
X172814784Y-105849660D01*
X172832812Y-105735837D01*
X172850500Y-105624162D01*
X172850500Y-105395837D01*
X172814784Y-105170339D01*
X172768307Y-105027299D01*
X172744231Y-104953201D01*
X172744229Y-104953198D01*
X172744229Y-104953196D01*
X172689550Y-104845884D01*
X172640579Y-104749772D01*
X172506379Y-104565063D01*
X172344937Y-104403621D01*
X172257807Y-104340317D01*
X172215143Y-104284988D01*
X172209164Y-104215374D01*
X172241770Y-104153579D01*
X172257807Y-104139683D01*
X172344937Y-104076379D01*
X172506379Y-103914937D01*
X172640579Y-103730228D01*
X172744231Y-103526799D01*
X172814784Y-103309660D01*
X172832812Y-103195837D01*
X172850500Y-103084162D01*
X172850500Y-102855837D01*
X172814784Y-102630339D01*
X172762877Y-102470588D01*
X172744231Y-102413201D01*
X172744229Y-102413198D01*
X172744229Y-102413196D01*
X172645547Y-102219523D01*
X172640579Y-102209772D01*
X172506379Y-102025063D01*
X172344937Y-101863621D01*
X172257807Y-101800317D01*
X172215143Y-101744988D01*
X172209164Y-101675374D01*
X172241770Y-101613579D01*
X172257807Y-101599683D01*
X172344937Y-101536379D01*
X172506379Y-101374937D01*
X172640579Y-101190228D01*
X172744231Y-100986799D01*
X172814784Y-100769660D01*
X172822021Y-100723968D01*
X172850500Y-100544162D01*
X172850500Y-100315837D01*
X172814784Y-100090339D01*
X172769191Y-99950021D01*
X172744231Y-99873201D01*
X172744229Y-99873198D01*
X172744229Y-99873196D01*
X172689550Y-99765884D01*
X172640579Y-99669772D01*
X172506379Y-99485063D01*
X172344937Y-99323621D01*
X172257807Y-99260317D01*
X172215143Y-99204988D01*
X172209164Y-99135374D01*
X172241770Y-99073579D01*
X172257807Y-99059683D01*
X172344937Y-98996379D01*
X172506379Y-98834937D01*
X172640579Y-98650228D01*
X172744231Y-98446799D01*
X172814784Y-98229660D01*
X172826692Y-98154477D01*
X172850500Y-98004162D01*
X172850500Y-97775837D01*
X172814784Y-97550339D01*
X172744229Y-97333196D01*
X172646884Y-97142147D01*
X172640579Y-97129772D01*
X172506379Y-96945063D01*
X172344937Y-96783621D01*
X172257807Y-96720317D01*
X172215143Y-96664988D01*
X172209164Y-96595374D01*
X172241770Y-96533579D01*
X172257807Y-96519683D01*
X172344937Y-96456379D01*
X172506379Y-96294937D01*
X172640579Y-96110228D01*
X172744231Y-95906799D01*
X172814784Y-95689660D01*
X172832811Y-95575843D01*
X172850500Y-95464162D01*
X172850500Y-95235837D01*
X172814784Y-95010339D01*
X172744229Y-94793196D01*
X172646884Y-94602147D01*
X172640579Y-94589772D01*
X172506379Y-94405063D01*
X172344937Y-94243621D01*
X172257807Y-94180317D01*
X172215143Y-94124988D01*
X172209164Y-94055374D01*
X172241770Y-93993579D01*
X172257807Y-93979683D01*
X172344937Y-93916379D01*
X172506379Y-93754937D01*
X172640579Y-93570228D01*
X172744231Y-93366799D01*
X172814784Y-93149660D01*
X172841767Y-92979298D01*
X172850500Y-92924162D01*
X172850500Y-92695837D01*
X172814784Y-92470339D01*
X172744229Y-92253196D01*
X172640578Y-92049771D01*
X172506379Y-91865063D01*
X172344937Y-91703621D01*
X172257807Y-91640317D01*
X172215143Y-91584988D01*
X172209164Y-91515374D01*
X172241770Y-91453579D01*
X172257807Y-91439683D01*
X172344937Y-91376379D01*
X172506379Y-91214937D01*
X172640579Y-91030228D01*
X172744231Y-90826799D01*
X172814784Y-90609660D01*
X172817096Y-90595061D01*
X172850500Y-90384162D01*
X172850500Y-90155837D01*
X172814784Y-89930339D01*
X172744229Y-89713196D01*
X172640578Y-89509771D01*
X172506379Y-89325063D01*
X172344937Y-89163621D01*
X172257807Y-89100317D01*
X172215143Y-89044988D01*
X172209164Y-88975374D01*
X172241770Y-88913579D01*
X172257807Y-88899683D01*
X172344937Y-88836379D01*
X172506379Y-88674937D01*
X172640579Y-88490228D01*
X172744231Y-88286799D01*
X172814784Y-88069660D01*
X172841767Y-87899298D01*
X172850500Y-87844162D01*
X172850500Y-87615837D01*
X172814784Y-87390339D01*
X172744229Y-87173196D01*
X172676406Y-87040086D01*
X172640579Y-86969772D01*
X172506379Y-86785063D01*
X172344937Y-86623621D01*
X172257807Y-86560317D01*
X172215143Y-86504988D01*
X172209164Y-86435374D01*
X172241770Y-86373579D01*
X172257807Y-86359683D01*
X172344937Y-86296379D01*
X172506379Y-86134937D01*
X172640579Y-85950228D01*
X172744231Y-85746799D01*
X172814784Y-85529660D01*
X172841767Y-85359298D01*
X172850500Y-85304162D01*
X172850500Y-85075837D01*
X172814784Y-84850339D01*
X172744229Y-84633196D01*
X172640578Y-84429771D01*
X172583048Y-84350588D01*
X172506379Y-84245063D01*
X172344937Y-84083621D01*
X172257807Y-84020317D01*
X172215143Y-83964988D01*
X172209164Y-83895374D01*
X172241770Y-83833579D01*
X172257807Y-83819683D01*
X172344937Y-83756379D01*
X172506379Y-83594937D01*
X172640579Y-83410228D01*
X172744231Y-83206799D01*
X172814784Y-82989660D01*
X172817096Y-82975061D01*
X172850500Y-82764162D01*
X172850500Y-82535837D01*
X172814784Y-82310339D01*
X172759511Y-82140228D01*
X172744231Y-82093201D01*
X172744229Y-82093198D01*
X172744229Y-82093196D01*
X172653006Y-81914162D01*
X172640579Y-81889772D01*
X172506379Y-81705063D01*
X172344937Y-81543621D01*
X172257807Y-81480317D01*
X172215143Y-81424988D01*
X172209164Y-81355374D01*
X172241770Y-81293579D01*
X172257807Y-81279683D01*
X172344937Y-81216379D01*
X172506379Y-81054937D01*
X172640579Y-80870228D01*
X172744231Y-80666799D01*
X172814784Y-80449660D01*
X172817096Y-80435061D01*
X172850500Y-80224162D01*
X172850500Y-79995837D01*
X172814784Y-79770339D01*
X172744229Y-79553196D01*
X172640578Y-79349771D01*
X172506379Y-79165063D01*
X172344937Y-79003621D01*
X172257807Y-78940317D01*
X172215143Y-78884988D01*
X172209164Y-78815374D01*
X172241770Y-78753579D01*
X172257807Y-78739683D01*
X172344937Y-78676379D01*
X172506379Y-78514937D01*
X172640579Y-78330228D01*
X172744231Y-78126799D01*
X172814784Y-77909660D01*
X172821086Y-77869871D01*
X172850500Y-77684162D01*
X172850500Y-77455837D01*
X172814784Y-77230339D01*
X172744229Y-77013196D01*
X172640578Y-76809771D01*
X172560896Y-76700099D01*
X172506379Y-76625063D01*
X172344937Y-76463621D01*
X172257807Y-76400317D01*
X172215143Y-76344988D01*
X172209164Y-76275374D01*
X172241770Y-76213579D01*
X172257807Y-76199683D01*
X172344937Y-76136379D01*
X172506379Y-75974937D01*
X172640579Y-75790228D01*
X172744231Y-75586799D01*
X172814784Y-75369660D01*
X172826742Y-75294162D01*
X172850500Y-75144162D01*
X172850500Y-74915837D01*
X172814784Y-74690339D01*
X172744229Y-74473196D01*
X172640578Y-74269771D01*
X172615361Y-74235063D01*
X172506379Y-74085063D01*
X172344937Y-73923621D01*
X172257807Y-73860317D01*
X172215143Y-73804988D01*
X172209164Y-73735374D01*
X172241770Y-73673579D01*
X172257807Y-73659683D01*
X172344937Y-73596379D01*
X172506379Y-73434937D01*
X172640579Y-73250228D01*
X172744231Y-73046799D01*
X172814784Y-72829660D01*
X172826742Y-72754162D01*
X172850500Y-72604162D01*
X172850500Y-72375837D01*
X172814784Y-72150339D01*
X172744229Y-71933196D01*
X172640578Y-71729771D01*
X172638955Y-71727537D01*
X172506379Y-71545063D01*
X172344937Y-71383621D01*
X172257807Y-71320317D01*
X172243380Y-71301607D01*
X172225688Y-71285952D01*
X172222440Y-71274451D01*
X172215143Y-71264988D01*
X172213121Y-71241448D01*
X172206701Y-71218712D01*
X172210186Y-71207281D01*
X172209164Y-71195374D01*
X172220190Y-71174477D01*
X172227081Y-71151880D01*
X172238337Y-71140085D01*
X172241770Y-71133579D01*
X172250469Y-71125448D01*
X172254023Y-71122431D01*
X172344937Y-71056379D01*
X172418092Y-70983223D01*
X172421953Y-70979948D01*
X172449439Y-70967738D01*
X172475820Y-70953334D01*
X172483801Y-70952475D01*
X172485807Y-70951585D01*
X172488384Y-70951983D01*
X172502178Y-70950500D01*
X176648542Y-70950500D01*
X176679566Y-70944328D01*
X176745188Y-70931275D01*
X176841836Y-70912051D01*
X176895165Y-70889961D01*
X177023914Y-70836632D01*
X177187782Y-70727139D01*
X177327139Y-70587782D01*
X177327140Y-70587779D01*
X177334206Y-70580714D01*
X177334209Y-70580710D01*
X178737778Y-69177141D01*
X178737782Y-69177139D01*
X178877139Y-69037782D01*
X178986632Y-68873914D01*
X179062051Y-68691835D01*
X179070258Y-68650579D01*
X179100500Y-68498540D01*
X179100500Y-68301460D01*
X179100500Y-54865782D01*
X179120185Y-54798743D01*
X179136819Y-54778101D01*
X186983429Y-46931491D01*
X191499500Y-46931491D01*
X191499500Y-47268508D01*
X191537231Y-47603381D01*
X191537233Y-47603397D01*
X191612223Y-47931953D01*
X191612227Y-47931965D01*
X191723532Y-48250054D01*
X191869752Y-48553683D01*
X191900931Y-48603304D01*
X192049054Y-48839039D01*
X192259175Y-49102523D01*
X192497477Y-49340825D01*
X192760961Y-49550946D01*
X193046314Y-49730246D01*
X193349949Y-49876469D01*
X193588848Y-49960063D01*
X193668034Y-49987772D01*
X193668046Y-49987776D01*
X193996606Y-50062767D01*
X194331492Y-50100499D01*
X194331493Y-50100500D01*
X194331496Y-50100500D01*
X194668507Y-50100500D01*
X194668507Y-50100499D01*
X195003394Y-50062767D01*
X195331954Y-49987776D01*
X195650051Y-49876469D01*
X195953686Y-49730246D01*
X196239039Y-49550946D01*
X196502523Y-49340825D01*
X196740825Y-49102523D01*
X196950946Y-48839039D01*
X197130246Y-48553686D01*
X197276469Y-48250051D01*
X197387776Y-47931954D01*
X197462767Y-47603394D01*
X197500500Y-47268504D01*
X197500500Y-46931496D01*
X197462767Y-46596606D01*
X197387776Y-46268046D01*
X197276469Y-45949949D01*
X197130246Y-45646314D01*
X196950946Y-45360961D01*
X196740825Y-45097477D01*
X196502523Y-44859175D01*
X196239039Y-44649054D01*
X195953686Y-44469754D01*
X195953683Y-44469752D01*
X195650054Y-44323532D01*
X195331965Y-44212227D01*
X195331953Y-44212223D01*
X195003397Y-44137233D01*
X195003381Y-44137231D01*
X194668508Y-44099500D01*
X194668504Y-44099500D01*
X194331496Y-44099500D01*
X194331491Y-44099500D01*
X193996618Y-44137231D01*
X193996602Y-44137233D01*
X193668046Y-44212223D01*
X193668034Y-44212227D01*
X193349945Y-44323532D01*
X193046316Y-44469752D01*
X192760962Y-44649053D01*
X192497477Y-44859174D01*
X192259174Y-45097477D01*
X192049053Y-45360962D01*
X191869752Y-45646316D01*
X191723532Y-45949945D01*
X191612227Y-46268034D01*
X191612223Y-46268046D01*
X191537233Y-46596602D01*
X191537231Y-46596618D01*
X191499500Y-46931491D01*
X186983429Y-46931491D01*
X190878101Y-43036819D01*
X190939424Y-43003334D01*
X190965782Y-43000500D01*
X204034218Y-43000500D01*
X204101257Y-43020185D01*
G37*
%TD.AperFunction*%
%TA.AperFunction,Conductor*%
G36*
X192559835Y-56120185D02*
G01*
X192580477Y-56136819D01*
X193403181Y-56959523D01*
X193417884Y-56986450D01*
X193434477Y-57012269D01*
X193435368Y-57018469D01*
X193436666Y-57020846D01*
X193439500Y-57047204D01*
X193439500Y-57206681D01*
X193419815Y-57273720D01*
X193415817Y-57279567D01*
X193370317Y-57342191D01*
X193314987Y-57384857D01*
X193245374Y-57390835D01*
X193183579Y-57358228D01*
X193169683Y-57342191D01*
X193106383Y-57255069D01*
X193106379Y-57255063D01*
X192944937Y-57093621D01*
X192760228Y-56959421D01*
X192556803Y-56855770D01*
X192339660Y-56785215D01*
X192114162Y-56749500D01*
X192114157Y-56749500D01*
X191885843Y-56749500D01*
X191885838Y-56749500D01*
X191660339Y-56785215D01*
X191443196Y-56855770D01*
X191239771Y-56959421D01*
X191080786Y-57074932D01*
X191014979Y-57098412D01*
X190946925Y-57082587D01*
X190909523Y-57050099D01*
X190853887Y-56977592D01*
X190853883Y-56977587D01*
X190682412Y-56806116D01*
X190682405Y-56806110D01*
X190490009Y-56658480D01*
X190279993Y-56537227D01*
X190279978Y-56537220D01*
X190055939Y-56444421D01*
X189960000Y-56418714D01*
X189960000Y-58534174D01*
X189925925Y-58407007D01*
X189860099Y-58292993D01*
X189767007Y-58199901D01*
X189652993Y-58134075D01*
X189525826Y-58100000D01*
X189394174Y-58100000D01*
X189267007Y-58134075D01*
X189152993Y-58199901D01*
X189059901Y-58292993D01*
X188994075Y-58407007D01*
X188960000Y-58534174D01*
X188960000Y-58665826D01*
X188994075Y-58792993D01*
X189059901Y-58907007D01*
X189152993Y-59000099D01*
X189267007Y-59065925D01*
X189394174Y-59100000D01*
X189525826Y-59100000D01*
X189652993Y-59065925D01*
X189767007Y-59000099D01*
X189860099Y-58907007D01*
X189925925Y-58792993D01*
X189960000Y-58665826D01*
X189960000Y-60781284D01*
X190055938Y-60755578D01*
X190055948Y-60755575D01*
X190279983Y-60662776D01*
X190279993Y-60662772D01*
X190490009Y-60541519D01*
X190682405Y-60393889D01*
X190682412Y-60393883D01*
X190687819Y-60388477D01*
X190749142Y-60354992D01*
X190818834Y-60359976D01*
X190874767Y-60401848D01*
X190899184Y-60467312D01*
X190899500Y-60476158D01*
X190899500Y-63295500D01*
X190879815Y-63362539D01*
X190827011Y-63408294D01*
X190775500Y-63419500D01*
X190485838Y-63419500D01*
X190260339Y-63455215D01*
X190043196Y-63525770D01*
X189839771Y-63629421D01*
X189655061Y-63763622D01*
X189493622Y-63925061D01*
X189359421Y-64109771D01*
X189255770Y-64313196D01*
X189185215Y-64530339D01*
X189149500Y-64755837D01*
X189149500Y-64984162D01*
X189185215Y-65209660D01*
X189255770Y-65426803D01*
X189303257Y-65520000D01*
X189359421Y-65630228D01*
X189474932Y-65789214D01*
X189498412Y-65855019D01*
X189482587Y-65923073D01*
X189450100Y-65960475D01*
X189377594Y-66016110D01*
X189377587Y-66016116D01*
X189206116Y-66187587D01*
X189206110Y-66187594D01*
X189058480Y-66379990D01*
X188937227Y-66590006D01*
X188937220Y-66590021D01*
X188844421Y-66814060D01*
X188818714Y-66909999D01*
X188818714Y-66910000D01*
X190934174Y-66910000D01*
X190807007Y-66944075D01*
X190692993Y-67009901D01*
X190599901Y-67102993D01*
X190534075Y-67217007D01*
X190500000Y-67344174D01*
X190500000Y-67475826D01*
X190534075Y-67602993D01*
X190599901Y-67717007D01*
X190692993Y-67810099D01*
X190807007Y-67875925D01*
X190934174Y-67910000D01*
X188818714Y-67910000D01*
X188844421Y-68005939D01*
X188937220Y-68229978D01*
X188937227Y-68229993D01*
X189058480Y-68440009D01*
X189206110Y-68632405D01*
X189206116Y-68632412D01*
X189211523Y-68637819D01*
X189245008Y-68699142D01*
X189240024Y-68768834D01*
X189198152Y-68824767D01*
X189132688Y-68849184D01*
X189123842Y-68849500D01*
X187007204Y-68849500D01*
X186940165Y-68829815D01*
X186919523Y-68813181D01*
X185136819Y-67030477D01*
X185103334Y-66969154D01*
X185100500Y-66942796D01*
X185100500Y-59121248D01*
X187610000Y-59121248D01*
X187610001Y-59121264D01*
X187641653Y-59361687D01*
X187704421Y-59595939D01*
X187797220Y-59819978D01*
X187797227Y-59819993D01*
X187918480Y-60030009D01*
X188066110Y-60222405D01*
X188066116Y-60222412D01*
X188237587Y-60393883D01*
X188237594Y-60393889D01*
X188429990Y-60541519D01*
X188640006Y-60662772D01*
X188640016Y-60662776D01*
X188864051Y-60755575D01*
X188864061Y-60755578D01*
X188959999Y-60781284D01*
X188960000Y-60781284D01*
X188960000Y-59100000D01*
X187610000Y-59100000D01*
X187610000Y-59121248D01*
X185100500Y-59121248D01*
X185100500Y-58078751D01*
X187610000Y-58078751D01*
X187610000Y-58100000D01*
X188960000Y-58100000D01*
X188960000Y-56418714D01*
X188959999Y-56418714D01*
X188864060Y-56444421D01*
X188640021Y-56537220D01*
X188640006Y-56537227D01*
X188429990Y-56658480D01*
X188237594Y-56806110D01*
X188237587Y-56806116D01*
X188066116Y-56977587D01*
X188066110Y-56977594D01*
X187918480Y-57169990D01*
X187797227Y-57380006D01*
X187797220Y-57380021D01*
X187704421Y-57604060D01*
X187641653Y-57838312D01*
X187610001Y-58078735D01*
X187610000Y-58078751D01*
X185100500Y-58078751D01*
X185100500Y-57507204D01*
X185120185Y-57440165D01*
X185136819Y-57419523D01*
X186419523Y-56136819D01*
X186480846Y-56103334D01*
X186507204Y-56100500D01*
X192492796Y-56100500D01*
X192559835Y-56120185D01*
G37*
%TD.AperFunction*%
%TA.AperFunction,Conductor*%
G36*
X103818039Y-39520185D02*
G01*
X103863794Y-39572989D01*
X103873738Y-39642147D01*
X103850200Y-39698900D01*
X92626228Y-54664194D01*
X92614713Y-54677471D01*
X92599500Y-54692684D01*
X92585288Y-54717299D01*
X92581567Y-54723743D01*
X92560065Y-54752414D01*
X92548775Y-54780537D01*
X92544367Y-54788174D01*
X92544367Y-54788176D01*
X92533610Y-54806809D01*
X92533606Y-54806818D01*
X92526254Y-54834252D01*
X92526255Y-54834253D01*
X92524328Y-54841445D01*
X92510975Y-54874714D01*
X92507348Y-54904812D01*
X92505067Y-54913328D01*
X92499500Y-54934104D01*
X92499500Y-54962514D01*
X92498610Y-54977345D01*
X92495212Y-55005549D01*
X92498254Y-55026844D01*
X92499500Y-55044380D01*
X92499500Y-63953561D01*
X92495920Y-63972688D01*
X92499500Y-64019225D01*
X92499500Y-64065896D01*
X92501559Y-64073579D01*
X92505417Y-64096153D01*
X92506027Y-64104079D01*
X92506029Y-64104091D01*
X92519947Y-64143618D01*
X92519948Y-64143618D01*
X92521531Y-64148113D01*
X92533608Y-64193186D01*
X92543334Y-64210033D01*
X92547155Y-64220883D01*
X92549795Y-64228380D01*
X92549800Y-64228390D01*
X92573474Y-64262969D01*
X92576170Y-64266906D01*
X92599500Y-64307314D01*
X92613255Y-64321069D01*
X92619753Y-64330559D01*
X92619756Y-64330562D01*
X92624250Y-64337126D01*
X92659684Y-64367498D01*
X92692686Y-64400500D01*
X92709534Y-64410227D01*
X92718268Y-64417713D01*
X92718269Y-64417714D01*
X99656071Y-70364401D01*
X99663055Y-70370869D01*
X99692682Y-70400497D01*
X99692684Y-70400498D01*
X99692686Y-70400500D01*
X99709536Y-70410228D01*
X99724308Y-70422890D01*
X99766387Y-70443051D01*
X99770508Y-70445431D01*
X99806812Y-70466391D01*
X99806814Y-70466392D01*
X99825607Y-70471427D01*
X99843154Y-70479835D01*
X99889027Y-70488420D01*
X99934108Y-70500500D01*
X99942059Y-70500500D01*
X99964870Y-70502616D01*
X99967217Y-70503055D01*
X99972688Y-70504079D01*
X100014472Y-70500865D01*
X100023981Y-70500500D01*
X155065890Y-70500500D01*
X155065892Y-70500500D01*
X155193186Y-70466392D01*
X155307314Y-70400500D01*
X186170995Y-39536819D01*
X186232318Y-39503334D01*
X186258676Y-39500500D01*
X217934108Y-39500500D01*
X217996949Y-39500500D01*
X218003032Y-39500648D01*
X218336929Y-39517052D01*
X218349037Y-39518245D01*
X218362116Y-39520185D01*
X218676699Y-39566849D01*
X218688617Y-39569219D01*
X219009951Y-39649709D01*
X219021588Y-39653240D01*
X219092806Y-39678722D01*
X219333467Y-39764832D01*
X219344688Y-39769479D01*
X219644163Y-39911120D01*
X219654871Y-39916844D01*
X219938988Y-40087137D01*
X219949106Y-40093897D01*
X220215170Y-40291224D01*
X220224576Y-40298944D01*
X220470013Y-40521395D01*
X220478604Y-40529986D01*
X220541608Y-40599500D01*
X220701055Y-40775423D01*
X220708775Y-40784829D01*
X220906102Y-41050893D01*
X220912862Y-41061011D01*
X220938751Y-41104204D01*
X221041776Y-41276092D01*
X221083148Y-41345116D01*
X221088883Y-41355844D01*
X221095240Y-41369286D01*
X221230514Y-41655297D01*
X221235170Y-41666540D01*
X221346759Y-41978411D01*
X221350292Y-41990055D01*
X221430777Y-42311369D01*
X221433151Y-42323305D01*
X221481754Y-42650962D01*
X221482947Y-42663071D01*
X221499351Y-42996966D01*
X221499500Y-43003051D01*
X221499500Y-134996948D01*
X221499351Y-135003033D01*
X221482947Y-135336928D01*
X221481754Y-135349037D01*
X221433151Y-135676694D01*
X221430777Y-135688630D01*
X221350292Y-136009944D01*
X221346759Y-136021588D01*
X221235170Y-136333459D01*
X221230514Y-136344702D01*
X221088885Y-136644151D01*
X221083148Y-136654883D01*
X220912862Y-136938988D01*
X220906102Y-136949106D01*
X220708775Y-137215170D01*
X220701055Y-137224576D01*
X220478611Y-137470006D01*
X220470006Y-137478611D01*
X220224576Y-137701055D01*
X220215170Y-137708775D01*
X219949106Y-137906102D01*
X219938988Y-137912862D01*
X219654883Y-138083148D01*
X219644151Y-138088885D01*
X219344702Y-138230514D01*
X219333459Y-138235170D01*
X219021588Y-138346759D01*
X219009944Y-138350292D01*
X218688630Y-138430777D01*
X218676694Y-138433151D01*
X218349037Y-138481754D01*
X218336928Y-138482947D01*
X218021989Y-138498419D01*
X218003031Y-138499351D01*
X217996949Y-138499500D01*
X185270952Y-138499500D01*
X185203913Y-138479815D01*
X185180398Y-138460211D01*
X177932753Y-130712728D01*
X177856757Y-130631491D01*
X191499500Y-130631491D01*
X191499500Y-130968508D01*
X191537231Y-131303381D01*
X191537233Y-131303397D01*
X191612223Y-131631953D01*
X191612227Y-131631965D01*
X191723532Y-131950054D01*
X191869752Y-132253683D01*
X191869754Y-132253686D01*
X192049054Y-132539039D01*
X192259175Y-132802523D01*
X192497477Y-133040825D01*
X192760961Y-133250946D01*
X193046314Y-133430246D01*
X193349949Y-133576469D01*
X193588848Y-133660063D01*
X193668034Y-133687772D01*
X193668046Y-133687776D01*
X193996606Y-133762767D01*
X194331492Y-133800499D01*
X194331493Y-133800500D01*
X194331496Y-133800500D01*
X194668507Y-133800500D01*
X194668507Y-133800499D01*
X195003394Y-133762767D01*
X195331954Y-133687776D01*
X195650051Y-133576469D01*
X195953686Y-133430246D01*
X196239039Y-133250946D01*
X196502523Y-133040825D01*
X196740825Y-132802523D01*
X196950946Y-132539039D01*
X197130246Y-132253686D01*
X197276469Y-131950051D01*
X197387776Y-131631954D01*
X197462767Y-131303394D01*
X197500500Y-130968504D01*
X197500500Y-130631496D01*
X197500499Y-130631491D01*
X214499500Y-130631491D01*
X214499500Y-130968508D01*
X214537231Y-131303381D01*
X214537233Y-131303397D01*
X214612223Y-131631953D01*
X214612227Y-131631965D01*
X214723532Y-131950054D01*
X214869752Y-132253683D01*
X214869754Y-132253686D01*
X215049054Y-132539039D01*
X215259175Y-132802523D01*
X215497477Y-133040825D01*
X215760961Y-133250946D01*
X216046314Y-133430246D01*
X216349949Y-133576469D01*
X216588848Y-133660063D01*
X216668034Y-133687772D01*
X216668046Y-133687776D01*
X216996606Y-133762767D01*
X217331492Y-133800499D01*
X217331493Y-133800500D01*
X217331496Y-133800500D01*
X217668507Y-133800500D01*
X217668507Y-133800499D01*
X218003394Y-133762767D01*
X218331954Y-133687776D01*
X218650051Y-133576469D01*
X218953686Y-133430246D01*
X219239039Y-133250946D01*
X219502523Y-133040825D01*
X219740825Y-132802523D01*
X219950946Y-132539039D01*
X220130246Y-132253686D01*
X220276469Y-131950051D01*
X220387776Y-131631954D01*
X220462767Y-131303394D01*
X220500500Y-130968504D01*
X220500500Y-130631496D01*
X220462767Y-130296606D01*
X220387776Y-129968046D01*
X220276469Y-129649949D01*
X220130246Y-129346314D01*
X219950946Y-129060961D01*
X219740825Y-128797477D01*
X219502523Y-128559175D01*
X219239039Y-128349054D01*
X218953686Y-128169754D01*
X218953683Y-128169752D01*
X218650054Y-128023532D01*
X218331965Y-127912227D01*
X218331953Y-127912223D01*
X218003397Y-127837233D01*
X218003381Y-127837231D01*
X217668508Y-127799500D01*
X217668504Y-127799500D01*
X217331496Y-127799500D01*
X217331491Y-127799500D01*
X216996618Y-127837231D01*
X216996602Y-127837233D01*
X216668046Y-127912223D01*
X216668034Y-127912227D01*
X216349945Y-128023532D01*
X216046316Y-128169752D01*
X215760962Y-128349053D01*
X215497477Y-128559174D01*
X215259174Y-128797477D01*
X215049053Y-129060962D01*
X214869752Y-129346316D01*
X214723532Y-129649945D01*
X214612227Y-129968034D01*
X214612223Y-129968046D01*
X214537233Y-130296602D01*
X214537231Y-130296618D01*
X214499500Y-130631491D01*
X197500499Y-130631491D01*
X197462767Y-130296606D01*
X197387776Y-129968046D01*
X197276469Y-129649949D01*
X197130246Y-129346314D01*
X196950946Y-129060961D01*
X196740825Y-128797477D01*
X196502523Y-128559175D01*
X196239039Y-128349054D01*
X195953686Y-128169754D01*
X195953683Y-128169752D01*
X195650054Y-128023532D01*
X195331965Y-127912227D01*
X195331953Y-127912223D01*
X195003397Y-127837233D01*
X195003381Y-127837231D01*
X194668508Y-127799500D01*
X194668504Y-127799500D01*
X194331496Y-127799500D01*
X194331491Y-127799500D01*
X193996618Y-127837231D01*
X193996602Y-127837233D01*
X193668046Y-127912223D01*
X193668034Y-127912227D01*
X193349945Y-128023532D01*
X193046316Y-128169752D01*
X192760962Y-128349053D01*
X192497477Y-128559174D01*
X192259174Y-128797477D01*
X192049053Y-129060962D01*
X191869752Y-129346316D01*
X191723532Y-129649945D01*
X191612227Y-129968034D01*
X191612223Y-129968046D01*
X191537233Y-130296602D01*
X191537231Y-130296618D01*
X191499500Y-130631491D01*
X177856757Y-130631491D01*
X156414452Y-107710407D01*
X156414452Y-107710406D01*
X156404731Y-107700015D01*
X156400500Y-107692686D01*
X156359795Y-107651981D01*
X156320486Y-107609961D01*
X156320484Y-107609959D01*
X156314209Y-107604804D01*
X156314539Y-107604401D01*
X156314077Y-107604033D01*
X156313760Y-107604447D01*
X156307318Y-107599504D01*
X156307314Y-107599500D01*
X156289829Y-107589405D01*
X156259239Y-107571743D01*
X156257449Y-107570710D01*
X156208616Y-107540303D01*
X156200518Y-107537841D01*
X156193186Y-107533608D01*
X156193182Y-107533606D01*
X156193180Y-107533606D01*
X156139564Y-107519239D01*
X156139564Y-107519238D01*
X156137546Y-107518697D01*
X156082530Y-107501973D01*
X156074068Y-107501690D01*
X156073844Y-107501630D01*
X156065894Y-107499500D01*
X156065892Y-107499500D01*
X156008333Y-107499500D01*
X155950818Y-107497583D01*
X155942574Y-107499500D01*
X101020795Y-107499500D01*
X101012547Y-107499225D01*
X101005579Y-107498760D01*
X100967551Y-107496225D01*
X100967542Y-107496225D01*
X100963113Y-107497101D01*
X100950985Y-107499500D01*
X100934108Y-107499500D01*
X100886565Y-107512238D01*
X100882505Y-107513040D01*
X100838263Y-107521790D01*
X100834007Y-107523884D01*
X100823117Y-107529239D01*
X100806814Y-107533608D01*
X100764183Y-107558220D01*
X100760478Y-107560042D01*
X100760476Y-107560042D01*
X100720012Y-107579941D01*
X100720006Y-107579945D01*
X100716434Y-107583071D01*
X100716433Y-107583070D01*
X100707297Y-107591063D01*
X100692686Y-107599500D01*
X100657904Y-107634280D01*
X100654785Y-107637010D01*
X100654775Y-107637020D01*
X92716440Y-114583065D01*
X92696791Y-114597129D01*
X92692689Y-114599497D01*
X92692688Y-114599498D01*
X92660780Y-114631404D01*
X92660779Y-114631403D01*
X92657846Y-114634335D01*
X92620830Y-114666726D01*
X92611441Y-114680741D01*
X92602866Y-114689317D01*
X92602862Y-114689323D01*
X92599500Y-114692685D01*
X92599498Y-114692688D01*
X92576949Y-114731742D01*
X92572591Y-114738742D01*
X92547493Y-114776214D01*
X92547486Y-114776227D01*
X92545961Y-114780703D01*
X92545962Y-114780704D01*
X92542046Y-114792197D01*
X92533608Y-114806814D01*
X92520868Y-114854356D01*
X92519539Y-114858258D01*
X92504991Y-114900964D01*
X92504676Y-114905688D01*
X92503868Y-114917803D01*
X92499500Y-114934108D01*
X92499500Y-114983328D01*
X92499225Y-114987453D01*
X92499225Y-114987458D01*
X92496224Y-115032452D01*
X92497144Y-115037100D01*
X92499500Y-115061157D01*
X92499500Y-123982142D01*
X92496077Y-124030066D01*
X92499500Y-124047817D01*
X92499500Y-124065897D01*
X92510783Y-124108005D01*
X92512764Y-124116615D01*
X92521028Y-124159464D01*
X92521029Y-124159466D01*
X92528929Y-124175726D01*
X92533608Y-124193186D01*
X92557624Y-124234784D01*
X92559555Y-124238757D01*
X92559559Y-124238766D01*
X92578623Y-124277999D01*
X92578624Y-124278000D01*
X92578626Y-124278003D01*
X92582704Y-124282709D01*
X92596382Y-124301914D01*
X92599497Y-124307310D01*
X92599502Y-124307316D01*
X92630345Y-124338159D01*
X92636369Y-124344629D01*
X104726074Y-138294289D01*
X104755105Y-138357842D01*
X104745168Y-138427001D01*
X104699418Y-138479809D01*
X104632380Y-138499500D01*
X80334222Y-138499500D01*
X80267183Y-138479815D01*
X80231048Y-138444283D01*
X76847914Y-133369581D01*
X76803859Y-133303499D01*
X88999500Y-133303499D01*
X88999500Y-133696500D01*
X89033751Y-134087995D01*
X89033751Y-134087999D01*
X89080004Y-134350309D01*
X89101993Y-134475015D01*
X89203707Y-134854616D01*
X89203708Y-134854618D01*
X89203708Y-134854619D01*
X89338124Y-135223921D01*
X89504195Y-135580062D01*
X89504207Y-135580086D01*
X89700695Y-135920412D01*
X89700704Y-135920427D01*
X89926115Y-136242347D01*
X90118793Y-136471971D01*
X90178722Y-136543391D01*
X90456609Y-136821278D01*
X90544019Y-136894624D01*
X90757652Y-137073884D01*
X90757658Y-137073888D01*
X90757659Y-137073889D01*
X91079579Y-137299300D01*
X91419920Y-137495796D01*
X91419934Y-137495802D01*
X91419937Y-137495804D01*
X91776078Y-137661875D01*
X91776083Y-137661876D01*
X91776092Y-137661881D01*
X92145384Y-137796293D01*
X92524985Y-137898007D01*
X92912007Y-137966249D01*
X93303502Y-138000499D01*
X93303503Y-138000500D01*
X93303504Y-138000500D01*
X93696497Y-138000500D01*
X93696497Y-138000499D01*
X94087993Y-137966249D01*
X94475015Y-137898007D01*
X94854616Y-137796293D01*
X95223908Y-137661881D01*
X95580080Y-137495796D01*
X95920421Y-137299300D01*
X96242341Y-137073889D01*
X96543391Y-136821278D01*
X96821278Y-136543391D01*
X97073889Y-136242341D01*
X97299300Y-135920421D01*
X97495796Y-135580080D01*
X97661881Y-135223908D01*
X97796293Y-134854616D01*
X97898007Y-134475015D01*
X97966249Y-134087993D01*
X98000500Y-133696496D01*
X98000500Y-133303504D01*
X97966249Y-132912007D01*
X97898007Y-132524985D01*
X97796293Y-132145384D01*
X97661881Y-131776092D01*
X97661876Y-131776083D01*
X97661875Y-131776078D01*
X97495804Y-131419937D01*
X97495792Y-131419913D01*
X97428521Y-131303397D01*
X97299300Y-131079579D01*
X97073889Y-130757659D01*
X97073888Y-130757658D01*
X97073884Y-130757652D01*
X96821275Y-130456606D01*
X96543393Y-130178724D01*
X96242347Y-129926115D01*
X95920427Y-129700704D01*
X95920424Y-129700702D01*
X95920421Y-129700700D01*
X95812362Y-129638312D01*
X95580086Y-129504207D01*
X95580062Y-129504195D01*
X95223921Y-129338124D01*
X95223910Y-129338120D01*
X95223908Y-129338119D01*
X94854616Y-129203707D01*
X94607443Y-129137477D01*
X94475016Y-129101993D01*
X94475005Y-129101991D01*
X94087997Y-129033751D01*
X93696500Y-128999500D01*
X93696496Y-128999500D01*
X93303504Y-128999500D01*
X93303499Y-128999500D01*
X92912004Y-129033751D01*
X92912000Y-129033751D01*
X92524994Y-129101991D01*
X92524983Y-129101993D01*
X92321555Y-129156502D01*
X92145384Y-129203707D01*
X92145381Y-129203708D01*
X92145380Y-129203708D01*
X91776078Y-129338124D01*
X91419937Y-129504195D01*
X91419913Y-129504207D01*
X91079587Y-129700695D01*
X91079572Y-129700704D01*
X90757652Y-129926115D01*
X90456606Y-130178724D01*
X90178724Y-130456606D01*
X89926115Y-130757652D01*
X89700704Y-131079572D01*
X89700695Y-131079587D01*
X89504207Y-131419913D01*
X89504195Y-131419937D01*
X89338124Y-131776078D01*
X89204127Y-132144231D01*
X89203707Y-132145384D01*
X89175675Y-132250000D01*
X89101993Y-132524983D01*
X89101991Y-132524994D01*
X89033751Y-132912000D01*
X89033751Y-132912004D01*
X88999500Y-133303499D01*
X76803859Y-133303499D01*
X75473527Y-131308000D01*
X76400000Y-131308000D01*
X76410608Y-131427325D01*
X76410609Y-131427328D01*
X76466557Y-131622861D01*
X76560721Y-131803129D01*
X76689246Y-131960753D01*
X76846870Y-132089278D01*
X77027138Y-132183442D01*
X77222671Y-132239390D01*
X77222674Y-132239391D01*
X77341999Y-132249999D01*
X77342002Y-132250000D01*
X77750000Y-132250000D01*
X77750000Y-130900000D01*
X76400000Y-130900000D01*
X76400000Y-131308000D01*
X75473527Y-131308000D01*
X75213141Y-130917421D01*
X74306880Y-129558030D01*
X74262859Y-129491999D01*
X76400000Y-129491999D01*
X76400000Y-129900000D01*
X77750000Y-129900000D01*
X77750000Y-128550000D01*
X77341999Y-128550000D01*
X77222674Y-128560608D01*
X77222671Y-128560609D01*
X77027138Y-128616557D01*
X76846870Y-128710721D01*
X76689246Y-128839246D01*
X76560721Y-128996870D01*
X76466557Y-129177138D01*
X76410609Y-129372671D01*
X76410608Y-129372674D01*
X76400000Y-129491999D01*
X74262859Y-129491999D01*
X72521326Y-126879699D01*
X72500518Y-126813000D01*
X72500500Y-126810916D01*
X72500500Y-77001456D01*
X73999500Y-77001456D01*
X73999500Y-98098545D01*
X74002576Y-98114007D01*
X74002581Y-98114031D01*
X74002942Y-98115843D01*
X74037949Y-98291836D01*
X74046486Y-98312445D01*
X74050444Y-98322002D01*
X74050446Y-98322008D01*
X74113364Y-98473906D01*
X74113366Y-98473911D01*
X74113368Y-98473914D01*
X74222861Y-98637782D01*
X74362218Y-98777139D01*
X74362220Y-98777140D01*
X74369286Y-98784206D01*
X74369285Y-98784206D01*
X74369288Y-98784208D01*
X75382860Y-99797781D01*
X75382861Y-99797782D01*
X75452680Y-99867601D01*
X75522219Y-99937140D01*
X75686079Y-100046628D01*
X75686092Y-100046635D01*
X75814833Y-100099961D01*
X75817902Y-100101232D01*
X75868164Y-100122051D01*
X75964812Y-100141275D01*
X76013135Y-100150887D01*
X76061458Y-100160500D01*
X76061459Y-100160500D01*
X76061460Y-100160500D01*
X76258540Y-100160500D01*
X76785726Y-100160500D01*
X76852765Y-100180185D01*
X76873408Y-100196820D01*
X76914835Y-100238248D01*
X76914841Y-100238253D01*
X77040235Y-100334471D01*
X77040243Y-100334477D01*
X77154257Y-100400303D01*
X77300289Y-100460792D01*
X77423870Y-100493906D01*
X77425800Y-100494485D01*
X77427443Y-100494863D01*
X77427456Y-100494867D01*
X77427459Y-100494868D01*
X77584174Y-100515500D01*
X77584181Y-100515500D01*
X78149993Y-100515500D01*
X78150000Y-100515500D01*
X78283821Y-100497882D01*
X78316179Y-100497882D01*
X78450000Y-100515500D01*
X78450007Y-100515500D01*
X79015830Y-100515500D01*
X79035174Y-100512953D01*
X79172544Y-100494867D01*
X79299711Y-100460792D01*
X79445743Y-100400303D01*
X79559757Y-100334477D01*
X79622773Y-100286123D01*
X79687941Y-100260930D01*
X79698258Y-100260500D01*
X81606681Y-100260500D01*
X81627102Y-100266496D01*
X81648352Y-100267712D01*
X81669819Y-100279039D01*
X81673720Y-100280185D01*
X81679567Y-100284183D01*
X81742191Y-100329683D01*
X81784857Y-100385013D01*
X81790835Y-100454626D01*
X81758228Y-100516421D01*
X81742191Y-100530317D01*
X81655069Y-100593616D01*
X81655060Y-100593623D01*
X81493622Y-100755061D01*
X81359421Y-100939771D01*
X81255770Y-101143196D01*
X81185215Y-101360339D01*
X81149500Y-101585837D01*
X81149500Y-101814162D01*
X81185215Y-102039660D01*
X81255770Y-102256803D01*
X81359421Y-102460228D01*
X81493621Y-102644937D01*
X81655063Y-102806379D01*
X81679567Y-102824182D01*
X81839773Y-102940580D01*
X81898180Y-102970339D01*
X81931794Y-102987466D01*
X81982590Y-103035440D01*
X81999500Y-103097951D01*
X81999500Y-105534217D01*
X81979815Y-105601256D01*
X81963181Y-105621898D01*
X81074579Y-106510500D01*
X80152221Y-107432858D01*
X80152218Y-107432861D01*
X80091883Y-107493196D01*
X80012859Y-107572219D01*
X79903371Y-107736080D01*
X79903364Y-107736093D01*
X79875495Y-107803376D01*
X79875489Y-107803391D01*
X79874072Y-107806814D01*
X79827949Y-107918164D01*
X79818953Y-107963389D01*
X79817299Y-107971701D01*
X79817298Y-107971706D01*
X79789500Y-108111456D01*
X79789500Y-128577284D01*
X79769815Y-128644323D01*
X79717011Y-128690078D01*
X79647853Y-128700022D01*
X79608089Y-128687193D01*
X79472861Y-128616557D01*
X79277328Y-128560609D01*
X79277325Y-128560608D01*
X79158000Y-128550000D01*
X78750000Y-128550000D01*
X78750000Y-130334174D01*
X78715925Y-130207007D01*
X78650099Y-130092993D01*
X78557007Y-129999901D01*
X78442993Y-129934075D01*
X78315826Y-129900000D01*
X78184174Y-129900000D01*
X78057007Y-129934075D01*
X77942993Y-129999901D01*
X77849901Y-130092993D01*
X77784075Y-130207007D01*
X77750000Y-130334174D01*
X77750000Y-130465826D01*
X77784075Y-130592993D01*
X77849901Y-130707007D01*
X77942993Y-130800099D01*
X78057007Y-130865925D01*
X78184174Y-130900000D01*
X78315826Y-130900000D01*
X78442993Y-130865925D01*
X78557007Y-130800099D01*
X78650099Y-130707007D01*
X78715925Y-130592993D01*
X78750000Y-130465826D01*
X78750000Y-132250000D01*
X79157998Y-132250000D01*
X79158000Y-132249999D01*
X79277325Y-132239391D01*
X79277328Y-132239390D01*
X79472861Y-132183442D01*
X79653130Y-132089278D01*
X79788181Y-131979157D01*
X79852577Y-131952047D01*
X79921407Y-131964056D01*
X79939425Y-131974937D01*
X80029772Y-132040579D01*
X80125349Y-132089278D01*
X80233196Y-132144229D01*
X80233198Y-132144229D01*
X80233201Y-132144231D01*
X80349592Y-132182049D01*
X80450339Y-132214784D01*
X80675838Y-132250500D01*
X80675843Y-132250500D01*
X80904162Y-132250500D01*
X81129660Y-132214784D01*
X81346799Y-132144231D01*
X81550228Y-132040579D01*
X81734937Y-131906379D01*
X81896379Y-131744937D01*
X81959682Y-131657807D01*
X82015012Y-131615143D01*
X82084626Y-131609164D01*
X82146421Y-131641770D01*
X82160315Y-131657804D01*
X82223621Y-131744937D01*
X82385063Y-131906379D01*
X82569772Y-132040579D01*
X82665349Y-132089278D01*
X82773196Y-132144229D01*
X82773198Y-132144229D01*
X82773201Y-132144231D01*
X82889592Y-132182049D01*
X82990339Y-132214784D01*
X83215838Y-132250500D01*
X83215843Y-132250500D01*
X83444162Y-132250500D01*
X83669660Y-132214784D01*
X83886799Y-132144231D01*
X84090228Y-132040579D01*
X84249214Y-131925067D01*
X84315019Y-131901587D01*
X84383073Y-131917412D01*
X84420475Y-131949899D01*
X84476110Y-132022405D01*
X84476116Y-132022412D01*
X84647587Y-132193883D01*
X84647594Y-132193889D01*
X84839990Y-132341519D01*
X85050006Y-132462772D01*
X85050016Y-132462776D01*
X85274051Y-132555575D01*
X85274061Y-132555578D01*
X85369999Y-132581284D01*
X85370000Y-132581284D01*
X86370000Y-132581284D01*
X86465938Y-132555578D01*
X86465948Y-132555575D01*
X86689983Y-132462776D01*
X86689993Y-132462772D01*
X86900009Y-132341519D01*
X87092405Y-132193889D01*
X87092412Y-132193883D01*
X87263883Y-132022412D01*
X87263889Y-132022405D01*
X87411519Y-131830009D01*
X87532772Y-131619993D01*
X87532779Y-131619978D01*
X87625578Y-131395939D01*
X87688346Y-131161687D01*
X87719998Y-130921264D01*
X87720000Y-130921248D01*
X87720000Y-130900000D01*
X86370000Y-130900000D01*
X86370000Y-132581284D01*
X85370000Y-132581284D01*
X85370000Y-130465826D01*
X85404075Y-130592993D01*
X85469901Y-130707007D01*
X85562993Y-130800099D01*
X85677007Y-130865925D01*
X85804174Y-130900000D01*
X85935826Y-130900000D01*
X86062993Y-130865925D01*
X86177007Y-130800099D01*
X86270099Y-130707007D01*
X86335925Y-130592993D01*
X86370000Y-130465826D01*
X86370000Y-130334174D01*
X86335925Y-130207007D01*
X86270099Y-130092993D01*
X86177007Y-129999901D01*
X86062993Y-129934075D01*
X85935826Y-129900000D01*
X86370000Y-129900000D01*
X87720000Y-129900000D01*
X87720000Y-129878751D01*
X87719998Y-129878735D01*
X87688346Y-129638312D01*
X87625578Y-129404060D01*
X87532779Y-129180021D01*
X87532772Y-129180006D01*
X87411519Y-128969990D01*
X87263889Y-128777594D01*
X87263883Y-128777587D01*
X87092412Y-128606116D01*
X87092405Y-128606110D01*
X86900009Y-128458480D01*
X86689993Y-128337227D01*
X86689978Y-128337220D01*
X86465939Y-128244421D01*
X86370000Y-128218714D01*
X86370000Y-129900000D01*
X85935826Y-129900000D01*
X85804174Y-129900000D01*
X85677007Y-129934075D01*
X85562993Y-129999901D01*
X85469901Y-130092993D01*
X85404075Y-130207007D01*
X85370000Y-130334174D01*
X85370000Y-128218714D01*
X85369999Y-128218714D01*
X85274061Y-128244421D01*
X85246427Y-128255867D01*
X85176958Y-128263334D01*
X85114479Y-128232058D01*
X85078828Y-128171968D01*
X85081323Y-128102143D01*
X85111295Y-128053625D01*
X85777140Y-127387781D01*
X85886632Y-127223914D01*
X85962052Y-127041835D01*
X86000500Y-126848540D01*
X86000500Y-126651459D01*
X86000500Y-118465783D01*
X86020185Y-118398744D01*
X86036819Y-118378102D01*
X98378103Y-106036819D01*
X98439426Y-106003334D01*
X98465784Y-106000500D01*
X156565717Y-106000500D01*
X156632756Y-106020185D01*
X156653397Y-106036818D01*
X171254359Y-120637781D01*
X171254360Y-120637782D01*
X171393717Y-120777139D01*
X171557585Y-120886632D01*
X171664244Y-120930811D01*
X171739663Y-120962051D01*
X171932953Y-121000499D01*
X171932956Y-121000500D01*
X171932958Y-121000500D01*
X184898542Y-121000500D01*
X184929566Y-120994328D01*
X184995188Y-120981275D01*
X185091836Y-120962051D01*
X185145165Y-120939961D01*
X185273914Y-120886632D01*
X185437782Y-120777139D01*
X185577139Y-120637782D01*
X185577140Y-120637779D01*
X185584206Y-120630714D01*
X185584209Y-120630710D01*
X187137778Y-119077141D01*
X187137782Y-119077139D01*
X187277139Y-118937782D01*
X187386632Y-118773914D01*
X187462051Y-118591835D01*
X187487125Y-118465783D01*
X187500500Y-118398543D01*
X187500500Y-107265782D01*
X187520185Y-107198743D01*
X187536819Y-107178101D01*
X188168102Y-106546819D01*
X188229425Y-106513334D01*
X188255783Y-106510500D01*
X189497822Y-106510500D01*
X189522580Y-106517770D01*
X189548159Y-106521177D01*
X189558600Y-106528346D01*
X189564861Y-106530185D01*
X189578047Y-106539949D01*
X189581914Y-106543230D01*
X189655063Y-106616379D01*
X189745961Y-106682420D01*
X189749530Y-106685449D01*
X189766260Y-106710896D01*
X189784857Y-106735013D01*
X189785268Y-106739809D01*
X189787913Y-106743831D01*
X189788229Y-106774285D01*
X189790835Y-106804627D01*
X189788588Y-106808883D01*
X189788639Y-106813697D01*
X189772438Y-106839490D01*
X189758228Y-106866421D01*
X189752294Y-106871562D01*
X189751477Y-106872864D01*
X189749983Y-106873564D01*
X189742191Y-106880317D01*
X189655069Y-106943616D01*
X189655060Y-106943623D01*
X189493622Y-107105061D01*
X189359421Y-107289771D01*
X189255770Y-107493196D01*
X189185215Y-107710339D01*
X189149500Y-107935837D01*
X189149500Y-108164162D01*
X189185215Y-108389660D01*
X189255770Y-108606803D01*
X189359421Y-108810228D01*
X189493621Y-108994937D01*
X189655063Y-109156379D01*
X189655069Y-109156383D01*
X189742191Y-109219683D01*
X189784857Y-109275013D01*
X189790835Y-109344627D01*
X189758228Y-109406421D01*
X189742191Y-109420317D01*
X189655069Y-109483616D01*
X189655060Y-109483623D01*
X189493622Y-109645061D01*
X189359421Y-109829771D01*
X189255770Y-110033196D01*
X189185215Y-110250339D01*
X189149500Y-110475837D01*
X189149500Y-110704162D01*
X189185215Y-110929660D01*
X189255770Y-111146803D01*
X189294524Y-111222861D01*
X189359421Y-111350228D01*
X189493621Y-111534937D01*
X189655063Y-111696379D01*
X189655069Y-111696383D01*
X189742191Y-111759683D01*
X189784857Y-111815013D01*
X189790835Y-111884627D01*
X189758228Y-111946421D01*
X189742191Y-111960317D01*
X189655069Y-112023616D01*
X189655060Y-112023623D01*
X189493622Y-112185061D01*
X189359421Y-112369771D01*
X189255770Y-112573196D01*
X189185215Y-112790339D01*
X189149500Y-113015837D01*
X189149500Y-113244162D01*
X189185215Y-113469660D01*
X189255770Y-113686803D01*
X189357052Y-113885579D01*
X189359421Y-113890228D01*
X189493621Y-114074937D01*
X189655063Y-114236379D01*
X189839772Y-114370579D01*
X189894651Y-114398541D01*
X190043196Y-114474229D01*
X190043198Y-114474229D01*
X190043201Y-114474231D01*
X190159592Y-114512049D01*
X190260339Y-114544784D01*
X190485838Y-114580500D01*
X190485843Y-114580500D01*
X191514162Y-114580500D01*
X191739660Y-114544784D01*
X191741587Y-114544158D01*
X191956799Y-114474231D01*
X192160228Y-114370579D01*
X192344937Y-114236379D01*
X192506379Y-114074937D01*
X192640579Y-113890228D01*
X192744231Y-113686799D01*
X192814784Y-113469660D01*
X192850500Y-113244162D01*
X192850500Y-113015837D01*
X192814784Y-112790339D01*
X192744229Y-112573196D01*
X192663328Y-112414420D01*
X192640579Y-112369772D01*
X192506379Y-112185063D01*
X192344937Y-112023621D01*
X192257807Y-111960317D01*
X192243380Y-111941607D01*
X192225688Y-111925952D01*
X192222440Y-111914451D01*
X192215143Y-111904988D01*
X192213121Y-111881448D01*
X192206701Y-111858712D01*
X192210186Y-111847281D01*
X192209164Y-111835374D01*
X192220190Y-111814477D01*
X192227081Y-111791880D01*
X192238337Y-111780085D01*
X192241770Y-111773579D01*
X192250469Y-111765448D01*
X192254023Y-111762431D01*
X192344937Y-111696379D01*
X192418092Y-111623223D01*
X192421953Y-111619948D01*
X192449439Y-111607738D01*
X192475820Y-111593334D01*
X192483801Y-111592475D01*
X192485807Y-111591585D01*
X192488384Y-111591983D01*
X192502178Y-111590500D01*
X194124218Y-111590500D01*
X194191257Y-111610185D01*
X194211899Y-111626819D01*
X194963181Y-112378101D01*
X194996666Y-112439424D01*
X194999500Y-112465782D01*
X194999500Y-123098541D01*
X194999500Y-123098543D01*
X194999499Y-123098543D01*
X195037947Y-123291829D01*
X195037950Y-123291839D01*
X195113364Y-123473907D01*
X195113371Y-123473920D01*
X195222860Y-123637781D01*
X195222863Y-123637785D01*
X195366537Y-123781459D01*
X195366559Y-123781479D01*
X200219735Y-128634655D01*
X200219764Y-128634686D01*
X200362214Y-128777136D01*
X200362218Y-128777139D01*
X200526079Y-128886628D01*
X200526092Y-128886635D01*
X200654833Y-128939961D01*
X200677100Y-128949184D01*
X200708164Y-128962051D01*
X200804812Y-128981275D01*
X200826067Y-128985503D01*
X200901458Y-129000500D01*
X200901459Y-129000500D01*
X213098542Y-129000500D01*
X213129566Y-128994328D01*
X213195188Y-128981275D01*
X213291836Y-128962051D01*
X213345165Y-128939961D01*
X213473914Y-128886632D01*
X213637782Y-128777139D01*
X213777139Y-128637782D01*
X213777140Y-128637779D01*
X213784206Y-128630714D01*
X213784209Y-128630710D01*
X215637778Y-126777141D01*
X215637782Y-126777139D01*
X215777139Y-126637782D01*
X215886632Y-126473914D01*
X215962051Y-126291835D01*
X216000500Y-126098541D01*
X216000500Y-117104675D01*
X216000501Y-117104654D01*
X216000501Y-116901457D01*
X216000500Y-116901455D01*
X215962053Y-116708172D01*
X215962052Y-116708165D01*
X215886632Y-116526086D01*
X215886631Y-116526085D01*
X215886628Y-116526079D01*
X215777140Y-116362219D01*
X215777137Y-116362215D01*
X213336819Y-113921897D01*
X213303334Y-113860574D01*
X213300500Y-113834216D01*
X213300500Y-107247951D01*
X213320185Y-107180912D01*
X213368205Y-107137466D01*
X213460228Y-107090579D01*
X213644937Y-106956379D01*
X213806379Y-106794937D01*
X213940579Y-106610228D01*
X214044231Y-106406799D01*
X214114784Y-106189660D01*
X214119130Y-106162218D01*
X214150500Y-105964162D01*
X214150500Y-105735837D01*
X214114784Y-105510339D01*
X214078777Y-105399523D01*
X214044231Y-105293201D01*
X214044229Y-105293198D01*
X214044229Y-105293196D01*
X213977297Y-105161835D01*
X213940579Y-105089772D01*
X213806379Y-104905063D01*
X213644937Y-104743621D01*
X213557807Y-104680317D01*
X213542376Y-104660305D01*
X213523919Y-104643048D01*
X213521404Y-104633107D01*
X213515143Y-104624988D01*
X213512980Y-104599810D01*
X213506783Y-104575313D01*
X213510041Y-104565590D01*
X213509164Y-104555374D01*
X213520956Y-104533024D01*
X213528987Y-104509065D01*
X213538967Y-104498889D01*
X213541770Y-104493579D01*
X213553092Y-104483285D01*
X213555415Y-104481420D01*
X213644937Y-104416379D01*
X213679288Y-104382027D01*
X213684576Y-104377785D01*
X213710865Y-104366960D01*
X213735820Y-104353334D01*
X213746835Y-104352149D01*
X213749183Y-104351183D01*
X213751644Y-104351632D01*
X213762178Y-104350500D01*
X216449005Y-104350500D01*
X216516044Y-104370185D01*
X216521890Y-104374182D01*
X216561846Y-104403211D01*
X216569087Y-104408472D01*
X216759053Y-104505264D01*
X216759055Y-104505265D01*
X216898519Y-104550579D01*
X216961821Y-104571147D01*
X217172399Y-104604500D01*
X217172400Y-104604500D01*
X218377600Y-104604500D01*
X218377601Y-104604500D01*
X218588179Y-104571147D01*
X218588182Y-104571146D01*
X218588183Y-104571146D01*
X218790944Y-104505265D01*
X218790944Y-104505264D01*
X218790947Y-104505264D01*
X218980913Y-104408472D01*
X219153397Y-104283154D01*
X219304154Y-104132397D01*
X219429472Y-103959913D01*
X219526264Y-103769947D01*
X219526265Y-103769944D01*
X219592146Y-103567183D01*
X219592146Y-103567182D01*
X219592147Y-103567179D01*
X219625500Y-103356601D01*
X219625500Y-103143399D01*
X219592147Y-102932821D01*
X219592146Y-102932817D01*
X219592146Y-102932816D01*
X219526265Y-102730055D01*
X219526263Y-102730052D01*
X219482896Y-102644938D01*
X219429472Y-102540087D01*
X219304154Y-102367603D01*
X219153397Y-102216846D01*
X218993010Y-102100317D01*
X218950346Y-102044987D01*
X218944367Y-101975374D01*
X218976973Y-101913579D01*
X218993011Y-101899682D01*
X219000580Y-101894183D01*
X219153397Y-101783154D01*
X219304154Y-101632397D01*
X219429472Y-101459913D01*
X219526264Y-101269947D01*
X219552166Y-101190228D01*
X219592146Y-101067183D01*
X219592146Y-101067182D01*
X219592147Y-101067179D01*
X219625500Y-100856601D01*
X219625500Y-100643399D01*
X219592147Y-100432821D01*
X219592146Y-100432817D01*
X219592146Y-100432816D01*
X219526265Y-100230055D01*
X219526263Y-100230052D01*
X219481030Y-100141275D01*
X219429472Y-100040087D01*
X219304154Y-99867603D01*
X219153397Y-99716846D01*
X218993010Y-99600317D01*
X218950346Y-99544987D01*
X218944367Y-99475374D01*
X218976973Y-99413579D01*
X218993011Y-99399682D01*
X219153397Y-99283154D01*
X219304154Y-99132397D01*
X219429472Y-98959913D01*
X219526264Y-98769947D01*
X219569207Y-98637782D01*
X219592147Y-98567180D01*
X219625500Y-98356600D01*
X219625500Y-98143399D01*
X219622298Y-98123181D01*
X219592147Y-97932821D01*
X219592146Y-97932817D01*
X219592146Y-97932816D01*
X219526265Y-97730055D01*
X219526263Y-97730052D01*
X219525380Y-97728318D01*
X219429472Y-97540087D01*
X219304154Y-97367603D01*
X219153397Y-97216846D01*
X218993010Y-97100317D01*
X218950346Y-97044987D01*
X218944367Y-96975374D01*
X218976973Y-96913579D01*
X218993011Y-96899682D01*
X219153397Y-96783154D01*
X219304154Y-96632397D01*
X219429472Y-96459913D01*
X219526264Y-96269947D01*
X219537089Y-96236632D01*
X219592146Y-96067183D01*
X219592146Y-96067182D01*
X219592147Y-96067179D01*
X219625500Y-95856601D01*
X219625500Y-95643399D01*
X219592147Y-95432821D01*
X219592146Y-95432817D01*
X219592146Y-95432816D01*
X219526265Y-95230055D01*
X219526263Y-95230052D01*
X219526057Y-95229646D01*
X219429472Y-95040087D01*
X219304154Y-94867603D01*
X219153397Y-94716846D01*
X218980913Y-94591528D01*
X218790947Y-94494736D01*
X218790944Y-94494734D01*
X218588181Y-94428853D01*
X218437965Y-94405061D01*
X218377601Y-94395500D01*
X217172399Y-94395500D01*
X217112035Y-94405061D01*
X216961819Y-94428853D01*
X216961816Y-94428853D01*
X216759055Y-94494734D01*
X216759052Y-94494736D01*
X216599592Y-94575985D01*
X216543297Y-94589500D01*
X213693319Y-94589500D01*
X213672899Y-94583504D01*
X213651649Y-94582289D01*
X213630176Y-94570959D01*
X213626280Y-94569815D01*
X213620433Y-94565818D01*
X213590621Y-94544158D01*
X213557807Y-94520317D01*
X213515143Y-94464988D01*
X213509164Y-94395374D01*
X213541770Y-94333579D01*
X213557807Y-94319683D01*
X213644937Y-94256379D01*
X213806379Y-94094937D01*
X213940579Y-93910228D01*
X214044231Y-93706799D01*
X214114784Y-93489660D01*
X214134243Y-93366803D01*
X214150500Y-93264162D01*
X214150500Y-93035837D01*
X214114784Y-92810339D01*
X214081768Y-92708727D01*
X214044231Y-92593201D01*
X214044229Y-92593198D01*
X214044229Y-92593196D01*
X213967493Y-92442594D01*
X213940579Y-92389772D01*
X213806379Y-92205063D01*
X213644937Y-92043621D01*
X213460228Y-91909421D01*
X213460227Y-91909420D01*
X213460225Y-91909419D01*
X213368204Y-91862531D01*
X213317409Y-91814556D01*
X213300500Y-91752047D01*
X213300500Y-90750000D01*
X215597099Y-90750000D01*
X215614520Y-90815015D01*
X215702507Y-91027435D01*
X215702509Y-91027439D01*
X215817473Y-91226560D01*
X215817479Y-91226569D01*
X215957441Y-91408972D01*
X215957447Y-91408979D01*
X216120020Y-91571552D01*
X216120027Y-91571558D01*
X216302430Y-91711520D01*
X216302439Y-91711526D01*
X216501560Y-91826490D01*
X216501564Y-91826492D01*
X216713975Y-91914476D01*
X216713985Y-91914479D01*
X216936074Y-91973987D01*
X216936087Y-91973990D01*
X217164036Y-92004000D01*
X217275000Y-92004000D01*
X218275000Y-92004000D01*
X218385964Y-92004000D01*
X218613912Y-91973990D01*
X218613925Y-91973987D01*
X218836014Y-91914479D01*
X218836024Y-91914476D01*
X219048435Y-91826492D01*
X219048439Y-91826490D01*
X219247560Y-91711526D01*
X219247569Y-91711520D01*
X219429972Y-91571558D01*
X219429979Y-91571552D01*
X219592552Y-91408979D01*
X219592558Y-91408972D01*
X219732520Y-91226569D01*
X219732526Y-91226560D01*
X219847490Y-91027439D01*
X219847492Y-91027435D01*
X219935479Y-90815015D01*
X219952901Y-90750000D01*
X218275000Y-90750000D01*
X218275000Y-92004000D01*
X217275000Y-92004000D01*
X217275000Y-90750000D01*
X215597099Y-90750000D01*
X213300500Y-90750000D01*
X213300500Y-80885837D01*
X215074500Y-80885837D01*
X215074500Y-81914162D01*
X215110215Y-82139660D01*
X215180770Y-82356803D01*
X215271993Y-82535837D01*
X215284421Y-82560228D01*
X215400819Y-82720434D01*
X215424298Y-82786238D01*
X215424500Y-82793318D01*
X215424500Y-83418924D01*
X215422973Y-83438323D01*
X215409500Y-83523384D01*
X215409500Y-83696610D01*
X215432520Y-83841957D01*
X215436598Y-83867701D01*
X215490127Y-84032445D01*
X215568768Y-84186788D01*
X215670586Y-84326928D01*
X215670588Y-84326930D01*
X216363181Y-85019523D01*
X216396666Y-85080846D01*
X216399500Y-85107204D01*
X216399500Y-86375232D01*
X216393431Y-86413551D01*
X216351598Y-86542298D01*
X216324500Y-86713389D01*
X216324500Y-86737587D01*
X216304815Y-86804626D01*
X216288181Y-86825268D01*
X216245848Y-86867600D01*
X216245847Y-86867601D01*
X216120528Y-87040086D01*
X216023736Y-87230052D01*
X216023734Y-87230055D01*
X215957853Y-87432816D01*
X215957853Y-87432819D01*
X215926673Y-87629682D01*
X215924500Y-87643399D01*
X215924500Y-87856601D01*
X215927010Y-87872447D01*
X215957853Y-88067180D01*
X215957853Y-88067183D01*
X216023734Y-88269944D01*
X216023736Y-88269947D01*
X216120528Y-88459913D01*
X216217800Y-88593796D01*
X216245847Y-88632398D01*
X216258747Y-88645298D01*
X216292232Y-88706621D01*
X216287248Y-88776313D01*
X216246553Y-88831355D01*
X216120020Y-88928447D01*
X215957447Y-89091020D01*
X215957441Y-89091027D01*
X215817479Y-89273430D01*
X215817473Y-89273439D01*
X215702509Y-89472560D01*
X215702507Y-89472564D01*
X215614520Y-89684984D01*
X215597099Y-89750000D01*
X217709174Y-89750000D01*
X217582007Y-89784075D01*
X217467993Y-89849901D01*
X217374901Y-89942993D01*
X217309075Y-90057007D01*
X217275000Y-90184174D01*
X217275000Y-90315826D01*
X217309075Y-90442993D01*
X217374901Y-90557007D01*
X217467993Y-90650099D01*
X217582007Y-90715925D01*
X217709174Y-90750000D01*
X217840826Y-90750000D01*
X217967993Y-90715925D01*
X218082007Y-90650099D01*
X218175099Y-90557007D01*
X218240925Y-90442993D01*
X218275000Y-90315826D01*
X218275000Y-90184174D01*
X218240925Y-90057007D01*
X218175099Y-89942993D01*
X218082007Y-89849901D01*
X217967993Y-89784075D01*
X217840826Y-89750000D01*
X219952900Y-89750000D01*
X219935479Y-89684984D01*
X219847492Y-89472564D01*
X219847490Y-89472560D01*
X219732526Y-89273439D01*
X219732520Y-89273430D01*
X219592558Y-89091027D01*
X219592552Y-89091020D01*
X219429979Y-88928447D01*
X219429972Y-88928441D01*
X219303447Y-88831356D01*
X219262244Y-88774929D01*
X219258089Y-88705183D01*
X219291252Y-88645298D01*
X219304154Y-88632397D01*
X219429472Y-88459913D01*
X219526264Y-88269947D01*
X219559736Y-88166930D01*
X219592146Y-88067183D01*
X219592146Y-88067182D01*
X219592147Y-88067179D01*
X219625500Y-87856601D01*
X219625500Y-87643399D01*
X219592147Y-87432821D01*
X219592146Y-87432817D01*
X219592146Y-87432816D01*
X219526265Y-87230055D01*
X219526263Y-87230052D01*
X219521258Y-87220228D01*
X219429472Y-87040087D01*
X219304154Y-86867603D01*
X219153397Y-86716846D01*
X218980913Y-86591528D01*
X218885579Y-86542953D01*
X218790944Y-86494734D01*
X218686182Y-86460695D01*
X218628506Y-86421257D01*
X218601308Y-86356899D01*
X218600500Y-86342764D01*
X218600500Y-84513389D01*
X218574715Y-84350588D01*
X218573402Y-84342299D01*
X218522873Y-84186788D01*
X218519873Y-84177554D01*
X218441232Y-84023212D01*
X218339414Y-83883072D01*
X217661819Y-83205477D01*
X217628334Y-83144154D01*
X217625500Y-83117796D01*
X217625500Y-82793318D01*
X217631496Y-82772896D01*
X217632712Y-82751647D01*
X217644039Y-82730179D01*
X217645185Y-82726279D01*
X217649183Y-82720432D01*
X217694683Y-82657808D01*
X217750013Y-82615142D01*
X217819626Y-82609164D01*
X217881421Y-82641771D01*
X217895315Y-82657804D01*
X217958621Y-82744937D01*
X218120063Y-82906379D01*
X218304772Y-83040579D01*
X218400884Y-83089550D01*
X218508196Y-83144229D01*
X218508198Y-83144229D01*
X218508201Y-83144231D01*
X218624592Y-83182049D01*
X218725339Y-83214784D01*
X218950838Y-83250500D01*
X218950843Y-83250500D01*
X219179162Y-83250500D01*
X219404660Y-83214784D01*
X219433304Y-83205477D01*
X219621799Y-83144231D01*
X219825228Y-83040579D01*
X220009937Y-82906379D01*
X220171379Y-82744937D01*
X220305579Y-82560228D01*
X220409231Y-82356799D01*
X220479784Y-82139660D01*
X220515500Y-81914162D01*
X220515500Y-80885837D01*
X220479784Y-80660339D01*
X220447049Y-80559592D01*
X220409231Y-80443201D01*
X220409229Y-80443198D01*
X220409229Y-80443196D01*
X220315791Y-80259815D01*
X220305579Y-80239772D01*
X220189181Y-80079566D01*
X220165702Y-80013761D01*
X220165500Y-80006681D01*
X220165500Y-77978389D01*
X220156791Y-77923402D01*
X220138402Y-77807299D01*
X220084873Y-77642554D01*
X220084871Y-77642551D01*
X220084871Y-77642549D01*
X220026413Y-77527819D01*
X220006232Y-77488212D01*
X219904414Y-77348072D01*
X219136819Y-76580477D01*
X219122115Y-76553549D01*
X219105523Y-76527731D01*
X219104631Y-76521530D01*
X219103334Y-76519154D01*
X219100500Y-76492796D01*
X219100500Y-76454500D01*
X219120185Y-76387461D01*
X219151612Y-76354183D01*
X219244937Y-76286379D01*
X219406379Y-76124937D01*
X219540579Y-75940228D01*
X219644231Y-75736799D01*
X219714784Y-75519660D01*
X219721065Y-75480006D01*
X219750500Y-75294162D01*
X219750500Y-75065837D01*
X219714784Y-74840339D01*
X219666046Y-74690340D01*
X219644231Y-74623201D01*
X219644229Y-74623198D01*
X219644229Y-74623196D01*
X219540578Y-74419771D01*
X219406379Y-74235063D01*
X219244937Y-74073621D01*
X219157807Y-74010317D01*
X219115143Y-73954988D01*
X219109164Y-73885374D01*
X219141770Y-73823579D01*
X219157807Y-73809683D01*
X219244937Y-73746379D01*
X219406379Y-73584937D01*
X219540579Y-73400228D01*
X219644231Y-73196799D01*
X219714784Y-72979660D01*
X219738542Y-72829660D01*
X219750500Y-72754162D01*
X219750500Y-72525837D01*
X219714784Y-72300339D01*
X219682049Y-72199592D01*
X219644231Y-72083201D01*
X219644229Y-72083198D01*
X219644229Y-72083196D01*
X219540578Y-71879771D01*
X219406379Y-71695063D01*
X219244937Y-71533621D01*
X219060228Y-71399421D01*
X219029209Y-71383616D01*
X218856803Y-71295770D01*
X218639660Y-71225215D01*
X218414162Y-71189500D01*
X218414157Y-71189500D01*
X217385843Y-71189500D01*
X217385838Y-71189500D01*
X217160339Y-71225215D01*
X216943196Y-71295770D01*
X216739771Y-71399421D01*
X216555061Y-71533622D01*
X216393622Y-71695061D01*
X216259421Y-71879771D01*
X216155770Y-72083196D01*
X216085215Y-72300339D01*
X216049500Y-72525837D01*
X216049500Y-72754162D01*
X216085215Y-72979660D01*
X216155770Y-73196803D01*
X216182992Y-73250228D01*
X216259421Y-73400228D01*
X216393621Y-73584937D01*
X216555063Y-73746379D01*
X216555069Y-73746383D01*
X216642191Y-73809683D01*
X216684857Y-73865013D01*
X216690835Y-73934627D01*
X216658228Y-73996421D01*
X216642191Y-74010317D01*
X216555069Y-74073616D01*
X216555060Y-74073623D01*
X216393622Y-74235061D01*
X216259421Y-74419771D01*
X216155770Y-74623196D01*
X216085215Y-74840339D01*
X216049500Y-75065837D01*
X216049500Y-75294162D01*
X216085215Y-75519660D01*
X216155770Y-75736803D01*
X216203322Y-75830128D01*
X216259421Y-75940228D01*
X216393621Y-76124937D01*
X216555063Y-76286379D01*
X216614305Y-76329421D01*
X216739773Y-76420580D01*
X216798827Y-76450669D01*
X216831794Y-76467466D01*
X216882590Y-76515440D01*
X216899500Y-76577951D01*
X216899500Y-76913389D01*
X216899500Y-77086611D01*
X216926598Y-77257701D01*
X216980127Y-77422445D01*
X217058768Y-77576788D01*
X217160586Y-77716928D01*
X217160588Y-77716930D01*
X217928181Y-78484523D01*
X217961666Y-78545846D01*
X217964500Y-78572204D01*
X217964500Y-80006681D01*
X217958503Y-80027102D01*
X217957288Y-80048352D01*
X217945960Y-80069819D01*
X217944815Y-80073720D01*
X217940817Y-80079567D01*
X217895317Y-80142191D01*
X217839987Y-80184857D01*
X217770374Y-80190835D01*
X217708579Y-80158228D01*
X217694683Y-80142191D01*
X217638608Y-80065013D01*
X217631379Y-80055063D01*
X217469937Y-79893621D01*
X217285228Y-79759421D01*
X217081803Y-79655770D01*
X216864660Y-79585215D01*
X216639162Y-79549500D01*
X216639157Y-79549500D01*
X216410843Y-79549500D01*
X216410838Y-79549500D01*
X216185339Y-79585215D01*
X215968196Y-79655770D01*
X215764771Y-79759421D01*
X215580061Y-79893622D01*
X215418622Y-80055061D01*
X215284421Y-80239771D01*
X215180770Y-80443196D01*
X215110215Y-80660339D01*
X215074500Y-80885837D01*
X213300500Y-80885837D01*
X213300500Y-68060000D01*
X215718714Y-68060000D01*
X215744421Y-68155939D01*
X215837220Y-68379978D01*
X215837227Y-68379993D01*
X215958480Y-68590009D01*
X216106110Y-68782405D01*
X216106116Y-68782412D01*
X216277587Y-68953883D01*
X216277594Y-68953889D01*
X216469990Y-69101519D01*
X216680006Y-69222772D01*
X216680021Y-69222779D01*
X216904060Y-69315578D01*
X217138312Y-69378346D01*
X217378735Y-69409998D01*
X217378752Y-69410000D01*
X217400000Y-69410000D01*
X218400000Y-69410000D01*
X218421248Y-69410000D01*
X218421264Y-69409998D01*
X218661687Y-69378346D01*
X218895939Y-69315578D01*
X219119978Y-69222779D01*
X219119993Y-69222772D01*
X219330009Y-69101519D01*
X219522405Y-68953889D01*
X219522412Y-68953883D01*
X219693883Y-68782412D01*
X219693889Y-68782405D01*
X219841519Y-68590009D01*
X219962772Y-68379993D01*
X219962779Y-68379978D01*
X220055578Y-68155939D01*
X220081286Y-68060000D01*
X218400000Y-68060000D01*
X218400000Y-69410000D01*
X217400000Y-69410000D01*
X217400000Y-68060000D01*
X215718714Y-68060000D01*
X213300500Y-68060000D01*
X213300500Y-67494174D01*
X217400000Y-67494174D01*
X217400000Y-67625826D01*
X217434075Y-67752993D01*
X217499901Y-67867007D01*
X217592993Y-67960099D01*
X217707007Y-68025925D01*
X217834174Y-68060000D01*
X217965826Y-68060000D01*
X218092993Y-68025925D01*
X218207007Y-67960099D01*
X218300099Y-67867007D01*
X218365925Y-67752993D01*
X218400000Y-67625826D01*
X218400000Y-67494174D01*
X218365925Y-67367007D01*
X218300099Y-67252993D01*
X218207007Y-67159901D01*
X218092993Y-67094075D01*
X217965826Y-67060000D01*
X218400000Y-67060000D01*
X220081286Y-67060000D01*
X220081285Y-67059999D01*
X220055578Y-66964060D01*
X219962779Y-66740021D01*
X219962772Y-66740006D01*
X219841519Y-66529990D01*
X219715291Y-66365486D01*
X219690097Y-66300317D01*
X219704135Y-66231872D01*
X219715291Y-66214514D01*
X219841519Y-66050009D01*
X219962772Y-65839993D01*
X219962779Y-65839978D01*
X220055578Y-65615939D01*
X220081286Y-65520000D01*
X218400000Y-65520000D01*
X218400000Y-67060000D01*
X217965826Y-67060000D01*
X217834174Y-67060000D01*
X217707007Y-67094075D01*
X217592993Y-67159901D01*
X217499901Y-67252993D01*
X217434075Y-67367007D01*
X217400000Y-67494174D01*
X213300500Y-67494174D01*
X213300500Y-67059999D01*
X215718714Y-67059999D01*
X215718714Y-67060000D01*
X217400000Y-67060000D01*
X217400000Y-65520000D01*
X215718714Y-65520000D01*
X215744421Y-65615939D01*
X215837220Y-65839978D01*
X215837227Y-65839993D01*
X215958480Y-66050009D01*
X216084708Y-66214514D01*
X216109902Y-66279683D01*
X216095863Y-66348128D01*
X216084708Y-66365486D01*
X215958480Y-66529990D01*
X215837227Y-66740006D01*
X215837220Y-66740021D01*
X215744421Y-66964060D01*
X215718714Y-67059999D01*
X213300500Y-67059999D01*
X213300500Y-65465782D01*
X213320185Y-65398743D01*
X213336819Y-65378101D01*
X213760746Y-64954174D01*
X217400000Y-64954174D01*
X217400000Y-65085826D01*
X217434075Y-65212993D01*
X217499901Y-65327007D01*
X217592993Y-65420099D01*
X217707007Y-65485925D01*
X217834174Y-65520000D01*
X217965826Y-65520000D01*
X218092993Y-65485925D01*
X218207007Y-65420099D01*
X218300099Y-65327007D01*
X218365925Y-65212993D01*
X218400000Y-65085826D01*
X218400000Y-64954174D01*
X218365925Y-64827007D01*
X218300099Y-64712993D01*
X218207007Y-64619901D01*
X218092993Y-64554075D01*
X217965826Y-64520000D01*
X218400000Y-64520000D01*
X220081286Y-64520000D01*
X220081285Y-64519999D01*
X220055578Y-64424060D01*
X219962779Y-64200021D01*
X219962772Y-64200006D01*
X219841519Y-63989990D01*
X219693889Y-63797594D01*
X219693883Y-63797587D01*
X219522412Y-63626116D01*
X219522405Y-63626110D01*
X219330009Y-63478480D01*
X219119993Y-63357227D01*
X219119978Y-63357220D01*
X218895939Y-63264421D01*
X218661687Y-63201653D01*
X218421264Y-63170001D01*
X218421248Y-63170000D01*
X218400000Y-63170000D01*
X218400000Y-64520000D01*
X217965826Y-64520000D01*
X217834174Y-64520000D01*
X217707007Y-64554075D01*
X217592993Y-64619901D01*
X217499901Y-64712993D01*
X217434075Y-64827007D01*
X217400000Y-64954174D01*
X213760746Y-64954174D01*
X214194922Y-64519999D01*
X215718714Y-64519999D01*
X215718714Y-64520000D01*
X217400000Y-64520000D01*
X217400000Y-63170000D01*
X217378752Y-63170000D01*
X217378735Y-63170001D01*
X217138312Y-63201653D01*
X216904060Y-63264421D01*
X216680021Y-63357220D01*
X216680006Y-63357227D01*
X216469990Y-63478480D01*
X216277594Y-63626110D01*
X216277587Y-63626116D01*
X216106116Y-63797587D01*
X216106110Y-63797594D01*
X215958480Y-63989990D01*
X215837227Y-64200006D01*
X215837220Y-64200021D01*
X215744421Y-64424060D01*
X215718714Y-64519999D01*
X214194922Y-64519999D01*
X214255629Y-64459292D01*
X215777137Y-62937784D01*
X215777137Y-62937783D01*
X215777140Y-62937781D01*
X215886632Y-62773914D01*
X215962052Y-62591835D01*
X216000501Y-62398540D01*
X216000501Y-62201459D01*
X216000501Y-62196349D01*
X216000500Y-62196323D01*
X216000500Y-52401456D01*
X215962052Y-52208170D01*
X215962051Y-52208169D01*
X215962051Y-52208165D01*
X215962049Y-52208160D01*
X215886635Y-52026092D01*
X215886628Y-52026079D01*
X215777140Y-51862219D01*
X215777139Y-51862218D01*
X215637782Y-51722861D01*
X215637781Y-51722860D01*
X210846411Y-46931491D01*
X214499500Y-46931491D01*
X214499500Y-47268508D01*
X214537231Y-47603381D01*
X214537233Y-47603397D01*
X214612223Y-47931953D01*
X214612227Y-47931965D01*
X214723532Y-48250054D01*
X214869752Y-48553683D01*
X214900931Y-48603304D01*
X215049054Y-48839039D01*
X215259175Y-49102523D01*
X215497477Y-49340825D01*
X215760961Y-49550946D01*
X216046314Y-49730246D01*
X216349949Y-49876469D01*
X216588848Y-49960063D01*
X216668034Y-49987772D01*
X216668046Y-49987776D01*
X216996606Y-50062767D01*
X217331492Y-50100499D01*
X217331493Y-50100500D01*
X217331496Y-50100500D01*
X217668507Y-50100500D01*
X217668507Y-50100499D01*
X218003394Y-50062767D01*
X218331954Y-49987776D01*
X218650051Y-49876469D01*
X218953686Y-49730246D01*
X219239039Y-49550946D01*
X219502523Y-49340825D01*
X219740825Y-49102523D01*
X219950946Y-48839039D01*
X220130246Y-48553686D01*
X220276469Y-48250051D01*
X220387776Y-47931954D01*
X220462767Y-47603394D01*
X220500500Y-47268504D01*
X220500500Y-46931496D01*
X220462767Y-46596606D01*
X220387776Y-46268046D01*
X220276469Y-45949949D01*
X220130246Y-45646314D01*
X219950946Y-45360961D01*
X219740825Y-45097477D01*
X219502523Y-44859175D01*
X219239039Y-44649054D01*
X218953686Y-44469754D01*
X218953683Y-44469752D01*
X218650054Y-44323532D01*
X218331965Y-44212227D01*
X218331953Y-44212223D01*
X218003397Y-44137233D01*
X218003381Y-44137231D01*
X217668508Y-44099500D01*
X217668504Y-44099500D01*
X217331496Y-44099500D01*
X217331491Y-44099500D01*
X216996618Y-44137231D01*
X216996602Y-44137233D01*
X216668046Y-44212223D01*
X216668034Y-44212227D01*
X216349945Y-44323532D01*
X216046316Y-44469752D01*
X215760962Y-44649053D01*
X215497477Y-44859174D01*
X215259174Y-45097477D01*
X215049053Y-45360962D01*
X214869752Y-45646316D01*
X214723532Y-45949945D01*
X214612227Y-46268034D01*
X214612223Y-46268046D01*
X214537233Y-46596602D01*
X214537231Y-46596618D01*
X214499500Y-46931491D01*
X210846411Y-46931491D01*
X210372202Y-46457282D01*
X205284209Y-41369289D01*
X205284206Y-41369285D01*
X205284206Y-41369286D01*
X205277139Y-41362219D01*
X205277139Y-41362218D01*
X205137782Y-41222861D01*
X205137781Y-41222860D01*
X205137780Y-41222859D01*
X204973920Y-41113371D01*
X204973907Y-41113364D01*
X204842251Y-41058831D01*
X204842245Y-41058829D01*
X204834888Y-41055782D01*
X204791836Y-41037949D01*
X204695188Y-41018724D01*
X204691054Y-41017901D01*
X204691044Y-41017899D01*
X204598544Y-40999500D01*
X204598541Y-40999500D01*
X190401459Y-40999500D01*
X190401455Y-40999500D01*
X190308955Y-41017899D01*
X190308942Y-41017902D01*
X190304812Y-41018724D01*
X190208164Y-41037949D01*
X190165112Y-41055782D01*
X190157758Y-41058827D01*
X190157747Y-41058831D01*
X190026092Y-41113364D01*
X190026079Y-41113371D01*
X189862219Y-41222859D01*
X189808987Y-41276092D01*
X189722861Y-41362218D01*
X189722858Y-41362221D01*
X177462221Y-53622858D01*
X177462218Y-53622861D01*
X177392538Y-53692540D01*
X177322859Y-53762219D01*
X177213371Y-53926080D01*
X177213364Y-53926093D01*
X177171735Y-54026598D01*
X177171735Y-54026599D01*
X177149563Y-54080126D01*
X177137950Y-54108161D01*
X177137947Y-54108169D01*
X177099500Y-54301456D01*
X177099500Y-67934218D01*
X177079815Y-68001257D01*
X177063181Y-68021899D01*
X176171899Y-68913181D01*
X176110576Y-68946666D01*
X176084218Y-68949500D01*
X172502178Y-68949500D01*
X172477419Y-68942229D01*
X172451841Y-68938823D01*
X172441399Y-68931653D01*
X172435139Y-68929815D01*
X172421953Y-68920052D01*
X172418092Y-68916776D01*
X172344937Y-68843621D01*
X172254023Y-68777568D01*
X172250469Y-68774552D01*
X172233737Y-68749101D01*
X172215143Y-68724988D01*
X172214731Y-68720192D01*
X172212086Y-68716169D01*
X172211769Y-68685709D01*
X172209164Y-68655374D01*
X172211410Y-68651117D01*
X172211360Y-68646303D01*
X172227558Y-68620513D01*
X172241770Y-68593579D01*
X172247705Y-68588435D01*
X172248522Y-68587136D01*
X172250013Y-68586436D01*
X172257807Y-68579683D01*
X172344937Y-68516379D01*
X172506379Y-68354937D01*
X172640579Y-68170228D01*
X172744231Y-67966799D01*
X172814784Y-67749660D01*
X172821430Y-67707697D01*
X172850500Y-67524162D01*
X172850500Y-67295837D01*
X172814784Y-67070339D01*
X172744229Y-66853196D01*
X172640578Y-66649771D01*
X172597156Y-66590006D01*
X172506379Y-66465063D01*
X172344937Y-66303621D01*
X172257807Y-66240317D01*
X172215143Y-66184988D01*
X172209164Y-66115374D01*
X172241770Y-66053579D01*
X172257807Y-66039683D01*
X172344937Y-65976379D01*
X172506379Y-65814937D01*
X172640579Y-65630228D01*
X172744231Y-65426799D01*
X172814784Y-65209660D01*
X172850500Y-64984162D01*
X172850500Y-64755837D01*
X172814784Y-64530339D01*
X172760867Y-64364402D01*
X172744231Y-64313201D01*
X172744229Y-64313198D01*
X172744229Y-64313196D01*
X172640578Y-64109771D01*
X172636447Y-64104085D01*
X172506379Y-63925063D01*
X172344937Y-63763621D01*
X172160228Y-63629421D01*
X172153730Y-63626110D01*
X171956803Y-63525770D01*
X171739660Y-63455215D01*
X171514162Y-63419500D01*
X171514157Y-63419500D01*
X170485843Y-63419500D01*
X170485838Y-63419500D01*
X170260339Y-63455215D01*
X170043196Y-63525770D01*
X169839771Y-63629421D01*
X169655061Y-63763622D01*
X169493622Y-63925061D01*
X169359421Y-64109771D01*
X169255770Y-64313196D01*
X169185215Y-64530339D01*
X169149500Y-64755837D01*
X169149500Y-64984162D01*
X169185215Y-65209660D01*
X169255770Y-65426803D01*
X169303257Y-65520000D01*
X169359421Y-65630228D01*
X169493621Y-65814937D01*
X169655063Y-65976379D01*
X169655069Y-65976383D01*
X169742191Y-66039683D01*
X169784857Y-66095013D01*
X169790835Y-66164627D01*
X169758228Y-66226421D01*
X169742191Y-66240317D01*
X169655069Y-66303616D01*
X169655060Y-66303623D01*
X169493622Y-66465061D01*
X169359421Y-66649771D01*
X169255770Y-66853196D01*
X169185215Y-67070339D01*
X169149500Y-67295837D01*
X169149500Y-67524162D01*
X169185215Y-67749660D01*
X169255770Y-67966803D01*
X169303257Y-68060000D01*
X169359421Y-68170228D01*
X169493621Y-68354937D01*
X169655063Y-68516379D01*
X169655069Y-68516383D01*
X169742191Y-68579683D01*
X169784857Y-68635013D01*
X169790835Y-68704627D01*
X169758228Y-68766421D01*
X169742191Y-68780317D01*
X169655069Y-68843616D01*
X169655060Y-68843623D01*
X169493622Y-69005061D01*
X169359421Y-69189771D01*
X169255770Y-69393196D01*
X169185215Y-69610339D01*
X169149500Y-69835837D01*
X169149500Y-70064162D01*
X169185215Y-70289660D01*
X169255770Y-70506803D01*
X169359421Y-70710228D01*
X169493621Y-70894937D01*
X169655063Y-71056379D01*
X169656898Y-71057712D01*
X169742191Y-71119683D01*
X169784857Y-71175013D01*
X169790835Y-71244627D01*
X169758228Y-71306421D01*
X169742191Y-71320317D01*
X169655069Y-71383616D01*
X169655060Y-71383623D01*
X169493622Y-71545061D01*
X169359421Y-71729771D01*
X169255770Y-71933198D01*
X169185215Y-72150342D01*
X169171174Y-72238992D01*
X169141244Y-72302127D01*
X169136382Y-72307274D01*
X165730477Y-75713181D01*
X165669154Y-75746666D01*
X165642796Y-75749500D01*
X160936611Y-75749500D01*
X160763389Y-75749500D01*
X160723728Y-75755781D01*
X160592302Y-75776597D01*
X160427552Y-75830128D01*
X160273211Y-75908768D01*
X160229911Y-75940228D01*
X160133072Y-76010586D01*
X160133070Y-76010588D01*
X160133069Y-76010588D01*
X158440477Y-77703181D01*
X158379154Y-77736666D01*
X158352796Y-77739500D01*
X106876158Y-77739500D01*
X106809119Y-77719815D01*
X106763364Y-77667011D01*
X106753420Y-77597853D01*
X106782445Y-77534297D01*
X106788477Y-77527819D01*
X106793883Y-77522412D01*
X106793889Y-77522405D01*
X106941519Y-77330009D01*
X107062772Y-77119993D01*
X107062779Y-77119978D01*
X107155578Y-76895939D01*
X107181286Y-76800000D01*
X105065826Y-76800000D01*
X105192993Y-76765925D01*
X105307007Y-76700099D01*
X105400099Y-76607007D01*
X105465925Y-76492993D01*
X105500000Y-76365826D01*
X105500000Y-76234174D01*
X105465925Y-76107007D01*
X105400099Y-75992993D01*
X105307007Y-75899901D01*
X105192993Y-75834075D01*
X105065826Y-75800000D01*
X105500000Y-75800000D01*
X107181286Y-75800000D01*
X107181285Y-75799999D01*
X107155578Y-75704060D01*
X107062779Y-75480021D01*
X107062772Y-75480006D01*
X106941519Y-75269990D01*
X106793889Y-75077594D01*
X106793883Y-75077587D01*
X106622412Y-74906116D01*
X106622405Y-74906110D01*
X106430009Y-74758480D01*
X106219993Y-74637227D01*
X106219978Y-74637220D01*
X105995939Y-74544421D01*
X105761687Y-74481653D01*
X105521264Y-74450001D01*
X105521248Y-74450000D01*
X105500000Y-74450000D01*
X105500000Y-75800000D01*
X105065826Y-75800000D01*
X104934174Y-75800000D01*
X104807007Y-75834075D01*
X104692993Y-75899901D01*
X104599901Y-75992993D01*
X104534075Y-76107007D01*
X104500000Y-76234174D01*
X104500000Y-76365826D01*
X104534075Y-76492993D01*
X104599901Y-76607007D01*
X104692993Y-76700099D01*
X104807007Y-76765925D01*
X104934174Y-76800000D01*
X102818714Y-76800000D01*
X102844421Y-76895939D01*
X102937220Y-77119978D01*
X102937227Y-77119993D01*
X103058480Y-77330009D01*
X103206110Y-77522405D01*
X103206116Y-77522412D01*
X103211523Y-77527819D01*
X103245008Y-77589142D01*
X103240024Y-77658834D01*
X103198152Y-77714767D01*
X103132688Y-77739184D01*
X103123842Y-77739500D01*
X95876158Y-77739500D01*
X95809119Y-77719815D01*
X95763364Y-77667011D01*
X95753420Y-77597853D01*
X95782445Y-77534297D01*
X95788477Y-77527819D01*
X95793883Y-77522412D01*
X95793889Y-77522405D01*
X95941519Y-77330009D01*
X96062772Y-77119993D01*
X96062779Y-77119978D01*
X96155578Y-76895939D01*
X96181286Y-76800000D01*
X94065826Y-76800000D01*
X94192993Y-76765925D01*
X94307007Y-76700099D01*
X94400099Y-76607007D01*
X94465925Y-76492993D01*
X94500000Y-76365826D01*
X94500000Y-76234174D01*
X94465925Y-76107007D01*
X94400099Y-75992993D01*
X94307007Y-75899901D01*
X94192993Y-75834075D01*
X94065826Y-75800000D01*
X94500000Y-75800000D01*
X96181286Y-75800000D01*
X96181285Y-75799999D01*
X102818714Y-75799999D01*
X102818714Y-75800000D01*
X104500000Y-75800000D01*
X104500000Y-74450000D01*
X104478752Y-74450000D01*
X104478735Y-74450001D01*
X104238312Y-74481653D01*
X104004060Y-74544421D01*
X103780021Y-74637220D01*
X103780006Y-74637227D01*
X103569990Y-74758480D01*
X103377594Y-74906110D01*
X103377587Y-74906116D01*
X103206116Y-75077587D01*
X103206110Y-75077594D01*
X103058480Y-75269990D01*
X102937227Y-75480006D01*
X102937220Y-75480021D01*
X102844421Y-75704060D01*
X102818714Y-75799999D01*
X96181285Y-75799999D01*
X96155578Y-75704060D01*
X96062779Y-75480021D01*
X96062772Y-75480006D01*
X95941519Y-75269990D01*
X95793889Y-75077594D01*
X95793883Y-75077587D01*
X95622412Y-74906116D01*
X95622405Y-74906110D01*
X95430009Y-74758480D01*
X95219993Y-74637227D01*
X95219978Y-74637220D01*
X94995939Y-74544421D01*
X94761687Y-74481653D01*
X94521264Y-74450001D01*
X94521248Y-74450000D01*
X94500000Y-74450000D01*
X94500000Y-75800000D01*
X94065826Y-75800000D01*
X93934174Y-75800000D01*
X93807007Y-75834075D01*
X93692993Y-75899901D01*
X93599901Y-75992993D01*
X93534075Y-76107007D01*
X93500000Y-76234174D01*
X93500000Y-76365826D01*
X93534075Y-76492993D01*
X93599901Y-76607007D01*
X93692993Y-76700099D01*
X93807007Y-76765925D01*
X93934174Y-76800000D01*
X91818714Y-76800000D01*
X91844421Y-76895939D01*
X91937220Y-77119978D01*
X91937227Y-77119993D01*
X92058480Y-77330009D01*
X92206110Y-77522405D01*
X92206116Y-77522412D01*
X92211523Y-77527819D01*
X92245008Y-77589142D01*
X92240024Y-77658834D01*
X92198152Y-77714767D01*
X92132688Y-77739184D01*
X92123842Y-77739500D01*
X84876158Y-77739500D01*
X84809119Y-77719815D01*
X84763364Y-77667011D01*
X84753420Y-77597853D01*
X84782445Y-77534297D01*
X84788477Y-77527819D01*
X84793883Y-77522412D01*
X84793889Y-77522405D01*
X84941519Y-77330009D01*
X85062772Y-77119993D01*
X85062779Y-77119978D01*
X85155578Y-76895939D01*
X85181286Y-76800000D01*
X83065826Y-76800000D01*
X83192993Y-76765925D01*
X83307007Y-76700099D01*
X83400099Y-76607007D01*
X83465925Y-76492993D01*
X83500000Y-76365826D01*
X83500000Y-76234174D01*
X83465925Y-76107007D01*
X83400099Y-75992993D01*
X83307007Y-75899901D01*
X83192993Y-75834075D01*
X83065826Y-75800000D01*
X83500000Y-75800000D01*
X85181286Y-75800000D01*
X85181285Y-75799999D01*
X91818714Y-75799999D01*
X91818714Y-75800000D01*
X93500000Y-75800000D01*
X93500000Y-74450000D01*
X93478752Y-74450000D01*
X93478735Y-74450001D01*
X93238312Y-74481653D01*
X93004060Y-74544421D01*
X92780021Y-74637220D01*
X92780006Y-74637227D01*
X92569990Y-74758480D01*
X92377594Y-74906110D01*
X92377587Y-74906116D01*
X92206116Y-75077587D01*
X92206110Y-75077594D01*
X92058480Y-75269990D01*
X91937227Y-75480006D01*
X91937220Y-75480021D01*
X91844421Y-75704060D01*
X91818714Y-75799999D01*
X85181285Y-75799999D01*
X85155578Y-75704060D01*
X85062779Y-75480021D01*
X85062772Y-75480006D01*
X84941519Y-75269990D01*
X84793889Y-75077594D01*
X84793883Y-75077587D01*
X84622412Y-74906116D01*
X84622405Y-74906110D01*
X84430009Y-74758480D01*
X84219993Y-74637227D01*
X84219978Y-74637220D01*
X83995939Y-74544421D01*
X83761687Y-74481653D01*
X83521264Y-74450001D01*
X83521248Y-74450000D01*
X83500000Y-74450000D01*
X83500000Y-75800000D01*
X83065826Y-75800000D01*
X82934174Y-75800000D01*
X82807007Y-75834075D01*
X82692993Y-75899901D01*
X82599901Y-75992993D01*
X82534075Y-76107007D01*
X82500000Y-76234174D01*
X82500000Y-76365826D01*
X82534075Y-76492993D01*
X82599901Y-76607007D01*
X82692993Y-76700099D01*
X82807007Y-76765925D01*
X82934174Y-76800000D01*
X80818714Y-76800000D01*
X80844421Y-76895939D01*
X80937220Y-77119978D01*
X80937227Y-77119993D01*
X81058480Y-77330009D01*
X81206110Y-77522405D01*
X81206116Y-77522412D01*
X81377587Y-77693883D01*
X81377592Y-77693887D01*
X81450099Y-77749523D01*
X81491303Y-77805951D01*
X81495458Y-77875697D01*
X81474932Y-77920786D01*
X81359421Y-78079771D01*
X81255770Y-78283196D01*
X81185215Y-78500339D01*
X81149500Y-78725837D01*
X81149500Y-78954162D01*
X81185215Y-79179660D01*
X81255770Y-79396803D01*
X81351772Y-79585216D01*
X81359421Y-79600228D01*
X81493621Y-79784937D01*
X81655063Y-79946379D01*
X81655069Y-79946383D01*
X81742191Y-80009683D01*
X81784857Y-80065013D01*
X81790835Y-80134627D01*
X81758228Y-80196421D01*
X81742191Y-80210317D01*
X81655069Y-80273616D01*
X81655060Y-80273623D01*
X81493622Y-80435061D01*
X81359421Y-80619771D01*
X81255770Y-80823196D01*
X81185215Y-81040339D01*
X81149500Y-81265837D01*
X81149500Y-81494162D01*
X81185215Y-81719660D01*
X81255770Y-81936803D01*
X81359132Y-82139660D01*
X81359421Y-82140228D01*
X81493621Y-82324937D01*
X81655063Y-82486379D01*
X81655069Y-82486383D01*
X81742191Y-82549683D01*
X81784857Y-82605013D01*
X81790835Y-82674627D01*
X81758228Y-82736421D01*
X81742191Y-82750317D01*
X81655069Y-82813616D01*
X81655060Y-82813623D01*
X81493622Y-82975061D01*
X81359421Y-83159771D01*
X81255770Y-83363196D01*
X81185215Y-83580339D01*
X81149500Y-83805837D01*
X81149500Y-84034162D01*
X81185215Y-84259660D01*
X81255770Y-84476803D01*
X81359421Y-84680228D01*
X81493621Y-84864937D01*
X81655063Y-85026379D01*
X81655069Y-85026383D01*
X81742191Y-85089683D01*
X81784857Y-85145013D01*
X81790835Y-85214627D01*
X81758228Y-85276421D01*
X81742191Y-85290317D01*
X81655069Y-85353616D01*
X81655060Y-85353623D01*
X81493622Y-85515061D01*
X81359421Y-85699771D01*
X81255770Y-85903196D01*
X81185215Y-86120339D01*
X81149500Y-86345837D01*
X81149500Y-86574162D01*
X81185215Y-86799660D01*
X81255770Y-87016803D01*
X81359421Y-87220228D01*
X81493621Y-87404937D01*
X81655063Y-87566379D01*
X81655069Y-87566383D01*
X81742191Y-87629683D01*
X81784857Y-87685013D01*
X81790835Y-87754627D01*
X81758228Y-87816421D01*
X81742191Y-87830317D01*
X81655069Y-87893616D01*
X81655060Y-87893623D01*
X81493622Y-88055061D01*
X81359421Y-88239771D01*
X81255770Y-88443196D01*
X81185215Y-88660339D01*
X81149500Y-88885837D01*
X81149500Y-89114162D01*
X81185215Y-89339660D01*
X81255770Y-89556803D01*
X81354210Y-89750000D01*
X81359421Y-89760228D01*
X81493621Y-89944937D01*
X81655063Y-90106379D01*
X81655069Y-90106383D01*
X81742191Y-90169683D01*
X81784857Y-90225013D01*
X81790835Y-90294627D01*
X81758228Y-90356421D01*
X81742191Y-90370317D01*
X81655069Y-90433616D01*
X81655060Y-90433623D01*
X81493622Y-90595061D01*
X81359421Y-90779771D01*
X81255770Y-90983196D01*
X81185215Y-91200339D01*
X81149500Y-91425837D01*
X81149500Y-91654162D01*
X81185215Y-91879660D01*
X81255770Y-92096803D01*
X81359421Y-92300228D01*
X81493621Y-92484937D01*
X81655063Y-92646379D01*
X81655069Y-92646383D01*
X81742191Y-92709683D01*
X81784857Y-92765013D01*
X81790835Y-92834627D01*
X81758228Y-92896421D01*
X81742191Y-92910317D01*
X81655069Y-92973616D01*
X81655060Y-92973623D01*
X81493622Y-93135061D01*
X81359421Y-93319771D01*
X81255770Y-93523196D01*
X81185215Y-93740339D01*
X81149500Y-93965837D01*
X81149500Y-94194162D01*
X81185215Y-94419660D01*
X81255770Y-94636803D01*
X81355288Y-94832116D01*
X81359421Y-94840228D01*
X81493621Y-95024937D01*
X81655063Y-95186379D01*
X81673883Y-95200053D01*
X81742191Y-95249683D01*
X81759367Y-95271957D01*
X81778974Y-95292132D01*
X81780417Y-95299255D01*
X81784857Y-95305013D01*
X81787264Y-95333043D01*
X81792850Y-95360610D01*
X81790212Y-95367383D01*
X81790835Y-95374627D01*
X81777707Y-95399505D01*
X81767502Y-95425719D01*
X81760057Y-95432953D01*
X81758228Y-95436421D01*
X81742191Y-95450317D01*
X81679567Y-95495817D01*
X81613761Y-95519298D01*
X81606681Y-95519500D01*
X79698258Y-95519500D01*
X79631219Y-95499815D01*
X79622783Y-95493884D01*
X79559757Y-95445523D01*
X79559753Y-95445521D01*
X79559751Y-95445519D01*
X79445751Y-95379701D01*
X79445750Y-95379700D01*
X79445076Y-95379421D01*
X79299711Y-95319208D01*
X79299710Y-95319207D01*
X79299706Y-95319206D01*
X79299704Y-95319205D01*
X79176129Y-95286092D01*
X79174211Y-95285516D01*
X79172541Y-95285132D01*
X79015833Y-95264500D01*
X79015826Y-95264500D01*
X78450000Y-95264500D01*
X78449992Y-95264500D01*
X78293285Y-95285132D01*
X78293284Y-95285132D01*
X78147252Y-95345620D01*
X78021847Y-95441847D01*
X77925620Y-95567252D01*
X77865132Y-95713284D01*
X77865132Y-95713285D01*
X77844500Y-95869992D01*
X77844500Y-97370007D01*
X77865132Y-97526714D01*
X77865133Y-97526718D01*
X77909176Y-97633048D01*
X77916645Y-97702517D01*
X77885370Y-97764996D01*
X77825281Y-97800648D01*
X77794615Y-97804500D01*
X77584170Y-97804500D01*
X77427463Y-97825132D01*
X77427456Y-97825133D01*
X77300288Y-97859208D01*
X77154252Y-97919699D01*
X77079041Y-97963123D01*
X77040243Y-97985523D01*
X77040240Y-97985524D01*
X77040235Y-97985528D01*
X76914841Y-98081746D01*
X76914835Y-98081751D01*
X76873408Y-98123180D01*
X76846479Y-98137884D01*
X76820661Y-98154477D01*
X76814461Y-98155368D01*
X76812085Y-98156666D01*
X76785726Y-98159500D01*
X76625783Y-98159500D01*
X76558744Y-98139815D01*
X76538102Y-98123181D01*
X76036819Y-97621898D01*
X76003334Y-97560575D01*
X76000500Y-97534217D01*
X76000500Y-77565782D01*
X76020185Y-77498743D01*
X76036819Y-77478101D01*
X77714921Y-75799999D01*
X80818714Y-75799999D01*
X80818714Y-75800000D01*
X82500000Y-75800000D01*
X82500000Y-74450000D01*
X82478752Y-74450000D01*
X82478735Y-74450001D01*
X82238312Y-74481653D01*
X82004060Y-74544421D01*
X81780021Y-74637220D01*
X81780006Y-74637227D01*
X81569990Y-74758480D01*
X81377594Y-74906110D01*
X81377587Y-74906116D01*
X81206116Y-75077587D01*
X81206110Y-75077594D01*
X81058480Y-75269990D01*
X80937227Y-75480006D01*
X80937220Y-75480021D01*
X80844421Y-75704060D01*
X80818714Y-75799999D01*
X77714921Y-75799999D01*
X77775628Y-75739292D01*
X78970500Y-74544421D01*
X81787384Y-71727537D01*
X81848707Y-71694052D01*
X81875065Y-71691218D01*
X94224936Y-71691218D01*
X94291975Y-71710903D01*
X94312617Y-71727537D01*
X96219735Y-73634655D01*
X96219764Y-73634686D01*
X96362214Y-73777136D01*
X96362218Y-73777139D01*
X96526079Y-73886628D01*
X96526083Y-73886630D01*
X96526086Y-73886632D01*
X96653531Y-73939421D01*
X96708164Y-73962051D01*
X96804812Y-73981275D01*
X96885308Y-73997287D01*
X96901458Y-74000500D01*
X96901459Y-74000500D01*
X157204030Y-74000500D01*
X157224535Y-73996421D01*
X157300676Y-73981275D01*
X157397324Y-73962051D01*
X157451957Y-73939421D01*
X157579402Y-73886632D01*
X157743270Y-73777139D01*
X157882627Y-73637782D01*
X157882628Y-73637780D01*
X157889694Y-73630714D01*
X157889697Y-73630710D01*
X170656866Y-60863540D01*
X170718187Y-60830057D01*
X170787879Y-60835041D01*
X170832226Y-60863542D01*
X170975063Y-61006379D01*
X171159772Y-61140579D01*
X171255485Y-61189347D01*
X171363196Y-61244229D01*
X171363198Y-61244229D01*
X171363201Y-61244231D01*
X171450912Y-61272730D01*
X171580339Y-61314784D01*
X171805838Y-61350500D01*
X171805843Y-61350500D01*
X172034162Y-61350500D01*
X172259660Y-61314784D01*
X172265988Y-61312728D01*
X172476799Y-61244231D01*
X172680228Y-61140579D01*
X172864937Y-61006379D01*
X173026379Y-60844937D01*
X173160579Y-60660228D01*
X173264231Y-60456799D01*
X173334784Y-60239660D01*
X173355894Y-60106377D01*
X173370500Y-60014162D01*
X173370500Y-58985837D01*
X173334784Y-58760339D01*
X173302049Y-58659592D01*
X173264231Y-58543201D01*
X173264229Y-58543198D01*
X173264229Y-58543196D01*
X173161942Y-58342447D01*
X173160579Y-58339772D01*
X173026379Y-58155063D01*
X172864937Y-57993621D01*
X172680228Y-57859421D01*
X172476803Y-57755770D01*
X172259660Y-57685215D01*
X172034162Y-57649500D01*
X172034157Y-57649500D01*
X171805843Y-57649500D01*
X171805838Y-57649500D01*
X171580339Y-57685215D01*
X171363196Y-57755770D01*
X171159771Y-57859421D01*
X170975061Y-57993622D01*
X170813622Y-58155061D01*
X170679421Y-58339771D01*
X170632533Y-58431795D01*
X170584558Y-58482591D01*
X170540337Y-58498144D01*
X170531244Y-58499500D01*
X170506947Y-58499500D01*
X170437123Y-58513389D01*
X170434188Y-58513972D01*
X170434173Y-58513975D01*
X170313658Y-58537947D01*
X170313647Y-58537950D01*
X170300975Y-58543200D01*
X170300972Y-58543201D01*
X170131580Y-58613364D01*
X170131567Y-58613371D01*
X169967707Y-58722859D01*
X169930228Y-58760339D01*
X169828349Y-58862218D01*
X169828346Y-58862221D01*
X163263765Y-65426803D01*
X156727387Y-71963181D01*
X156666064Y-71996666D01*
X156639706Y-71999500D01*
X97465782Y-71999500D01*
X97398743Y-71979815D01*
X97378101Y-71963181D01*
X95472197Y-70057277D01*
X95472177Y-70057255D01*
X95328503Y-69913581D01*
X95328499Y-69913578D01*
X95164638Y-69804089D01*
X95164629Y-69804084D01*
X95092033Y-69774014D01*
X95035883Y-69750756D01*
X94982554Y-69728667D01*
X94982550Y-69728666D01*
X94982546Y-69728664D01*
X94885906Y-69709442D01*
X94789262Y-69690218D01*
X94789259Y-69690218D01*
X81513957Y-69690218D01*
X81513937Y-69690217D01*
X81507823Y-69690217D01*
X81310742Y-69690217D01*
X81310739Y-69690217D01*
X81117454Y-69728664D01*
X81117446Y-69728666D01*
X80935370Y-69804084D01*
X80935361Y-69804089D01*
X80771501Y-69913577D01*
X80771497Y-69913580D01*
X75926599Y-74758480D01*
X74362220Y-76322859D01*
X74362218Y-76322861D01*
X74319253Y-76365826D01*
X74222859Y-76462219D01*
X74113371Y-76626079D01*
X74113364Y-76626092D01*
X74037950Y-76808160D01*
X74037947Y-76808170D01*
X73999500Y-77001456D01*
X72500500Y-77001456D01*
X72500500Y-51189082D01*
X72520185Y-51122043D01*
X72521290Y-51120352D01*
X76403862Y-45296496D01*
X76665860Y-44903499D01*
X88999500Y-44903499D01*
X88999500Y-45296500D01*
X89033751Y-45687995D01*
X89033751Y-45687999D01*
X89080004Y-45950309D01*
X89101993Y-46075015D01*
X89203707Y-46454616D01*
X89296629Y-46709917D01*
X89338124Y-46823921D01*
X89504195Y-47180062D01*
X89504207Y-47180086D01*
X89700695Y-47520412D01*
X89700704Y-47520427D01*
X89926115Y-47842347D01*
X90118793Y-48071971D01*
X90178722Y-48143391D01*
X90456609Y-48421278D01*
X90544019Y-48494624D01*
X90757652Y-48673884D01*
X90757658Y-48673888D01*
X90757659Y-48673889D01*
X91079579Y-48899300D01*
X91419920Y-49095796D01*
X91419934Y-49095802D01*
X91419937Y-49095804D01*
X91776078Y-49261875D01*
X91776083Y-49261876D01*
X91776092Y-49261881D01*
X92145384Y-49396293D01*
X92524985Y-49498007D01*
X92912007Y-49566249D01*
X93303502Y-49600499D01*
X93303503Y-49600500D01*
X93303504Y-49600500D01*
X93696497Y-49600500D01*
X93696497Y-49600499D01*
X94087993Y-49566249D01*
X94475015Y-49498007D01*
X94854616Y-49396293D01*
X95223908Y-49261881D01*
X95580080Y-49095796D01*
X95920421Y-48899300D01*
X96242341Y-48673889D01*
X96543391Y-48421278D01*
X96821278Y-48143391D01*
X97073889Y-47842341D01*
X97299300Y-47520421D01*
X97495796Y-47180080D01*
X97661881Y-46823908D01*
X97796293Y-46454616D01*
X97898007Y-46075015D01*
X97966249Y-45687993D01*
X98000500Y-45296496D01*
X98000500Y-44903504D01*
X97966249Y-44512007D01*
X97898007Y-44124985D01*
X97796293Y-43745384D01*
X97661881Y-43376092D01*
X97661876Y-43376083D01*
X97661875Y-43376078D01*
X97495804Y-43019937D01*
X97495792Y-43019913D01*
X97370848Y-42803504D01*
X97299300Y-42679579D01*
X97073889Y-42357659D01*
X97073888Y-42357658D01*
X97073884Y-42357652D01*
X96821275Y-42056606D01*
X96543393Y-41778724D01*
X96242347Y-41526115D01*
X95920427Y-41300704D01*
X95920424Y-41300702D01*
X95920421Y-41300700D01*
X95785600Y-41222861D01*
X95580086Y-41104207D01*
X95580062Y-41104195D01*
X95223921Y-40938124D01*
X95223910Y-40938120D01*
X95223908Y-40938119D01*
X94854616Y-40803707D01*
X94613960Y-40739223D01*
X94475016Y-40701993D01*
X94475005Y-40701991D01*
X94087997Y-40633751D01*
X93696500Y-40599500D01*
X93696496Y-40599500D01*
X93303504Y-40599500D01*
X93303499Y-40599500D01*
X92912004Y-40633751D01*
X92912000Y-40633751D01*
X92524994Y-40701991D01*
X92524983Y-40701993D01*
X92321555Y-40756502D01*
X92145384Y-40803707D01*
X92145381Y-40803708D01*
X92145380Y-40803708D01*
X91776078Y-40938124D01*
X91419937Y-41104195D01*
X91419913Y-41104207D01*
X91079587Y-41300695D01*
X91079572Y-41300704D01*
X90757652Y-41526115D01*
X90456606Y-41778724D01*
X90178724Y-42056606D01*
X89926115Y-42357652D01*
X89700704Y-42679572D01*
X89700695Y-42679587D01*
X89504207Y-43019913D01*
X89504195Y-43019937D01*
X89338124Y-43376078D01*
X89203708Y-43745380D01*
X89203708Y-43745382D01*
X89101993Y-44124983D01*
X89101991Y-44124994D01*
X89033751Y-44512000D01*
X89033751Y-44512004D01*
X88999500Y-44903499D01*
X76665860Y-44903499D01*
X76713516Y-44832015D01*
X80231048Y-39555717D01*
X80284613Y-39510856D01*
X80334222Y-39500500D01*
X103751000Y-39500500D01*
X103818039Y-39520185D01*
G37*
%TD.AperFunction*%
%TD*%
M02*
