%TF.GenerationSoftware,KiCad,Pcbnew,9.0.3*%
%TF.CreationDate,2025-09-26T00:10:55+03:00*%
%TF.ProjectId,LineFollowerPCB,4c696e65-466f-46c6-9c6f-776572504342,1.0*%
%TF.SameCoordinates,Original*%
%TF.FileFunction,Soldermask,Bot*%
%TF.FilePolarity,Negative*%
%FSLAX46Y46*%
G04 Gerber Fmt 4.6, Leading zero omitted, Abs format (unit mm)*
G04 Created by KiCad (PCBNEW 9.0.3) date 2025-09-26 00:10:55*
%MOMM*%
%LPD*%
G01*
G04 APERTURE LIST*
G04 Aperture macros list*
%AMFreePoly0*
4,1,23,0.500000,-0.750000,0.000000,-0.750000,0.000000,-0.745722,-0.065263,-0.745722,-0.191342,-0.711940,-0.304381,-0.646677,-0.396677,-0.554381,-0.461940,-0.441342,-0.495722,-0.315263,-0.495722,-0.250000,-0.500000,-0.250000,-0.500000,0.250000,-0.495722,0.250000,-0.495722,0.315263,-0.461940,0.441342,-0.396677,0.554381,-0.304381,0.646677,-0.191342,0.711940,-0.065263,0.745722,0.000000,0.745722,
0.000000,0.750000,0.500000,0.750000,0.500000,-0.750000,0.500000,-0.750000,$1*%
%AMFreePoly1*
4,1,23,0.000000,0.745722,0.065263,0.745722,0.191342,0.711940,0.304381,0.646677,0.396677,0.554381,0.461940,0.441342,0.495722,0.315263,0.495722,0.250000,0.500000,0.250000,0.500000,-0.250000,0.495722,-0.250000,0.495722,-0.315263,0.461940,-0.441342,0.396677,-0.554381,0.304381,-0.646677,0.191342,-0.711940,0.065263,-0.745722,0.000000,-0.745722,0.000000,-0.750000,-0.500000,-0.750000,
-0.500000,0.750000,0.000000,0.750000,0.000000,0.745722,0.000000,0.745722,$1*%
G04 Aperture macros list end*
%ADD10O,2.500000X1.700000*%
%ADD11R,1.700000X1.700000*%
%ADD12O,1.700000X2.500000*%
%ADD13O,2.704000X1.712000*%
%ADD14FreePoly0,180.000000*%
%ADD15FreePoly1,180.000000*%
%ADD16FreePoly0,0.000000*%
%ADD17FreePoly1,0.000000*%
G04 APERTURE END LIST*
%TO.C,JP3*%
G36*
X109150000Y-95870000D02*
G01*
X108850000Y-95870000D01*
X108850000Y-97370000D01*
X109150000Y-97370000D01*
X109150000Y-95870000D01*
G37*
%TO.C,JP4*%
G36*
X78450000Y-95870000D02*
G01*
X78150000Y-95870000D01*
X78150000Y-97370000D01*
X78450000Y-97370000D01*
X78450000Y-95870000D01*
G37*
%TO.C,JP1*%
G36*
X108850000Y-99910000D02*
G01*
X109150000Y-99910000D01*
X109150000Y-98410000D01*
X108850000Y-98410000D01*
X108850000Y-99910000D01*
G37*
%TO.C,JP2*%
G36*
X78150000Y-99910000D02*
G01*
X78450000Y-99910000D01*
X78450000Y-98410000D01*
X78150000Y-98410000D01*
X78150000Y-99910000D01*
G37*
%TD*%
D10*
%TO.C,U1*%
X191000000Y-113130000D03*
X191000000Y-110590000D03*
X191000000Y-108050000D03*
X191000000Y-105510000D03*
X191000000Y-102970000D03*
X191000000Y-100430000D03*
X191000000Y-97890000D03*
X191000000Y-95350000D03*
X191000000Y-92810000D03*
X191000000Y-90270000D03*
X191000000Y-87730000D03*
X191000000Y-85190000D03*
X191000000Y-82650000D03*
X191000000Y-80110000D03*
X191000000Y-77570000D03*
X191000000Y-75030000D03*
X191000000Y-72490000D03*
X191000000Y-69950000D03*
X191000000Y-67410000D03*
X191000000Y-64870000D03*
X171000000Y-64870000D03*
X171000000Y-67410000D03*
X171000000Y-69950000D03*
X171000000Y-72490000D03*
X171000000Y-75030000D03*
X171000000Y-77570000D03*
X171000000Y-80110000D03*
X171000000Y-82650000D03*
X171000000Y-85190000D03*
X171000000Y-87730000D03*
X171000000Y-90270000D03*
X171000000Y-92810000D03*
X171000000Y-95350000D03*
X171000000Y-97890000D03*
X171000000Y-100430000D03*
X171000000Y-102970000D03*
X171000000Y-105510000D03*
X171000000Y-108050000D03*
X171000000Y-110590000D03*
X171000000Y-113130000D03*
%TD*%
D11*
%TO.C,J3*%
X78250000Y-130400000D03*
D12*
X80790000Y-130400000D03*
X83330000Y-130400000D03*
X85870000Y-130400000D03*
%TD*%
%TO.C,D1*%
X171920000Y-59500000D03*
X182080000Y-59500000D03*
%TD*%
D10*
%TO.C,U4*%
X217900000Y-75180000D03*
X217900000Y-72640000D03*
X217900000Y-67560000D03*
X217900000Y-65020000D03*
X200100000Y-67560000D03*
X200100000Y-65020000D03*
X200100000Y-75180000D03*
X200100000Y-72640000D03*
%TD*%
D13*
%TO.C,J1*%
X217775000Y-87750000D03*
X217775000Y-90250000D03*
%TD*%
%TO.C,J2*%
X217775000Y-95750000D03*
X217775000Y-98250000D03*
X217775000Y-100750000D03*
X217775000Y-103250000D03*
%TD*%
D12*
%TO.C,M2*%
X211080000Y-55100000D03*
X200920000Y-55100000D03*
%TD*%
D10*
%TO.C,U2*%
X212300000Y-105850000D03*
X212300000Y-103310000D03*
X212300000Y-100770000D03*
X212300000Y-98230000D03*
X212300000Y-95690000D03*
X212300000Y-93150000D03*
X197000000Y-93150000D03*
X197000000Y-95690000D03*
X197000000Y-98230000D03*
X197000000Y-100770000D03*
X197000000Y-103310000D03*
X197000000Y-105850000D03*
%TD*%
D12*
%TO.C,M1*%
X200920000Y-122800000D03*
X211080000Y-122800000D03*
%TD*%
%TO.C,J4*%
X216525000Y-81400000D03*
X219065000Y-81400000D03*
%TD*%
%TO.C,U3*%
X189460000Y-58600000D03*
X192000000Y-58600000D03*
X194540000Y-58600000D03*
%TD*%
D10*
%TO.C,U7*%
X94000000Y-76300000D03*
X94000000Y-78840000D03*
X94000000Y-81380000D03*
X94000000Y-83920000D03*
X94000000Y-86460000D03*
X94000000Y-89000000D03*
X94000000Y-91540000D03*
X94000000Y-94080000D03*
X94000000Y-96620000D03*
X94000000Y-99160000D03*
X94000000Y-101700000D03*
%TD*%
D14*
%TO.C,JP3*%
X109650000Y-96620000D03*
D15*
X108350000Y-96620000D03*
%TD*%
D14*
%TO.C,JP4*%
X78950000Y-96620000D03*
D15*
X77650000Y-96620000D03*
%TD*%
D10*
%TO.C,U6*%
X105000000Y-76300000D03*
X105000000Y-78840000D03*
X105000000Y-81380000D03*
X105000000Y-83920000D03*
X105000000Y-86460000D03*
X105000000Y-89000000D03*
X105000000Y-91540000D03*
X105000000Y-94080000D03*
X105000000Y-96620000D03*
X105000000Y-99160000D03*
X105000000Y-101700000D03*
%TD*%
%TO.C,U5*%
X83000000Y-76300000D03*
X83000000Y-78840000D03*
X83000000Y-81380000D03*
X83000000Y-83920000D03*
X83000000Y-86460000D03*
X83000000Y-89000000D03*
X83000000Y-91540000D03*
X83000000Y-94080000D03*
X83000000Y-96620000D03*
X83000000Y-99160000D03*
X83000000Y-101700000D03*
%TD*%
D16*
%TO.C,JP1*%
X108350000Y-99160000D03*
D17*
X109650000Y-99160000D03*
%TD*%
D16*
%TO.C,JP2*%
X77650000Y-99160000D03*
D17*
X78950000Y-99160000D03*
%TD*%
M02*
